<svg width="30" height="30" viewBox="0 0 30 30" fill="none" xmlns="http://www.w3.org/2000/svg">
<path d="M15 28.125C7.75126 28.125 1.875 22.2487 1.875 15C1.875 7.75126 7.75126 1.875 15 1.875C22.2487 1.875 28.125 7.75126 28.125 15C28.125 22.2487 22.2487 28.125 15 28.125ZM15 30C23.2843 30 30 23.2843 30 15C30 6.71573 23.2843 0 15 0C6.71573 0 0 6.71573 0 15C0 23.2843 6.71573 30 15 30Z" fill="black"/>
<path d="M13.1279 20.625C13.1279 19.5895 13.9674 18.75 15.0029 18.75C16.0384 18.75 16.8779 19.5895 16.8779 20.625C16.8779 21.6605 16.0384 22.5 15.0029 22.5C13.9674 22.5 13.1279 21.6605 13.1279 20.625Z" fill="black"/>
<path d="M13.3116 9.3657C13.2117 8.36678 13.9961 7.5 15 7.5C16.0039 7.5 16.7883 8.36678 16.6884 9.36569L16.0308 15.9422C15.9778 16.4717 15.5322 16.875 15 16.875C14.4678 16.875 14.0222 16.4717 13.9692 15.9422L13.3116 9.3657Z" fill="black"/>
</svg>
