<svg width="25" height="22" viewBox="0 0 25 22" fill="none" xmlns="http://www.w3.org/2000/svg">
<path d="M0 1.5639C0 1.1495 0.16462 0.752075 0.457646 0.459049C0.750671 0.166024 1.1481 0.00140381 1.5625 0.00140381H23.4375C23.8519 0.00140381 24.2493 0.166024 24.5424 0.459049C24.8354 0.752075 25 1.1495 25 1.5639V4.6889C25 5.1033 24.8354 5.50073 24.5424 5.79376C24.2493 6.08678 23.8519 6.2514 23.4375 6.2514V17.9702C23.4375 19.0062 23.0259 19.9997 22.2934 20.7323C21.5608 21.4649 20.5673 21.8764 19.5312 21.8764H5.46875C4.43275 21.8764 3.43918 21.4649 2.70661 20.7323C1.97405 19.9997 1.5625 19.0062 1.5625 17.9702V6.2514C1.1481 6.2514 0.750671 6.08678 0.457646 5.79376C0.16462 5.50073 0 5.1033 0 4.6889V1.5639ZM3.125 6.2514V17.9702C3.125 18.5918 3.37193 19.1879 3.81147 19.6274C4.25101 20.067 4.84715 20.3139 5.46875 20.3139H19.5312C20.1529 20.3139 20.749 20.067 21.1885 19.6274C21.6281 19.1879 21.875 18.5918 21.875 17.9702V6.2514H3.125ZM23.4375 1.5639H1.5625V4.6889H23.4375V1.5639ZM7.8125 10.1577C7.8125 9.95045 7.89481 9.75174 8.04132 9.60523C8.18784 9.45871 8.38655 9.3764 8.59375 9.3764H16.4062C16.6135 9.3764 16.8122 9.45871 16.9587 9.60523C17.1052 9.75174 17.1875 9.95045 17.1875 10.1577C17.1875 10.3649 17.1052 10.5636 16.9587 10.7101C16.8122 10.8566 16.6135 10.9389 16.4062 10.9389H8.59375C8.38655 10.9389 8.18784 10.8566 8.04132 10.7101C7.89481 10.5636 7.8125 10.3649 7.8125 10.1577Z" fill="#1B75BC"/>
</svg>
