<svg width="25" height="25" viewBox="0 0 25 25" fill="none" xmlns="http://www.w3.org/2000/svg">
<path d="M21.875 2.0014C22.2894 2.0014 22.6868 2.16602 22.9799 2.45905C23.2729 2.75207 23.4375 3.1495 23.4375 3.5639V16.0639C23.4375 16.4783 23.2729 16.8757 22.9799 17.1688C22.6868 17.4618 22.2894 17.6264 21.875 17.6264H6.89687C6.06814 17.6266 5.27341 17.9559 4.6875 18.542L1.5625 21.667V3.5639C1.5625 3.1495 1.72712 2.75207 2.02015 2.45905C2.31317 2.16602 2.7106 2.0014 3.125 2.0014H21.875ZM3.125 0.438904C2.2962 0.438904 1.50134 0.768144 0.915291 1.3542C0.32924 1.94025 0 2.7351 0 3.5639L0 23.553C3.28357e-05 23.7076 0.0459259 23.8587 0.131871 23.9871C0.217816 24.1156 0.339948 24.2157 0.482811 24.2748C0.625674 24.3339 0.782845 24.3492 0.934431 24.3189C1.08602 24.2886 1.2252 24.214 1.33437 24.1045L5.79219 19.6467C6.08514 19.3537 6.48251 19.189 6.89687 19.1889H21.875C22.7038 19.1889 23.4987 18.8597 24.0847 18.2736C24.6708 17.6876 25 16.8927 25 16.0639V3.5639C25 2.7351 24.6708 1.94025 24.0847 1.3542C23.4987 0.768144 22.7038 0.438904 21.875 0.438904L3.125 0.438904Z" fill="#1B75BC"/>
</svg>
