<svg width="34" height="26" viewBox="0 0 34 26" fill="none" xmlns="http://www.w3.org/2000/svg">
<path d="M31.875 26C31.875 26 34 26 34 23.8333C34 21.6667 31.875 15.1667 23.375 15.1667C14.875 15.1667 12.75 21.6667 12.75 23.8333C12.75 26 14.875 26 14.875 26H31.875ZM14.9217 23.8333C14.9061 23.8311 14.8905 23.8282 14.875 23.8247C14.8771 23.2527 15.2299 21.593 16.49 20.098C17.663 18.6962 19.7242 17.3333 23.375 17.3333C27.0236 17.3333 29.0849 18.6983 30.26 20.098C31.5201 21.593 31.8707 23.2548 31.875 23.8247L31.858 23.829C31.8481 23.8307 31.8382 23.8322 31.8282 23.8333H14.9217ZM23.375 10.8333C24.5022 10.8333 25.5832 10.3768 26.3802 9.56413C27.1772 8.75147 27.625 7.64927 27.625 6.5C27.625 5.35073 27.1772 4.24853 26.3802 3.43587C25.5832 2.62321 24.5022 2.16667 23.375 2.16667C22.2478 2.16667 21.1668 2.62321 20.3698 3.43587C19.5728 4.24853 19.125 5.35073 19.125 6.5C19.125 7.64927 19.5728 8.75147 20.3698 9.56413C21.1668 10.3768 22.2478 10.8333 23.375 10.8333ZM29.75 6.5C29.75 7.35359 29.5851 8.19883 29.2647 8.98744C28.9444 9.77606 28.4748 10.4926 27.8828 11.0962C27.2908 11.6998 26.5881 12.1786 25.8146 12.5052C25.0412 12.8319 24.2122 13 23.375 13C22.5378 13 21.7088 12.8319 20.9354 12.5052C20.1619 12.1786 19.4592 11.6998 18.8672 11.0962C18.2752 10.4926 17.8056 9.77606 17.4853 8.98744C17.1649 8.19883 17 7.35359 17 6.5C17 4.77609 17.6716 3.12279 18.8672 1.90381C20.0627 0.68482 21.6842 0 23.375 0C25.0658 0 26.6873 0.68482 27.8828 1.90381C29.0784 3.12279 29.75 4.77609 29.75 6.5ZM14.739 15.7733C13.889 15.5004 13.0127 15.321 12.1252 15.2382C11.6266 15.1898 11.1259 15.166 10.625 15.1667C2.125 15.1667 0 21.6667 0 23.8333C0 25.2785 0.707625 26 2.125 26H11.084C10.769 25.3236 10.6119 24.582 10.625 23.8333C10.625 21.645 11.4261 19.409 12.9413 17.5413C13.4576 16.9043 14.059 16.3085 14.739 15.7733ZM10.455 17.3333C9.19733 19.2601 8.51794 21.5189 8.5 23.8333H2.125C2.125 23.27 2.4735 21.6017 3.74 20.098C4.89813 18.72 6.9105 17.3767 10.455 17.3355V17.3333ZM3.1875 7.58333C3.1875 5.85943 3.85915 4.20613 5.05469 2.98714C6.25024 1.76815 7.87174 1.08333 9.5625 1.08333C11.2533 1.08333 12.8748 1.76815 14.0703 2.98714C15.2658 4.20613 15.9375 5.85943 15.9375 7.58333C15.9375 9.30724 15.2658 10.9605 14.0703 12.1795C12.8748 13.3985 11.2533 14.0833 9.5625 14.0833C7.87174 14.0833 6.25024 13.3985 5.05469 12.1795C3.85915 10.9605 3.1875 9.30724 3.1875 7.58333ZM9.5625 3.25C8.43533 3.25 7.35433 3.70655 6.5573 4.5192C5.76027 5.33186 5.3125 6.43406 5.3125 7.58333C5.3125 8.73261 5.76027 9.83481 6.5573 10.6475C7.35433 11.4601 8.43533 11.9167 9.5625 11.9167C10.6897 11.9167 11.7707 11.4601 12.5677 10.6475C13.3647 9.83481 13.8125 8.73261 13.8125 7.58333C13.8125 6.43406 13.3647 5.33186 12.5677 4.5192C11.7707 3.70655 10.6897 3.25 9.5625 3.25Z" fill="#1B75BC"/>
</svg>
