<svg width="33" height="23" viewBox="0 0 33 23" fill="none" xmlns="http://www.w3.org/2000/svg">
<path d="M8.17969 15.875H7.84508L7.62157 16.124L3.44188 20.7803L2.31892 22.0313H4H21.2266H21.5611L21.7846 21.7824L29.558 13.1261L30.6815 11.875H29H25.1172H24.7828L24.5593 12.1238L21.189 15.875H8.17969Z" fill="white" stroke="#1B75BC" stroke-width="1.5"/>
<path d="M8.17969 10.5625H7.84508L7.62157 10.8115L3.44188 15.4678L2.31892 16.7188H4H21.2266H21.5611L21.7846 16.4699L29.558 7.81361L30.6815 6.5625H29H25.1094H24.7745L24.5509 6.81186L21.1885 10.5625H8.17969Z" fill="white" stroke="#1B75BC" stroke-width="1.5"/>
<path d="M21.2266 11.4063H21.5611L21.7846 11.1574L29.558 2.50111L30.6815 1.25H29H11.7734H11.4389L11.2154 1.49889L3.44198 10.1551L2.31846 11.4063H4H21.2266Z" fill="white" stroke="#1B75BC" stroke-width="1.5"/>
</svg>
