<svg width="21" height="22" viewBox="0 0 21 22" fill="none" xmlns="http://www.w3.org/2000/svg">
<path d="M11.0531 0.229522C10.9806 0.156766 10.8943 0.0990433 10.7994 0.0596582C10.7045 0.0202731 10.6028 0 10.5 0C10.3972 0 10.2955 0.0202731 10.2006 0.0596582C10.1057 0.0990433 10.0194 0.156766 9.94688 0.229522L0.571876 9.60452C0.499373 9.67721 0.441908 9.76347 0.402764 9.85838C0.363621 9.95329 0.343568 10.055 0.343751 10.1576V21.0951C0.343751 21.3023 0.426061 21.5011 0.572574 21.6476C0.719087 21.7941 0.917801 21.8764 1.125 21.8764H8.15625C8.36345 21.8764 8.56217 21.7941 8.70868 21.6476C8.85519 21.5011 8.9375 21.3023 8.9375 21.0951V14.8451H12.0625V21.0951C12.0625 21.3023 12.1448 21.5011 12.2913 21.6476C12.4378 21.7941 12.6366 21.8764 12.8438 21.8764H19.875C20.0822 21.8764 20.2809 21.7941 20.4274 21.6476C20.5739 21.5011 20.6563 21.3023 20.6563 21.0951V10.1576C20.6564 10.055 20.6364 9.95329 20.5972 9.85838C20.5581 9.76347 20.5006 9.67721 20.4281 9.60452L18.3125 7.49046V2.34515C18.3125 2.13795 18.2302 1.93923 18.0837 1.79272C17.9372 1.64621 17.7385 1.5639 17.5313 1.5639H15.9688C15.7616 1.5639 15.5628 1.64621 15.4163 1.79272C15.2698 1.93923 15.1875 2.13795 15.1875 2.34515V4.36546L11.0531 0.229522ZM1.90625 20.3139V10.4811L10.5 1.88733L19.0938 10.4811V20.3139H13.625V14.0639C13.625 13.8567 13.5427 13.658 13.3962 13.5115C13.2497 13.365 13.051 13.2826 12.8438 13.2826H8.15625C7.94905 13.2826 7.75034 13.365 7.60383 13.5115C7.45731 13.658 7.375 13.8567 7.375 14.0639V20.3139H1.90625Z" fill="#1B75BC"/>
</svg>
