<svg width="25" height="20" viewBox="0 0 25 20" fill="none" xmlns="http://www.w3.org/2000/svg">
<path d="M4.8625 3.13422C4.8309 2.80885 4.86771 2.48048 4.97057 2.17019C5.07343 1.8599 5.24006 1.57456 5.45975 1.3325C5.67945 1.09043 5.94735 0.897006 6.24624 0.764641C6.54514 0.632275 6.86842 0.563898 7.19531 0.563904H10.9375C11.1447 0.563904 11.3434 0.646214 11.4899 0.792727C11.6364 0.93924 11.7188 1.13795 11.7188 1.34515V1.94203C11.7188 3.02953 10.9422 3.7889 10.3562 4.23734C10.2857 4.28746 10.2248 4.34992 10.1766 4.42172C10.1687 4.43392 10.1624 4.44704 10.1578 4.46078L10.1562 4.47015V4.47484L10.1609 4.49047C10.1672 4.50609 10.1828 4.53422 10.2172 4.57328C10.3368 4.7008 10.4801 4.80377 10.6391 4.8764C11.0781 5.09515 11.7344 5.2514 12.5 5.2514C13.2688 5.2514 13.925 5.09515 14.3594 4.8764C14.5189 4.80394 14.6628 4.70096 14.7828 4.57328C14.8087 4.54428 14.8293 4.51096 14.8438 4.47484V4.46078C14.8391 4.44703 14.8328 4.43391 14.825 4.42172C14.7767 4.34992 14.7158 4.28746 14.6453 4.23734C14.0594 3.7889 13.2828 3.02953 13.2828 1.94203V1.34515C13.2828 1.13822 13.3649 0.939746 13.5111 0.793279C13.6573 0.646811 13.8556 0.564318 14.0625 0.563904H17.8047C18.1316 0.563898 18.4549 0.632275 18.7538 0.764641C19.0527 0.897006 19.3206 1.09043 19.5402 1.3325C19.7599 1.57456 19.9266 1.8599 20.0294 2.17019C20.1323 2.48048 20.1691 2.80885 20.1375 3.13422L19.7578 7.59515H20.1281C20.4328 7.59515 20.7844 7.36547 21.1828 6.84515C21.5109 6.41703 22.0078 6.03265 22.6562 6.03265C23.5438 6.03265 24.1359 6.73109 24.4594 7.37953C24.8078 8.07484 25 8.98109 25 9.9389C25 10.8967 24.8078 11.803 24.4594 12.4983C24.1359 13.1467 23.5438 13.8452 22.6562 13.8452C22.0078 13.8452 21.5109 13.4608 21.1828 13.0327C20.7844 12.5123 20.4328 12.2827 20.1281 12.2827H19.7578L20.1375 16.7436C20.1691 17.069 20.1323 17.3973 20.0294 17.7076C19.9266 18.0179 19.7599 18.3033 19.5402 18.5453C19.3206 18.7874 19.0527 18.9808 18.7538 19.1132C18.4549 19.2455 18.1316 19.3139 17.8047 19.3139H14.0625C13.8553 19.3139 13.6566 19.2316 13.5101 19.0851C13.3636 18.9386 13.2812 18.7399 13.2812 18.5327V17.9358C13.2812 16.8483 14.0578 16.0889 14.6437 15.6405C14.7143 15.5904 14.7752 15.5279 14.8234 15.4561C14.8313 15.4439 14.8376 15.4308 14.8422 15.417L14.8438 15.4077V15.403C14.8295 15.3663 14.8089 15.3325 14.7828 15.303C14.6631 15.176 14.5198 15.0735 14.3609 15.0014C13.9219 14.7827 13.2656 14.6264 12.5 14.6264C11.7328 14.6264 11.075 14.7827 10.6406 15.0014C10.481 15.0738 10.3372 15.1768 10.2172 15.3045C10.1913 15.3335 10.1707 15.3669 10.1562 15.403V15.4077L10.1578 15.417C10.1624 15.4308 10.1687 15.4439 10.1766 15.4561C10.2016 15.4983 10.2547 15.5623 10.3562 15.6405C10.9422 16.0889 11.7188 16.8483 11.7188 17.9358V18.5327C11.7188 18.7399 11.6364 18.9386 11.4899 19.0851C11.3434 19.2316 11.1447 19.3139 10.9375 19.3139H7.19531C6.86842 19.3139 6.54514 19.2455 6.24624 19.1132C5.94735 18.9808 5.67945 18.7874 5.45975 18.5453C5.24006 18.3033 5.07343 18.0179 4.97057 17.7076C4.86771 17.3973 4.8309 17.069 4.8625 16.7436L5.24375 12.2827H4.87187C4.56719 12.2827 4.21563 12.5123 3.81719 13.0327C3.48906 13.4608 2.99219 13.8452 2.34375 13.8452C1.45625 13.8452 0.864062 13.1467 0.540625 12.4983C0.192187 11.803 0 10.8967 0 9.9389C0 8.98109 0.192187 8.07484 0.540625 7.37953C0.864062 6.73109 1.45625 6.03265 2.34375 6.03265C2.99219 6.03265 3.48906 6.41703 3.81719 6.84515C4.21563 7.36547 4.56719 7.59515 4.87187 7.59515H5.24375L4.8625 3.13422ZM7.19531 2.1264C7.08606 2.12629 6.978 2.1491 6.87811 2.19334C6.77822 2.23759 6.68872 2.3023 6.6154 2.38328C6.54207 2.46427 6.48654 2.55973 6.4524 2.66351C6.41826 2.76729 6.40626 2.87708 6.41719 2.98578L6.41875 2.99672L6.87187 8.30922C6.88118 8.41705 6.86798 8.52565 6.83311 8.62812C6.79823 8.73058 6.74245 8.82469 6.66929 8.90446C6.59613 8.98423 6.50719 9.04793 6.40812 9.09151C6.30904 9.1351 6.20199 9.15762 6.09375 9.15765H4.87187C3.78438 9.15765 3.025 8.38109 2.57656 7.79515C2.52645 7.72463 2.46398 7.66375 2.39219 7.61547C2.37999 7.60762 2.36687 7.60132 2.35313 7.59672L2.34375 7.59515H2.33906C2.30239 7.6094 2.26853 7.63003 2.23906 7.65609C2.1121 7.7758 2.00968 7.9191 1.9375 8.07797C1.71875 8.51703 1.5625 9.17328 1.5625 9.9389C1.5625 10.7061 1.71875 11.3639 1.9375 11.7983C2.04688 12.017 2.15625 12.1498 2.24062 12.2217C2.26963 12.2476 2.30294 12.2682 2.33906 12.2827H2.34375L2.35313 12.2811C2.36687 12.2765 2.37999 12.2702 2.39219 12.2623C2.46398 12.2141 2.52645 12.1532 2.57656 12.0827C3.025 11.4967 3.78438 10.7202 4.87187 10.7202H6.09375C6.20185 10.7202 6.30875 10.7427 6.40772 10.7862C6.50668 10.8297 6.59553 10.8932 6.66867 10.9728C6.74181 11.0524 6.79763 11.1463 6.83261 11.2486C6.86758 11.3509 6.88095 11.4593 6.87187 11.567L6.41875 16.892C6.40784 17.0006 6.41979 17.1103 6.45384 17.2139C6.48789 17.3176 6.54328 17.413 6.61643 17.4939C6.68959 17.5749 6.7789 17.6396 6.8786 17.684C6.97831 17.7283 7.08619 17.7513 7.19531 17.7514H10.1297C10.0547 17.492 9.825 17.2014 9.40625 16.8811C8.97812 16.553 8.59375 16.0561 8.59375 15.4077C8.59375 14.5202 9.29219 13.928 9.94063 13.6045C10.6359 13.2561 11.5422 13.0639 12.5 13.0639C13.4578 13.0639 14.3641 13.2561 15.0594 13.6045C15.7078 13.928 16.4062 14.5202 16.4062 15.4077C16.4062 16.0561 16.0219 16.553 15.5937 16.8811C15.175 17.2014 14.9453 17.4905 14.8703 17.7514H17.8047C17.9139 17.7515 18.022 17.7287 18.1219 17.6845C18.2218 17.6402 18.3113 17.5755 18.3846 17.4945C18.4579 17.4135 18.5135 17.3181 18.5476 17.2143C18.5817 17.1105 18.5937 17.0007 18.5828 16.892L18.5813 16.8811L18.1281 11.5686C18.1188 11.4608 18.132 11.3522 18.1669 11.2497C18.2018 11.1472 18.2576 11.0531 18.3307 10.9733C18.4039 10.8936 18.4928 10.8299 18.5919 10.7863C18.691 10.7427 18.798 10.7202 18.9062 10.7202H20.1281C21.2156 10.7202 21.975 11.4967 22.4234 12.0827C22.5016 12.1842 22.5656 12.2373 22.6078 12.2623C22.6281 12.2748 22.6406 12.278 22.6469 12.2811C22.6499 12.2821 22.6531 12.2826 22.6562 12.2827H22.6609C22.6976 12.2684 22.7314 12.2478 22.7609 12.2217C22.8879 12.102 22.9903 11.9587 23.0625 11.7998C23.2812 11.3623 23.4375 10.7061 23.4375 9.9389C23.4375 9.17015 23.2812 8.5139 23.0625 8.07953C22.99 7.91997 22.8871 7.77612 22.7594 7.65609C22.7303 7.63024 22.697 7.60962 22.6609 7.59515H22.6562L22.6469 7.59672C22.6331 7.60134 22.62 7.60764 22.6078 7.61547C22.536 7.66375 22.4736 7.72463 22.4234 7.79515C21.975 8.38109 21.2156 9.15765 20.1281 9.15765H18.9062C18.798 9.15762 18.691 9.1351 18.5919 9.09151C18.4928 9.04793 18.4039 8.98423 18.3307 8.90446C18.2576 8.82469 18.2018 8.73058 18.1669 8.62812C18.132 8.52565 18.1188 8.41705 18.1281 8.30922L18.5813 2.98578C18.5922 2.87721 18.5802 2.76755 18.5462 2.66388C18.5121 2.56021 18.4567 2.46482 18.3836 2.38386C18.3104 2.3029 18.2211 2.23816 18.1214 2.19382C18.0217 2.14948 17.9138 2.12651 17.8047 2.1264H14.8703C14.9453 2.38578 15.175 2.6764 15.5937 2.99672C16.0219 3.32484 16.4062 3.82172 16.4062 4.47015C16.4062 5.35765 15.7078 5.94984 15.0594 6.27328C14.3641 6.62172 13.4578 6.8139 12.5 6.8139C11.5422 6.8139 10.6359 6.62172 9.94063 6.27328C9.29219 5.94984 8.59375 5.35765 8.59375 4.47015C8.59375 3.82172 8.97812 3.32484 9.40625 2.99672C9.825 2.6764 10.0547 2.38734 10.1297 2.1264H7.19531Z" fill="#1B75BC"/>
</svg>
