<svg width="20" height="20" viewBox="0 0 20 20" fill="none" xmlns="http://www.w3.org/2000/svg">
<path d="M10 20C15.5228 20 20 15.5228 20 10C20 4.47715 15.5228 0 10 0C4.47715 0 0 4.47715 0 10C0 15.5228 4.47715 20 10 20Z" fill="#1B75BC"/>
<path d="M6.41849 16.4955C6.34146 16.4955 6.457 16.4377 6.41849 16.4955Z" fill="white"/>
<path d="M7.06033 1.36072C7.06033 1.36072 7.02182 1.36072 7.06033 1.40565C7.09884 1.45058 7.10526 1.37997 7.06033 1.36072Z" fill="white"/>
<path d="M5.25674 3.14506C5.19255 3.14506 5.53915 3.21566 5.50706 3.20282C5.60976 3.20282 5.62259 3.09371 5.57766 3.04236C5.46213 2.88832 5.39153 3.00385 5.19897 3.04236C5.11985 3.09204 5.04474 3.14784 4.97433 3.20924C5.02328 3.21872 5.07366 3.2179 5.12228 3.20685C5.1709 3.1958 5.21669 3.17476 5.25674 3.14506Z" fill="white"/>
<path d="M6.92555 17.6637C6.96406 17.6637 6.95764 17.6637 6.92555 17.6252C6.89345 17.5866 6.88703 17.6444 6.92555 17.6637Z" fill="white"/>
<path d="M7.27214 17.8113C7.30424 17.8113 7.31065 17.8113 7.27214 17.7728C7.23363 17.7343 7.23363 17.8049 7.27214 17.8113Z" fill="white"/>
<path d="M4.9294 2.70218C4.9294 2.70218 4.9294 2.74711 4.87805 2.7792C4.8267 2.8113 4.94223 2.74711 4.9294 2.70218Z" fill="white"/>
<path d="M2.18228 6.88062C2.09243 6.88062 2.24647 6.88062 2.18228 6.88062Z" fill="white"/>
<path d="M6.41849 7.23363C6.41849 7.27214 6.3543 7.23363 6.41849 7.23363Z" fill="white"/>
<path d="M8.21566 2.47754C8.27774 2.46642 8.33679 2.44237 8.38896 2.40693C8.34403 2.42619 8.26059 2.41335 8.21566 2.47754Z" fill="white"/>
<path d="M7.5353 3.3697C7.5353 3.33119 7.49037 3.33119 7.45828 3.3697C7.42619 3.40822 7.48395 3.34403 7.5353 3.3697Z" fill="white"/>
<path d="M7.88832 2.362C7.93325 2.362 7.77279 2.362 7.74711 2.47112C7.74711 2.41977 7.97818 2.40693 7.97818 2.39409C7.96772 2.38085 7.95375 2.37081 7.93786 2.36514C7.92197 2.35946 7.9048 2.35837 7.88832 2.362Z" fill="white"/>
<path d="M7.38768 2.71502C7.43261 2.71502 7.32349 2.71502 7.38768 2.71502Z" fill="white"/>
<path d="M6.91913 2.68935C6.91913 2.68935 6.79718 2.74069 6.78434 2.77279C6.85494 2.70218 6.65597 2.93967 6.91913 2.68935Z" fill="white"/>
<path d="M6.8421 3.01027C6.76508 3.01027 6.91913 3.01027 6.8421 3.01027Z" fill="white"/>
<path d="M7.15661 2.20154C7.15661 2.20154 7.15661 2.16945 7.11168 2.20154C7.06675 2.23363 7.13736 2.2208 7.15661 2.20154Z" fill="white"/>
<path d="M6.02054 3.53659C5.9768 3.5324 5.93266 3.53706 5.89075 3.55029C5.84885 3.56352 5.81004 3.58506 5.77664 3.61361C5.81515 3.67137 6.36714 3.56868 6.02054 3.53659Z" fill="white"/>
<path d="M7.20796 1.38639C7.18085 1.37757 7.15163 1.37757 7.12452 1.38639C7.06033 1.45058 7.23363 1.4249 7.20796 1.38639Z" fill="white"/>
<path d="M5.9371 3.25417C5.9371 3.25417 5.9371 3.25417 5.98203 3.25417C6.02696 3.25417 5.95635 3.24775 5.9371 3.25417Z" fill="white"/>
<path d="M5.13479 3.41463C5.13479 3.41463 4.89089 3.76765 4.9294 3.80616C5.11372 3.65569 5.28943 3.49497 5.45571 3.32478C5.60976 3.22208 5.45571 3.50449 5.42362 3.56226C5.39153 3.62003 5.49422 3.51091 5.51348 3.56226C5.51907 3.58363 5.51906 3.60608 5.51344 3.62745C5.50782 3.64881 5.49678 3.66836 5.48139 3.68421C5.56483 3.68421 5.72529 3.51091 5.73171 3.41463C5.8344 3.56868 5.91142 3.37612 5.78306 3.31836C5.6751 3.28188 5.56002 3.27158 5.44731 3.28832C5.3346 3.30506 5.22748 3.34836 5.13479 3.41463ZM5.74454 3.31836C5.70603 3.31836 5.68678 3.31836 5.68036 3.31836C5.67394 3.31836 5.77664 3.28626 5.73813 3.31836H5.74454Z" fill="white"/>
<path d="M5.96277 1.37997C6.07241 1.36641 6.17884 1.33383 6.27728 1.2837C6.16753 1.29673 6.06101 1.32934 5.96277 1.37997Z" fill="white"/>
<path d="M5.29525 3.80616C5.26316 3.90886 5.68678 3.74198 5.68036 3.74198C5.72655 3.72967 5.76864 3.7053 5.80231 3.67137C5.66992 3.6597 5.53676 3.6597 5.40436 3.67137C5.44288 3.69063 5.28883 3.85109 5.29525 3.80616Z" fill="white"/>
<path d="M8.20282 1.32863C8.14506 1.2837 8.13222 1.2837 8.10013 1.36072C8.13222 1.34146 8.17715 1.36072 8.20282 1.32863Z" fill="white"/>
<path d="M5.26316 1.92555C5.3467 1.90477 5.4283 1.87686 5.50706 1.84211C5.50064 1.79076 5.28883 1.92555 5.26316 1.92555Z" fill="white"/>
<path d="M5.19897 2.16303C5.19897 2.16303 5.13479 2.17587 5.13479 2.20154C5.14832 2.20378 5.1622 2.20114 5.17396 2.19409C5.18572 2.18703 5.19459 2.17602 5.19897 2.16303Z" fill="white"/>
<path d="M5.19255 3.06162C5.1733 3.06804 5.13479 3.08087 5.19255 3.06162Z" fill="white"/>
<path d="M6.82285 2.39409C6.79076 2.39409 6.74583 2.39409 6.70732 2.43902C6.77792 2.45186 6.77792 2.45186 6.82285 2.39409Z" fill="white"/>
<path d="M5.00642 2.75995C5.05777 2.75995 5.33376 2.45186 5.28241 2.40051C5.23107 2.34917 5.07702 2.4647 5.04493 2.47754C5.01284 2.49037 5.13479 2.56739 5.13479 2.51605C5.13479 2.4647 5.13479 2.68293 5.0706 2.7086C5.00642 2.73427 5.01284 2.72786 5.00642 2.75995ZM5.13479 2.51605C5.13479 2.51605 5.13479 2.51605 5.13479 2.4647C5.13479 2.41335 5.13479 2.49679 5.13479 2.51605Z" fill="white"/>
<path d="M7.9525 1.457H8.01027C8.01027 1.457 8.03594 1.38639 7.9525 1.457Z" fill="white"/>
<path d="M5.71245 1.5982C5.71245 1.5982 5.57125 1.65597 5.54557 1.66881C5.54557 1.66881 5.50064 1.66881 5.4878 1.72015C5.47497 1.7715 5.77664 1.65597 5.71245 1.5982Z" fill="white"/>
<path d="M5.47497 2.87548C5.50706 2.91399 5.56483 2.8113 5.56483 2.80488C5.56483 2.79846 5.44929 2.84339 5.47497 2.87548Z" fill="white"/>
<path d="M18.9474 11.5533C18.9474 11.4891 19.0244 11.4634 19.0372 11.3992C18.9474 11.4763 18.9474 11.4763 18.9474 11.5533Z" fill="white"/>
<path d="M8.7484 3.06804C8.78691 3.06804 8.7484 3.06804 8.7163 3.06804C8.68421 3.06804 8.73556 3.08729 8.7484 3.06804Z" fill="white"/>
<path d="M19.0822 10.5712C19.0523 10.7471 19.0415 10.9258 19.0501 11.104C19.0399 11.2146 19.053 11.3261 19.0886 11.4313C19.1014 11.1489 19.0886 10.8601 19.0822 10.5712Z" fill="white"/>
<path d="M19.1207 10.0193C19.1207 10.0193 19.1207 10.0642 19.1207 10.1027C19.1207 10.1412 19.1335 10.0513 19.1207 10.0193Z" fill="white"/>
<path d="M14.2169 2.43261L14.2683 2.47112C14.2683 2.47112 14.2234 2.43261 14.2169 2.43261Z" fill="white"/>
<path d="M19.0757 12.3299C19.1654 12.1102 19.207 11.8738 19.1977 11.6367C19.1977 11.6367 19.1977 11.5982 19.1977 11.5789C19.1784 11.8357 19.0822 12.0668 19.0757 12.3299Z" fill="white"/>
<path d="M18.8575 12.5931H18.9217C18.9217 12.5931 18.8254 12.5931 18.8575 12.5931Z" fill="white"/>
<path d="M18.2028 5.50064C18.1451 5.53915 18.6521 6.29012 18.6906 6.38639C18.6906 6.4249 18.7291 6.48267 18.6906 6.38639C18.8768 6.81001 19.0693 7.23363 19.2362 7.67009V7.63158C19.1977 7.4647 19.1463 7.2914 19.1014 7.12452C18.867 6.54965 18.5654 6.00456 18.2028 5.50064Z" fill="white"/>
<path d="M19.1784 9.62773C19.1784 9.69191 19.1399 9.73684 19.1784 9.78819C19.1656 9.74326 19.2041 9.70475 19.1784 9.62773Z" fill="white"/>
<path d="M19.3196 10.077C19.3328 10.0309 19.3328 9.98196 19.3196 9.93581C19.1784 10.0193 19.2234 10.2824 19.2298 10.4172C19.3389 10.3145 19.294 10.2567 19.3389 10.077H19.3196Z" fill="white"/>
<path d="M10 0.365854C8.09581 0.365854 6.23439 0.93051 4.65112 1.98842C3.06785 3.04633 1.83384 4.54997 1.10514 6.30921C0.376439 8.06845 0.185778 10.0043 0.557266 11.8719C0.928754 13.7395 1.84571 15.455 3.19217 16.8014C4.53863 18.1479 6.25413 19.0648 8.12172 19.4363C9.98932 19.8078 11.9251 19.6171 13.6844 18.8884C15.4436 18.1597 16.9473 16.9257 18.0052 15.3425C19.0631 13.7592 19.6277 11.8978 19.6277 9.99358C19.6277 7.44015 18.6134 4.9913 16.8078 3.18575C15.0023 1.3802 12.5534 0.365854 10 0.365854ZM11.7522 0.641849C11.7843 0.641849 11.6945 0.641849 11.7073 0.641849C11.5854 0.641849 11.457 0.641849 11.335 0.596919C11.4757 0.586872 11.617 0.602089 11.7522 0.641849ZM11.4698 1.2837C11.534 1.2837 12.0218 1.32221 11.8485 1.39923C11.6752 1.47625 11.5212 1.5276 11.3992 1.39923C11.2773 1.27086 11.2003 1.30295 11.1938 1.29653C11.1938 1.29653 11.4313 1.34788 11.4698 1.34146V1.2837ZM8.47882 0.641849C8.77641 0.524536 9.09999 0.489075 9.41592 0.539153C9.69833 0.577664 9.98716 0.487805 10.2632 0.539153C10.3722 0.545511 10.4815 0.545511 10.5905 0.539153C10.6868 0.539153 10.5905 0.654685 10.6868 0.667522C10.7831 0.680359 10.8857 0.827985 10.9499 0.795892C10.9499 0.898588 10.8986 0.827985 10.9499 0.924262C11.0013 1.02054 11.0783 1.01412 11.0719 1.02054C10.9671 1.02697 10.8621 1.02697 10.7574 1.02054C10.7574 1.02054 10.7574 1.07189 10.7574 1.05905C10.8471 1.06548 10.9372 1.06548 11.027 1.05905C10.8665 1.20668 10.629 1.18742 10.4493 1.30295C10.3226 1.35198 10.1915 1.38853 10.0578 1.41207C10.0334 1.55688 9.97388 1.69352 9.88447 1.81001C9.8267 1.89987 9.42234 1.69448 9.37741 1.64313C9.33248 1.59178 9.08857 1.25802 9.3068 1.17458C9.52503 1.09114 9.3068 1.17458 9.22978 1.09756C9.29397 1.0077 9.36457 1.03979 9.46727 1.05263C9.44849 1.02035 9.41768 0.996818 9.38159 0.987195C9.3455 0.977571 9.30707 0.982637 9.27471 1.00128C9.27471 0.924262 9.38383 0.853659 9.27471 0.776637C9.1656 0.699615 8.94737 0.776637 8.94095 0.731707C8.93453 0.686778 9.28113 0.673941 9.3389 0.577664C9.07574 0.519897 8.78691 0.783055 8.53017 0.738126H8.34403C8.34403 0.738126 8.54942 0.71887 8.47882 0.673941V0.641849ZM8.47882 3.15789C8.47882 3.15789 8.53659 3.15789 8.53659 3.10655C8.53659 3.0552 8.13864 3.10655 8.1258 3.06162C8.14823 3.02334 8.17637 2.98871 8.20924 2.95892L8.48524 2.68935C8.48524 2.68935 8.543 2.61232 8.63928 2.638C8.63928 2.638 8.46598 2.79846 8.47882 2.81771C8.54218 2.82659 8.60452 2.84164 8.66495 2.86264C8.84467 2.79846 8.7163 2.9525 8.819 2.96534C8.819 2.96534 8.819 3.31194 8.67779 3.15789C8.68138 3.13665 8.68138 3.11495 8.67779 3.09371C8.67779 3.09371 8.49807 3.20924 8.45314 3.20924L8.47882 3.15789ZM8.47882 0.7638C8.37615 0.817454 8.25725 0.831174 8.14506 0.802311C8.19641 0.802311 8.10655 0.7638 8.06804 0.802311C8.22208 0.699615 8.26059 0.770218 8.46598 0.795892L8.47882 0.7638ZM8.06804 0.712452C8.06804 0.712452 8.00385 0.834403 7.97176 0.789474C7.93967 0.744544 7.92683 0.789474 7.90757 0.757381C7.88832 0.725289 8.00385 0.757381 8.0552 0.744544L8.06804 0.712452ZM7.93967 0.834403C7.87364 0.878888 7.79431 0.899286 7.71502 0.892169C7.78031 0.858657 7.85542 0.849552 7.92683 0.866495L7.93967 0.834403ZM7.83697 0.731707C7.79846 0.731707 7.7792 0.770218 7.83697 0.731707C7.87548 0.731707 7.68293 0.731707 7.61232 0.770218C7.64514 0.754136 7.68101 0.745244 7.71754 0.744137C7.75406 0.74303 7.7904 0.749734 7.82413 0.7638L7.83697 0.731707ZM7.70218 0.879332C7.63591 0.940993 7.5488 0.975376 7.45828 0.97561C7.52688 0.917734 7.61255 0.883918 7.70218 0.879332ZM7.70218 0.924262C7.70218 0.924262 7.70218 0.924262 7.67009 0.924262H7.70218ZM2.86906 10.3273C2.86906 10.3723 2.86906 10.3851 2.8113 10.3723C2.79218 10.3139 2.79218 10.2509 2.8113 10.1926C2.8312 10.2364 2.84835 10.2814 2.86264 10.3273C2.85623 10.2696 2.8819 10.3466 2.86906 10.3273ZM2.93967 10.3273C2.93967 10.2375 2.93967 10.4236 2.93967 10.3273ZM6.62388 17.3877C6.56611 17.3042 6.71374 17.208 6.56611 17.1759C6.41848 17.1438 6.50834 17.208 6.50193 17.0924C6.49551 16.9769 6.39281 16.8614 6.54685 16.9127C6.54685 16.9127 6.54685 16.5148 6.39923 16.6046C6.54044 16.7458 6.39923 16.7972 6.39923 16.7587C6.35411 16.5094 6.26961 16.2689 6.14891 16.0462C6.14891 16.0462 6.14891 15.9243 6.14891 15.8729C6.14891 15.8216 6.14891 15.5456 6.14891 15.3979C6.13191 15.2934 6.09486 15.1932 6.03979 15.1027C6.00128 15.0321 6.07831 14.9872 6.03979 14.9101C6.00128 14.8331 6.03979 14.5635 6.0077 14.4223C5.94821 14.2139 5.92434 13.9969 5.9371 13.7805C5.93467 13.6172 5.88647 13.4578 5.79797 13.3205C5.70946 13.1832 5.58421 13.0735 5.43646 13.0039C5.26455 12.9269 5.11031 12.8153 4.98333 12.6762C4.85635 12.5371 4.75934 12.3733 4.69833 12.1951C4.58528 11.8529 4.38898 11.5441 4.12709 11.2965C3.98588 11.1746 4.22978 10.6996 4.22336 10.6996C4.09499 10.6033 4.05648 10.5905 4.1335 10.3915C4.17143 10.3158 4.19121 10.2323 4.19127 10.1476C4.19127 10.1476 4.33248 10.0578 4.34531 9.99358C4.35815 9.9294 4.64698 9.69191 4.56354 9.60847C4.4801 9.52503 4.63415 9.25546 4.56354 9.13992C4.49294 9.02439 4.45443 8.74839 4.33248 8.76123C4.21053 8.77407 4.20411 9.09499 4.12709 9.05648C4.05006 9.01797 3.94737 8.86393 3.83184 8.83184C3.7163 8.79974 3.75481 8.63286 3.63928 8.58151C3.63928 8.58151 3.63928 8.62003 3.63928 8.63928C3.63928 8.65854 3.56226 8.34403 3.56226 8.34403C3.57601 8.36286 3.59462 8.37758 3.61611 8.38663C3.63759 8.39567 3.66114 8.3987 3.68421 8.39538C3.68421 8.36329 3.62644 8.20282 3.58151 8.2285C3.53659 8.25417 3.58151 8.33119 3.58151 8.34403C3.44031 8.31194 3.4724 8.07445 3.43389 8.02952C3.39538 7.9846 3.06804 7.9846 2.9846 7.86264C2.90116 7.74069 2.88832 7.56098 2.77279 7.5353C2.65725 7.50963 2.61874 7.65725 2.47754 7.57381C2.33633 7.49037 2.07959 7.24005 2.07959 7.17587C2.07959 7.11168 1.91271 6.91271 2.04108 6.81643L2.09243 6.61104C2.16945 6.32863 2.0154 5.96919 2.13094 5.71887C2.18694 5.52888 2.21928 5.3327 2.22721 5.13479C2.08601 5.08344 1.92555 6.41849 1.84852 6.41849C1.91271 6.13607 1.84852 5.84724 1.98331 5.60334C2.03156 5.46443 2.07227 5.32302 2.10526 5.17972C2.19169 5.03396 2.24841 4.87253 2.27214 4.70475C2.59052 4.11336 2.99502 3.57258 3.4724 3.10013C3.92711 2.62494 4.43792 2.20681 4.99358 1.85494C5.34141 1.63949 5.70386 1.44861 6.07831 1.2837L6.56611 1.08472C6.65597 1.15533 6.56611 1.15533 6.51476 1.20668C6.55042 1.22264 6.5899 1.22809 6.62855 1.22241C6.6672 1.21672 6.70343 1.20013 6.73299 1.17458C6.69448 1.05263 7.20796 0.840822 7.37484 0.840822C7.37484 0.872914 7.30424 0.879332 7.27856 0.905006C7.25289 0.93068 7.34917 0.905006 7.38768 0.905006C7.20178 1.01814 7.00634 1.11479 6.80359 1.19384C6.85494 1.29653 7.13736 1.10398 7.21438 1.09114C7.21438 1.16816 7.09884 1.14891 7.06033 1.19384C7.26573 1.23235 7.35558 0.956354 7.57381 0.982028C7.50698 1.06008 7.42651 1.12533 7.33633 1.17458C7.37858 1.16495 7.42245 1.16495 7.4647 1.17458C7.43261 1.23235 7.34917 1.21309 7.32349 1.29012C7.45987 1.24822 7.58798 1.18307 7.70218 1.09756C7.70218 1.09756 7.70218 1.06547 7.66367 1.05263C7.76628 0.963915 7.89436 0.909987 8.02952 0.898588C7.9846 0.937099 7.92683 0.949936 7.89474 1.00128C8.01669 0.962773 8.08729 0.879332 8.2285 0.892169C8.2285 0.937099 8.18357 0.937099 8.16431 0.962773C8.2157 0.968429 8.26753 0.957162 8.31194 0.93068C8.31194 0.93068 8.27343 0.93068 8.26059 0.93068C8.30415 0.914999 8.35182 0.914999 8.39538 0.93068C8.35045 1.05905 8.47882 1.03979 8.56226 1.1104C8.6457 1.181 8.43389 1.181 8.49166 1.23235C8.54942 1.2837 8.66496 1.29653 8.72914 1.34788C8.79332 1.39923 8.51733 1.48909 8.4724 1.46341C8.42747 1.43774 8.26059 1.27728 8.2991 1.46341C8.33761 1.64955 8.36329 1.70732 8.09371 1.57895C8.09371 1.57895 8.18357 1.69448 8.17073 1.71374C8.15789 1.73299 7.88832 1.66881 7.86906 1.6303C7.81771 1.47625 7.58665 1.57253 7.57381 1.51476C7.56098 1.457 8.42105 1.32221 8.06162 1.11682C7.92273 1.11125 7.78706 1.15954 7.68293 1.2516C7.638 1.34146 7.54814 1.34788 7.4647 1.36714H7.30424C7.25931 1.40565 7.34275 1.54685 7.362 1.55969C7.24263 1.59518 7.11552 1.59518 6.99615 1.55969C6.99615 1.55969 7.09243 1.55969 7.10526 1.48267C7.00899 1.41207 6.46341 1.67522 6.40565 1.72657C6.13607 1.86136 6.13607 1.93838 5.99487 2.11168C5.99487 2.15661 6.20668 2.07959 6.18742 2.21438C6.16816 2.34917 6.43132 2.32991 6.45058 2.33633C6.40074 2.38852 6.35761 2.44674 6.32221 2.50963C6.32221 2.50963 6.40565 2.50963 6.39281 2.54814C6.37997 2.58665 6.33505 2.54814 6.29653 2.54814C6.24519 2.64442 6.29653 2.75995 6.38639 2.71502C6.47625 2.67009 6.5276 2.58665 6.5982 2.47754C6.66881 2.36842 6.96406 2.32991 7.06675 2.13094C7.16945 1.93196 6.97047 2.02182 7.15019 1.93838C7.32991 1.85494 7.31065 1.78434 7.35558 1.71374C7.40051 1.64313 7.74069 1.78434 7.83055 1.82285C7.58665 2.16303 8.04236 1.95122 8.18357 1.85494C8.18357 2.16303 8.26701 2.28498 8.53659 2.40051C8.53659 2.43902 8.49166 2.40051 8.4724 2.43902C8.45314 2.47754 8.67137 2.51605 8.63928 2.56739C8.543 2.77279 8.42105 2.67651 8.24133 2.80488C8.06162 2.93325 7.72786 2.80488 7.49679 2.86264C7.26334 2.94665 7.04618 3.07043 6.85494 3.2285C7.09243 3.2285 7.27856 2.92041 7.56739 2.97818C7.74711 3.01669 7.41335 3.09371 7.38126 3.10013C7.39553 3.11784 7.41472 3.13095 7.43642 3.1378C7.45811 3.14465 7.48135 3.14494 7.50321 3.13864C7.56098 3.21566 7.40051 3.38254 7.67009 3.38254C7.81771 3.38254 7.83055 3.23492 7.9525 3.23492C7.94776 3.26898 7.94776 3.30354 7.9525 3.33761C7.8819 3.47882 7.38768 3.55584 7.24647 3.63928C7.10526 3.72272 7.30424 3.44031 7.42619 3.39538C7.2182 3.48806 7.00367 3.5653 6.78434 3.62644C6.72424 3.63742 6.67045 3.67055 6.63361 3.71928C6.59676 3.76801 6.57955 3.82879 6.58537 3.8896C6.46983 3.94737 6.33504 3.93453 6.21951 3.97946C6.21951 3.97946 6.2837 3.97946 6.30937 3.97946C6.18509 4.06102 6.05411 4.13188 5.91784 4.19127C5.91784 4.19127 5.82157 4.46727 5.80231 4.35173C5.78306 4.2362 5.80231 4.20411 5.85366 4.17202C5.74454 4.17202 5.78947 4.36457 5.67394 4.3068C5.67394 4.3068 5.78947 4.41592 5.67394 4.40308L5.63543 4.49936C5.63543 4.49936 5.77664 4.49294 5.73171 4.49294C5.68678 4.49294 5.62901 4.49294 5.63543 4.56354C5.64185 4.63415 5.6932 4.56354 5.69961 4.56354C5.70603 4.56354 5.52632 4.69191 5.46855 4.71759C5.28745 4.84128 5.11775 4.98091 4.96149 5.13479C4.74326 5.30809 4.71759 6.15533 4.63415 6.16175C4.55071 6.16816 4.59564 6.09114 4.56354 6.05263C4.53145 6.01412 4.56354 5.34018 4.44801 5.41078C4.33248 5.48139 4.25546 5.37227 4.12709 5.35944C4.12709 5.35944 3.85109 5.35944 3.83825 5.35944C3.82542 5.35944 3.92169 5.39795 3.92811 5.39795C3.92605 5.43643 3.92605 5.475 3.92811 5.51348C3.8907 5.52208 3.85163 5.52002 3.81532 5.50755C3.77902 5.49507 3.74694 5.47266 3.72272 5.44288C3.72272 5.38511 3.46598 5.47497 3.42747 5.44288C3.38896 5.41078 3.16431 5.64185 3.15148 5.65469C3.13864 5.66752 3.03594 5.99487 2.9525 6.05263C2.66367 6.22593 2.75995 6.72657 2.72786 6.97689C2.69576 7.22721 2.90757 7.23363 3.04878 7.15019C3.18999 7.06675 3.16431 7.20796 3.19641 7.15019C3.2285 7.09243 3.29268 7.02824 3.32478 6.95122C3.35687 6.8742 3.69705 6.53402 3.77407 6.72015C3.72193 6.88608 3.65086 7.04545 3.56226 7.19512C3.50449 7.19512 3.47882 7.28498 3.45956 7.41335C3.45956 7.41335 3.31194 7.73427 3.45956 7.62516C3.60719 7.51605 4.05648 7.62516 4.00513 7.74711C3.87035 8.04878 3.76123 8.46598 4.00513 8.72914C4.15276 8.87677 4.26187 8.60719 4.37741 8.65212C4.49294 8.69705 4.6534 8.76765 4.68549 8.92169C4.74968 8.92169 4.94865 8.27985 5.06418 8.45956C5.19577 8.3473 5.34555 8.25831 5.50706 8.19641C5.46855 8.19641 5.46213 8.51091 5.43004 8.543C5.2439 8.7163 5.63543 8.83184 5.50706 8.58151C5.43646 8.44031 5.50706 8.41463 5.64827 8.37612C5.78947 8.33761 5.64827 8.25417 5.70603 8.24133C5.70603 8.24133 5.88575 8.3697 5.90501 8.38254C6.03338 8.46598 5.90501 8.543 6.1104 8.49807C6.31579 8.45314 6.37997 8.65854 6.54044 8.49807C6.7009 8.33761 6.78434 8.49807 6.89345 8.44673C6.85771 8.45626 6.82009 8.45626 6.78434 8.44673C6.78434 8.55584 7.09884 8.5751 7.07317 8.68421C7.0475 8.79332 7.15661 8.77407 7.21438 8.79974C7.27214 8.82542 7.35558 8.96021 7.43902 9.05006C7.52246 9.13992 7.73427 9.29397 7.85623 9.21053C7.97818 9.12709 8.49807 9.3389 8.53017 9.51219C8.56226 9.46085 8.80616 9.97433 8.78691 9.99358C8.78691 10.0513 8.91528 10.1926 9.05006 10.2311C9.09499 10.4878 9.13992 10.276 9.31964 10.3209C9.44378 10.3466 9.56298 10.3921 9.67266 10.4557C9.71117 10.4942 9.67266 10.6418 9.71117 10.6547C9.74188 10.6313 9.77672 10.6139 9.81386 10.6033C9.86521 10.5327 10.0064 10.6033 10.0578 10.6354C10.1795 10.6452 10.3019 10.6452 10.4236 10.6354C10.629 10.6354 10.751 10.8601 10.9178 10.9628C11.0847 11.0655 11.2067 10.9243 11.2901 11.2067C11.3224 11.2955 11.33 11.3914 11.3119 11.4841C11.2938 11.5768 11.2507 11.6629 11.1874 11.733C11.0363 11.9248 10.8664 12.1011 10.6804 12.2593C10.5135 12.3235 10.6804 13.2092 10.4621 13.3825C10.2439 13.5558 10.2952 13.9409 9.97433 13.8383C9.87487 13.8622 9.77964 13.9012 9.69191 13.9538C9.51807 14.0149 9.3586 14.111 9.22336 14.2362C9.06932 14.3838 9.22336 14.6213 9.04365 14.801C9.04365 14.801 8.72914 15.2054 8.67779 15.2888L8.6457 15.2439C8.59435 15.2888 8.51091 15.3402 8.55584 15.4108C8.55584 15.3594 8.58151 15.3338 8.63286 15.3338C8.67137 15.3338 8.53017 15.5199 8.51091 15.5392C8.49166 15.5584 8.35687 15.5392 8.27343 15.5905C8.18999 15.6418 8.01669 15.5071 7.92041 15.4878C7.88832 15.5777 8.16431 15.7317 8.20282 15.8344C8.31194 16.1361 7.66367 16.1104 7.56098 16.1168C7.56098 16.1746 7.65083 16.3094 7.63158 16.3607C7.61232 16.4121 7.35558 16.3094 7.30424 16.3607C7.25289 16.4121 7.43261 16.6175 7.45828 16.6239C7.43998 16.7066 7.4164 16.7881 7.38768 16.8678C7.30424 16.8678 7.2208 16.9705 7.31065 17.0347C7.40051 17.0988 7.44544 17.0732 7.50321 17.1117C7.56098 17.1502 7.3941 17.2657 7.44544 17.3556C7.49679 17.4454 7.27214 17.4198 7.50321 17.6316C7.16945 17.6316 7.50321 17.8177 7.50321 17.8177C7.50321 17.8177 7.50321 17.8177 7.50321 17.7535C7.50321 17.6893 7.42619 17.7535 7.40693 17.7535C7.34275 17.6059 7.638 17.7856 7.63158 17.7856C7.72144 17.837 7.87548 17.8434 7.94608 17.9012C7.89243 17.9214 7.8363 17.9343 7.7792 17.9397C7.54814 17.8883 7.22721 17.9397 7.03466 17.7214C6.88794 17.6016 6.75061 17.4707 6.62388 17.3299V17.3877ZM7.86906 1.2837C7.86906 1.23877 7.92041 1.22593 8.01669 1.22593C7.99845 1.24661 7.97554 1.26264 7.94987 1.27268C7.92419 1.28273 7.89649 1.28651 7.86906 1.2837ZM7.27214 1.65597C7.25066 1.68171 7.22136 1.69974 7.1887 1.70732C7.19187 1.68803 7.20225 1.67066 7.21775 1.65874C7.23324 1.64683 7.25269 1.64124 7.27214 1.64313V1.65597ZM7.17587 1.60462C7.13083 1.6368 7.07716 1.65469 7.02182 1.65597C7.06033 1.59178 7.11168 1.59178 7.17587 1.59178V1.60462ZM7.67009 2.88832C7.75672 2.8866 7.84106 2.91623 7.90757 2.97176C7.86575 2.97075 7.8249 2.959 7.78893 2.93765C7.75296 2.91629 7.72309 2.88604 7.70218 2.84981L7.67009 2.88832ZM7.73427 3.27985C7.638 3.39538 7.52888 3.23492 7.55456 3.2285C7.58023 3.22208 7.65725 3.28626 7.66367 3.28626L7.73427 3.27985ZM6.91271 8.61361C6.91271 8.61361 6.9448 8.50449 7.0154 8.49807C7.08601 8.49166 6.95764 8.62003 6.91271 8.61361ZM6.41849 7.23363C6.02054 7.03466 6.30295 7.50963 6.41849 7.23363ZM4.83954 6.97689C4.74968 6.97689 4.90372 6.90629 4.89089 6.8742C4.8267 6.72657 4.39024 6.69448 4.35173 6.57895C4.36082 6.57619 4.36909 6.57123 4.37581 6.56452C4.38253 6.5578 4.38749 6.54953 4.39024 6.54044C4.24262 6.48267 4.1656 6.66239 4.03081 6.64955C4.3068 6.17458 5 6.72015 5.27599 6.93838L4.83954 6.97689ZM4.92298 7.27856C4.92298 7.34917 4.69191 7.24647 4.67266 7.2208C4.70312 7.20065 4.73883 7.1899 4.77535 7.1899C4.81187 7.1899 4.84759 7.20065 4.87805 7.2208C4.87805 7.2208 4.93582 7.25289 4.93582 7.27856H4.92298ZM4.28113 6.66881C4.28113 6.70732 4.28113 6.72015 4.22978 6.72015C4.17843 6.72015 4.24904 6.61104 4.26829 6.66881H4.28113ZM4.96149 6.37356C4.96149 6.26444 4.88447 6.25802 4.96149 6.15533C4.98416 6.2153 4.98416 6.28149 4.96149 6.34146C4.96149 6.34146 4.93582 6.34788 4.94865 6.37356H4.96149ZM5.49422 7.18228C5.43646 7.09243 5.49422 7.04108 5.37869 7.00899C5.48139 6.88062 5.82798 7.00899 5.9371 7.07959C5.9371 7.07959 5.9371 7.07959 5.89859 7.07959C5.86008 7.07959 6.13607 7.27856 5.98203 7.21438C5.82798 7.15019 5.71887 7.21438 5.60334 7.31065C5.50706 7.17587 5.35302 7.27214 5.22465 7.20796C5.09628 7.14377 5.44288 7.20154 5.48139 7.18228H5.49422ZM7.52888 16.6881C7.52888 16.7715 7.37484 16.6431 7.48395 16.6303C7.49534 16.6359 7.5053 16.644 7.51309 16.654C7.52087 16.664 7.52628 16.6757 7.52888 16.6881ZM12.0218 19.3774C11.5151 19.4886 10.9997 19.5552 10.4814 19.5764C9.48571 19.6382 8.48684 19.5274 7.52888 19.249C7.6566 19.2839 7.78806 19.3033 7.92041 19.3068C7.80488 19.2362 7.65725 19.2619 7.54814 19.1656C7.94608 19.2298 8.31836 19.2041 8.68421 19.249C8.6457 19.1977 8.31836 19.1207 8.31836 19.0822C8.42091 19.0898 8.52389 19.0898 8.62644 19.0822C8.74839 18.9923 8.44031 19.0051 8.46598 18.9345C8.49166 18.8639 8.56226 18.9345 8.58793 18.9345C8.61361 18.9345 8.58793 18.8383 8.58793 18.8062C8.7626 18.7513 8.94407 18.7211 9.12709 18.7163C9.06932 18.7548 9.00513 18.7163 9.03081 18.8062C8.98588 18.8062 8.83825 18.8062 8.82542 18.8703C8.81258 18.9345 8.98588 19.0757 8.9923 19.0822C8.99872 19.0886 9.24262 19.2234 9.25546 19.3261C9.26829 19.4288 10.1926 19.4801 10.3273 19.4673C10.6675 19.4288 10.9692 19.3068 11.3158 19.249C11.5148 19.2105 11.7137 19.1592 11.9127 19.1399C12.0694 19.0912 12.2307 19.059 12.3941 19.0436C12.439 19.2041 13.1579 18.9987 13.3248 19.0436C13.3312 18.9859 12.1117 19.3261 11.9897 19.3517L12.0218 19.3774ZM12.9653 2.0475C12.9653 2.0475 12.837 1.92555 12.9012 1.92555C12.9069 1.93406 12.91 1.94413 12.91 1.95443C12.91 1.96473 12.9069 1.97479 12.9012 1.98331C12.9012 1.98331 12.914 2.02182 12.9332 2.03466L12.9653 2.0475ZM13.1065 2.56739C13.0552 2.50963 13.1065 2.37484 12.9589 2.33633L13.0616 2.29782C12.9718 2.09243 13.2734 2.29782 13.3119 2.37484C13.4788 2.56739 13.2221 2.68935 13.1065 2.56739ZM13.7484 2.59949C13.7484 2.59949 13.5687 2.56739 13.5494 2.59949C13.5302 2.63158 13.4788 2.43902 13.4788 2.41335C13.4918 2.41961 13.5061 2.42286 13.5205 2.42286C13.535 2.42286 13.5492 2.41961 13.5623 2.41335C13.4737 2.31817 13.3637 2.24554 13.2413 2.20154C13.1322 2.27214 13.0038 1.97689 12.991 1.93196C13.1707 1.93196 13.2798 2.10526 13.4467 2.18228C13.6136 2.25931 14.0886 2.48395 14.0886 2.638C14.0886 2.79204 13.7035 2.68293 13.6521 2.77279C13.62 2.65083 13.7612 2.65083 13.7548 2.61232L13.7484 2.59949ZM18.9859 12.8691C18.8383 13.2028 18.7099 13.5109 18.5687 13.8703C18.5109 14.0051 18.3825 14.0886 18.3184 14.2234C18.2621 14.3703 18.1818 14.507 18.0809 14.6277C17.8755 14.846 17.7343 15.1733 17.439 15.3081C17.3042 15.3787 17.1245 15.3659 16.9961 15.475C16.9191 15.3017 17.1245 15.0578 17.163 14.8909C17.1929 14.6292 17.2488 14.3712 17.3299 14.1207C17.516 13.6329 17.3299 13.1001 17.5225 12.6316C17.5942 12.455 17.6779 12.2834 17.7728 12.1181C17.8755 11.9576 17.8306 11.6688 17.8562 11.4763C17.8679 11.2053 17.8105 10.9358 17.6893 10.6932C17.6508 10.6226 17.3941 10.2632 17.5096 10.1797C17.6252 10.0963 17.6059 9.39666 17.4262 9.31964C17.2465 9.24262 17.1759 9.44801 17.1053 9.31964C17.0347 9.19127 17.0475 9.09499 16.9384 9.03723C16.8293 8.97946 16.2388 9.35173 16.1682 9.31964C16.0432 9.25587 15.8986 9.2421 15.7638 9.28113C15.6098 9.32606 15.5071 9.44801 15.3466 9.37099C15.2626 9.31808 15.1851 9.25562 15.1155 9.18485C14.923 9.03723 14.6791 8.92811 14.6149 8.67137C14.5507 8.41463 14.2811 8.41463 14.2555 8.19641C14.0629 8.35045 14.0822 7.96534 14.0565 7.91399C13.9474 7.70218 13.9795 7.65083 14.0565 7.40693C14.1399 6.97047 13.6264 6.57895 14.018 6.18742C14.0886 6.1104 13.9666 5.95635 14.0822 5.89217C14.1097 5.86022 14.1235 5.81871 14.1207 5.77664C14.1207 5.67394 14.3774 5.61617 14.4288 5.48139C14.4801 5.3466 14.3517 5.1733 14.3967 4.99358C14.4416 4.81386 14.5314 4.89089 14.5764 4.80745C14.6213 4.724 14.5764 4.57638 14.6085 4.55712C14.6406 4.53787 14.9872 4.78819 15.1027 4.55712C15.1669 4.44801 15.3594 4.40308 15.4814 4.36457C15.6661 4.31934 15.8562 4.2999 16.0462 4.3068C16.1104 4.36457 16.3094 4.49294 16.2644 4.64698C16.2195 4.80103 16.611 4.86521 16.7137 4.8973C16.8164 4.9294 16.8742 5.08344 17.0026 5.09628C17.1309 5.10911 17.1438 5.16688 17.2144 5.21181C17.285 5.25674 17.0539 4.69191 17.2721 4.85237C17.4213 4.96058 17.5887 5.04102 17.7664 5.08986C17.7574 5.06057 17.7574 5.02929 17.7664 5C17.8691 4.96149 17.9653 5.12837 17.8241 4.85879C17.7856 4.79461 17.4968 4.21694 17.4198 4.26187C17.3427 4.3068 17.4519 4.32606 17.4198 4.34531C17.3877 4.36457 17.3299 4.2362 17.3299 4.26829C17.3299 4.30039 17.3299 4.31964 17.3299 4.3389C17.3299 4.35815 16.81 3.92169 16.7843 3.82542H16.8678C16.8662 3.80921 16.8615 3.79348 16.8538 3.77915C16.846 3.76482 16.8355 3.75218 16.8228 3.74198C16.842 3.73926 16.8615 3.73926 16.8806 3.74198C16.8726 3.72491 16.8684 3.70628 16.8684 3.68742C16.8684 3.66856 16.8726 3.64993 16.8806 3.63286C16.9255 3.63286 17.0668 3.7484 17.1374 3.74198C17.017 3.51772 16.8281 3.33781 16.5982 3.2285C16.5982 3.2285 15.8729 3.60077 15.8729 3.62644C15.8729 3.65212 16.457 3.24134 16.4313 3.14506C16.4455 3.16579 16.4647 3.18257 16.4872 3.1938C16.5096 3.20503 16.5346 3.21035 16.5597 3.20924C16.5982 3.17715 16.4121 3.01669 16.3992 2.99743C16.3865 3.03708 16.3865 3.07974 16.3992 3.11938C16.335 3.15789 16.3094 3.11938 16.2516 3.08087C16.3646 3.34302 16.552 3.56621 16.7908 3.72272C16.7908 3.72272 16.6752 3.79332 16.733 3.79332C16.6303 3.79332 16.6239 3.83825 16.5725 3.83825C16.5725 3.96021 16.7843 4.00513 16.8357 4.08857C16.8749 4.16548 16.9092 4.2448 16.9384 4.32606C16.8451 4.27287 16.7588 4.20818 16.6816 4.1335C16.6303 4.1335 16.3992 3.85751 16.3607 3.81258C16.2809 3.69869 16.1724 3.60791 16.0462 3.54942C15.8706 3.42288 15.6862 3.30919 15.4942 3.20924C15.3787 3.16431 15.5456 3.37612 15.5456 3.37612C15.6418 3.45956 15.7574 3.51733 15.8537 3.59435C15.9499 3.67137 16.2323 3.73556 16.3671 3.90886C16.3332 3.87409 16.2873 3.85345 16.2388 3.85109C16.2388 3.92811 16.38 4.03081 16.3928 4.1335C16.4056 4.2362 16.4313 4.30038 16.4249 4.32606C16.4185 4.35173 16.1297 4.21694 16.1425 4.17202C16.1553 4.12709 16.4313 4.17202 16.3222 4.04365C16.223 3.93455 16.1058 3.84336 15.9756 3.77407C15.7579 3.61762 15.5258 3.48222 15.2824 3.3697C15.3338 3.65212 14.923 3.44673 14.9487 3.55584C14.9743 3.66495 15.1348 3.74198 15 3.77407C14.8652 3.80616 14.9294 3.87676 14.9166 3.94095C14.9037 4.00513 15.1155 4.24262 14.9551 4.28755C14.7946 4.33248 15.0578 4.37741 14.7818 4.39024C14.6727 4.39024 14.6406 4.53145 14.5507 4.46085C14.4608 4.39024 14.4159 4.38383 14.2619 4.36457C14.1078 4.34531 14.1913 4.36457 14.1656 4.26187C14.1399 4.15918 14.0116 4.1656 14.018 4.05006C14.0244 3.93453 13.9217 3.83184 13.896 3.69705C13.896 3.69705 13.7227 3.49166 13.896 3.50449C13.9795 3.50449 14.448 3.60077 14.4929 3.50449C14.6406 3.26701 13.9602 2.9525 13.8511 2.91399C13.934 2.90131 14.0185 2.90131 14.1014 2.91399C14.1014 2.86264 14.0372 2.84981 14.018 2.8113C13.9987 2.77279 14.3261 2.84981 14.1977 2.70218C14.2036 2.61456 14.2036 2.52664 14.1977 2.43902C14.1977 2.37484 14.3902 2.35558 14.3068 2.30424C14.1678 2.2413 14.0594 2.12593 14.0051 1.98331C14.1271 2.06675 14.3004 2.32991 14.4544 2.31707C14.6085 2.30424 14.647 2.31707 14.6791 2.31707C14.7112 2.31707 14.6791 2.31707 14.846 2.28498C14.846 2.15019 14.6021 2.06675 14.5828 1.98973C14.5635 1.91271 14.6534 2.02182 14.6919 2.02824C14.7304 2.03466 14.2619 1.76508 14.4929 1.81001C14.57 1.70732 14.3325 1.6303 14.2747 1.61104L14.3967 1.7009C14.1207 1.92555 13.7933 1.2837 13.4788 1.2837C13.4788 1.3543 13.7227 1.51476 13.7805 1.56611C13.8383 1.61746 14.0629 1.67522 14.172 1.77792C14.2802 1.88097 14.3655 2.00562 14.4223 2.14377C14.371 2.24005 13.9409 1.79718 13.9538 1.79718L14.0116 1.89345C13.9538 1.89345 13.896 1.78434 13.8383 1.81643C13.7805 1.84852 13.9089 1.97047 13.6842 1.89987C13.4596 1.82927 13.2606 1.66881 13.2349 1.50193C13.1333 1.32732 12.998 1.17461 12.837 1.05263C12.9525 0.898588 13.5173 1.10398 13.6714 1.20026C13.7878 1.26998 13.913 1.32394 14.0436 1.36072C14.0436 1.36072 13.8639 1.2837 13.8639 1.2837C13.8639 1.2837 14.1592 1.41849 14.2362 1.45058C14.3132 1.48267 14.5764 1.62388 14.7368 1.72015C15.0793 1.91687 15.4113 2.13111 15.7317 2.362C17.0801 3.37274 18.1383 4.72096 18.7997 6.27086C18.9234 6.5606 19.0263 6.85874 19.1078 7.16303C19.1859 7.32147 19.2317 7.49382 19.2426 7.67009C19.3004 7.8819 19.3517 8.09371 19.4159 8.31194C19.5624 9.10855 19.5776 9.92377 19.4608 10.7253C19.4008 11.4617 19.2433 12.1869 18.9923 12.8819L18.9859 12.8691ZM15.2503 4.02439H15.1861C15.1091 3.9923 15.3273 3.92169 15.2503 4.02439ZM15.4685 3.58151C15.5135 3.58151 15.5841 3.7163 15.5905 3.72914C15.5905 3.72914 15.4044 3.63286 15.4685 3.58151ZM15.6226 3.77407C15.6804 3.77407 15.8216 3.98588 15.7959 4.02439C15.7702 4.0629 15.6226 3.85109 15.552 3.85109L15.6226 3.77407ZM17.1951 4.53145C17.163 4.53145 17.0988 4.53145 17.086 4.46085C17.0732 4.39024 17.1951 4.46085 17.2529 4.5122C17.3107 4.56354 17.2144 4.5122 17.1951 4.5122V4.53145ZM17.5289 4.44159C17.545 4.45304 17.5576 4.46864 17.5655 4.48673C17.5735 4.50481 17.5763 4.52471 17.5738 4.54429C17.5633 4.5417 17.5535 4.53672 17.5452 4.52974C17.5369 4.52276 17.5303 4.51396 17.526 4.50403C17.5217 4.4941 17.5197 4.4833 17.5202 4.47247C17.5207 4.46165 17.5236 4.45108 17.5289 4.44159Z" fill="white"/>
</svg>
