<svg width="22" height="16" viewBox="0 0 22 16" fill="none" xmlns="http://www.w3.org/2000/svg">
<path fill-rule="evenodd" clip-rule="evenodd" d="M6.25 14.0625C6.25 13.8553 6.33231 13.6566 6.47882 13.5101C6.62534 13.3636 6.82405 13.2812 7.03125 13.2812H21.0938C21.301 13.2812 21.4997 13.3636 21.6462 13.5101C21.7927 13.6566 21.875 13.8553 21.875 14.0625C21.875 14.2697 21.7927 14.4684 21.6462 14.6149C21.4997 14.7614 21.301 14.8438 21.0938 14.8438H7.03125C6.82405 14.8438 6.62534 14.7614 6.47882 14.6149C6.33231 14.4684 6.25 14.2697 6.25 14.0625ZM6.25 7.8125C6.25 7.6053 6.33231 7.40659 6.47882 7.26007C6.62534 7.11356 6.82405 7.03125 7.03125 7.03125H21.0938C21.301 7.03125 21.4997 7.11356 21.6462 7.26007C21.7927 7.40659 21.875 7.6053 21.875 7.8125C21.875 8.0197 21.7927 8.21841 21.6462 8.36493C21.4997 8.51144 21.301 8.59375 21.0938 8.59375H7.03125C6.82405 8.59375 6.62534 8.51144 6.47882 8.36493C6.33231 8.21841 6.25 8.0197 6.25 7.8125ZM6.25 1.5625C6.25 1.3553 6.33231 1.15659 6.47882 1.01007C6.62534 0.86356 6.82405 0.78125 7.03125 0.78125H21.0938C21.301 0.78125 21.4997 0.86356 21.6462 1.01007C21.7927 1.15659 21.875 1.3553 21.875 1.5625C21.875 1.7697 21.7927 1.96841 21.6462 2.11493C21.4997 2.26144 21.301 2.34375 21.0938 2.34375H7.03125C6.82405 2.34375 6.62534 2.26144 6.47882 2.11493C6.33231 1.96841 6.25 1.7697 6.25 1.5625ZM1.5625 3.125C1.9769 3.125 2.37433 2.96038 2.66735 2.66735C2.96038 2.37433 3.125 1.9769 3.125 1.5625C3.125 1.1481 2.96038 0.750671 2.66735 0.457646C2.37433 0.16462 1.9769 0 1.5625 0C1.1481 0 0.750671 0.16462 0.457646 0.457646C0.16462 0.750671 0 1.1481 0 1.5625C0 1.9769 0.16462 2.37433 0.457646 2.66735C0.750671 2.96038 1.1481 3.125 1.5625 3.125V3.125ZM1.5625 9.375C1.9769 9.375 2.37433 9.21038 2.66735 8.91735C2.96038 8.62433 3.125 8.2269 3.125 7.8125C3.125 7.3981 2.96038 7.00067 2.66735 6.70765C2.37433 6.41462 1.9769 6.25 1.5625 6.25C1.1481 6.25 0.750671 6.41462 0.457646 6.70765C0.16462 7.00067 0 7.3981 0 7.8125C0 8.2269 0.16462 8.62433 0.457646 8.91735C0.750671 9.21038 1.1481 9.375 1.5625 9.375V9.375ZM1.5625 15.625C1.9769 15.625 2.37433 15.4604 2.66735 15.1674C2.96038 14.8743 3.125 14.4769 3.125 14.0625C3.125 13.6481 2.96038 13.2507 2.66735 12.9576C2.37433 12.6646 1.9769 12.5 1.5625 12.5C1.1481 12.5 0.750671 12.6646 0.457646 12.9576C0.16462 13.2507 0 13.6481 0 14.0625C0 14.4769 0.16462 14.8743 0.457646 15.1674C0.750671 15.4604 1.1481 15.625 1.5625 15.625V15.625Z" fill="#1B75BC"/>
</svg>
