<svg width="25" height="26" viewBox="0 0 25 26" fill="none" xmlns="http://www.w3.org/2000/svg">
<path d="M12.5001 7.867C11.8341 7.867 11.1745 7.99819 10.5592 8.25308C9.94383 8.50796 9.38471 8.88155 8.91374 9.35252C8.44277 9.82349 8.06918 10.3826 7.8143 10.998C7.55941 11.6133 7.42822 12.2728 7.42822 12.9389C7.42822 13.6049 7.55941 14.2645 7.8143 14.8798C8.06918 15.4952 8.44277 16.0543 8.91374 16.5252C9.38471 16.9962 9.94383 17.3698 10.5592 17.6247C11.1745 17.8796 11.8341 18.0108 12.5001 18.0108C13.8452 18.0108 15.1353 17.4764 16.0865 16.5252C17.0376 15.5741 17.572 14.284 17.572 12.9389C17.572 11.5937 17.0376 10.3037 16.0865 9.35252C15.1353 8.40136 13.8452 7.867 12.5001 7.867ZM8.99072 12.9389C8.99072 12.0081 9.36046 11.1155 10.0186 10.4574C10.6767 9.79924 11.5694 9.4295 12.5001 9.4295C13.4308 9.4295 14.3235 9.79924 14.9816 10.4574C15.6397 11.1155 16.0095 12.0081 16.0095 12.9389C16.0095 13.8696 15.6397 14.7622 14.9816 15.4204C14.3235 16.0785 13.4308 16.4483 12.5001 16.4483C11.5694 16.4483 10.6767 16.0785 10.0186 15.4204C9.36046 14.7622 8.99072 13.8696 8.99072 12.9389Z" fill="#1B75BC"/>
<path d="M15.306 2.53711C14.4825 -0.259766 10.5169 -0.259766 9.69346 2.53711L9.54658 3.03555C9.48908 3.23078 9.38861 3.41068 9.25255 3.56204C9.11648 3.71341 8.94827 3.83241 8.76024 3.91032C8.57221 3.98822 8.36913 4.02307 8.16589 4.01229C7.96264 4.00152 7.76438 3.9454 7.58564 3.84805L7.12939 3.59805C4.56689 2.2043 1.76533 5.00742 3.16064 7.56836L3.40908 8.02461C3.50643 8.20335 3.56255 8.40161 3.57333 8.60485C3.5841 8.8081 3.54926 9.01118 3.47135 9.19921C3.39344 9.38723 3.27444 9.55545 3.12308 9.69151C2.97171 9.82757 2.79182 9.92804 2.59658 9.98555L2.09814 10.1324C-0.69873 10.9559 -0.69873 14.9215 2.09814 15.7449L2.59658 15.8918C2.79182 15.9493 2.97171 16.0498 3.12308 16.1858C3.27444 16.3219 3.39344 16.4901 3.47135 16.6781C3.54926 16.8662 3.5841 17.0692 3.57333 17.2725C3.56255 17.4757 3.50643 17.674 3.40908 17.8527L3.15908 18.309C1.76533 20.8715 4.56689 23.6746 7.12939 22.2777L7.58564 22.0293C7.76438 21.9319 7.96264 21.8758 8.16589 21.8651C8.36913 21.8543 8.57221 21.8891 8.76024 21.967C8.94827 22.0449 9.11648 22.1639 9.25255 22.3153C9.38861 22.4667 9.48908 22.6466 9.54658 22.8418L9.69346 23.3402C10.5169 26.1371 14.4825 26.1371 15.306 23.3402L15.4528 22.8418C15.5103 22.6466 15.6108 22.4667 15.7469 22.3153C15.8829 22.1639 16.0511 22.0449 16.2392 21.967C16.4272 21.8891 16.6303 21.8543 16.8335 21.8651C17.0368 21.8758 17.235 21.9319 17.4138 22.0293L17.87 22.2793C20.4325 23.6746 23.2356 20.8699 21.8388 18.309L21.5903 17.8527C21.493 17.674 21.4369 17.4757 21.4261 17.2725C21.4153 17.0692 21.4502 16.8662 21.5281 16.6781C21.606 16.4901 21.725 16.3219 21.8763 16.1858C22.0277 16.0498 22.2076 15.9493 22.4028 15.8918L22.9013 15.7449C25.6981 14.9215 25.6981 10.9559 22.9013 10.1324L22.4028 9.98555C22.2076 9.92804 22.0277 9.82757 21.8763 9.69151C21.725 9.55545 21.606 9.38723 21.5281 9.19921C21.4502 9.01118 21.4153 8.8081 21.4261 8.60485C21.4369 8.40161 21.493 8.20335 21.5903 8.02461L21.8403 7.56836C23.2356 5.00586 20.431 2.2043 17.87 3.59961L17.4138 3.84805C17.235 3.9454 17.0368 4.00152 16.8335 4.01229C16.6303 4.02307 16.4272 3.98822 16.2392 3.91032C16.0511 3.83241 15.8829 3.71341 15.7469 3.56204C15.6108 3.41068 15.5103 3.23078 15.4528 3.03555L15.306 2.53711ZM11.1919 2.9793C11.5763 1.67461 13.4231 1.67461 13.8075 2.9793L13.9544 3.47773C14.0779 3.89662 14.2935 4.28256 14.5855 4.60726C14.8775 4.93197 15.2385 5.18721 15.642 5.35427C16.0455 5.52132 16.4813 5.59596 16.9173 5.57272C17.3534 5.54947 17.7788 5.42893 18.1622 5.21992L18.6169 4.96992C19.8106 4.32148 21.1169 5.62617 20.4669 6.82148L20.2185 7.27773C20.0098 7.66121 19.8895 8.08653 19.8665 8.52251C19.8435 8.95849 19.9184 9.39409 20.0856 9.7974C20.2528 10.2007 20.5081 10.5615 20.8328 10.8533C21.1575 11.1452 21.5434 11.3606 21.9622 11.484L22.4591 11.6309C23.7638 12.0152 23.7638 13.8621 22.4591 14.2465L21.9606 14.3934C21.5418 14.5168 21.1558 14.7325 20.8311 15.0245C20.5064 15.3165 20.2512 15.6775 20.0841 16.081C19.9171 16.4845 19.8424 16.9202 19.8657 17.3563C19.8889 17.7924 20.0095 18.2177 20.2185 18.6012L20.4685 19.0559C21.1169 20.2496 19.8122 21.5559 18.6169 20.9059L18.1622 20.6574C17.7787 20.4484 17.3532 20.328 16.917 20.3048C16.4809 20.2817 16.0451 20.3564 15.6416 20.5236C15.238 20.6909 14.8771 20.9463 14.5851 21.2712C14.2932 21.596 14.0777 21.9822 13.9544 22.4012L13.8075 22.898C13.4231 24.2027 11.5763 24.2027 11.1919 22.898L11.045 22.3996C10.9215 21.9809 10.7059 21.5952 10.414 21.2707C10.1221 20.9461 9.76126 20.691 9.35797 20.524C8.95469 20.3569 8.51915 20.2822 8.08325 20.3053C7.64736 20.3284 7.22215 20.4487 6.83877 20.6574L6.38252 20.9074C5.18877 21.5559 3.88252 20.2512 4.53252 19.0559L4.78096 18.6012C4.99026 18.2177 5.11104 17.7922 5.13444 17.3559C5.15784 16.9196 5.08326 16.4837 4.91618 16.08C4.7491 15.6763 4.49376 15.3151 4.16889 15.023C3.84402 14.7309 3.45787 14.5152 3.03877 14.3918L2.54033 14.2449C1.23564 13.8605 1.23564 12.0137 2.54033 11.6293L3.03877 11.4824C3.45722 11.3588 3.84274 11.1433 4.16712 10.8515C4.4915 10.5597 4.74653 10.199 4.91354 9.79595C5.08056 9.39286 5.15533 8.95754 5.13239 8.52183C5.10945 8.08612 4.98938 7.66105 4.78096 7.27773L4.53096 6.82148C3.88252 5.62773 5.18721 4.32148 6.38252 4.97148L6.83877 5.21992C7.22215 5.42863 7.64736 5.54894 8.08325 5.57204C8.51915 5.59513 8.95469 5.52042 9.35797 5.35338C9.76126 5.18635 10.1221 4.93122 10.414 4.60667C10.7059 4.28213 10.9215 3.8964 11.045 3.47773L11.1919 2.9793Z" fill="#1B75BC"/>
</svg>
