<svg width="21" height="24" viewBox="0 0 21 24" fill="none" xmlns="http://www.w3.org/2000/svg">
<path d="M6.59375 9.03265C6.80095 9.03265 6.99966 9.11496 7.14618 9.26148C7.29269 9.40799 7.375 9.6067 7.375 9.8139V19.1889C7.375 19.3961 7.29269 19.5948 7.14618 19.7413C6.99966 19.8878 6.80095 19.9702 6.59375 19.9702C6.38655 19.9702 6.18784 19.8878 6.04132 19.7413C5.89481 19.5948 5.8125 19.3961 5.8125 19.1889V9.8139C5.8125 9.6067 5.89481 9.40799 6.04132 9.26148C6.18784 9.11496 6.38655 9.03265 6.59375 9.03265ZM10.5 9.03265C10.7072 9.03265 10.9059 9.11496 11.0524 9.26148C11.1989 9.40799 11.2812 9.6067 11.2812 9.8139V19.1889C11.2812 19.3961 11.1989 19.5948 11.0524 19.7413C10.9059 19.8878 10.7072 19.9702 10.5 19.9702C10.2928 19.9702 10.0941 19.8878 9.94757 19.7413C9.80106 19.5948 9.71875 19.3961 9.71875 19.1889V9.8139C9.71875 9.6067 9.80106 9.40799 9.94757 9.26148C10.0941 9.11496 10.2928 9.03265 10.5 9.03265ZM15.1875 9.8139C15.1875 9.6067 15.1052 9.40799 14.9587 9.26148C14.8122 9.11496 14.6135 9.03265 14.4062 9.03265C14.199 9.03265 14.0003 9.11496 13.8538 9.26148C13.7073 9.40799 13.625 9.6067 13.625 9.8139V19.1889C13.625 19.3961 13.7073 19.5948 13.8538 19.7413C14.0003 19.8878 14.199 19.9702 14.4062 19.9702C14.6135 19.9702 14.8122 19.8878 14.9587 19.7413C15.1052 19.5948 15.1875 19.3961 15.1875 19.1889V9.8139Z" fill="#1B75BC"/>
<path fill-rule="evenodd" clip-rule="evenodd" d="M20.6562 5.1264C20.6562 5.5408 20.4916 5.93823 20.1986 6.23126C19.9056 6.52428 19.5082 6.6889 19.0938 6.6889H18.3125V20.7514C18.3125 21.5802 17.9833 22.3751 17.3972 22.9611C16.8112 23.5472 16.0163 23.8764 15.1875 23.8764H5.8125C4.9837 23.8764 4.18884 23.5472 3.60279 22.9611C3.01674 22.3751 2.6875 21.5802 2.6875 20.7514V6.6889H1.90625C1.49185 6.6889 1.09442 6.52428 0.801396 6.23126C0.50837 5.93823 0.34375 5.5408 0.34375 5.1264V3.5639C0.34375 3.1495 0.50837 2.75207 0.801396 2.45905C1.09442 2.16602 1.49185 2.0014 1.90625 2.0014H7.375C7.375 1.587 7.53962 1.18958 7.83265 0.896549C8.12567 0.603524 8.5231 0.438904 8.9375 0.438904H12.0625C12.4769 0.438904 12.8743 0.603524 13.1674 0.896549C13.4604 1.18958 13.625 1.587 13.625 2.0014H19.0938C19.5082 2.0014 19.9056 2.16602 20.1986 2.45905C20.4916 2.75207 20.6562 3.1495 20.6562 3.5639V5.1264ZM4.43437 6.6889L4.25 6.78109V20.7514C4.25 21.1658 4.41462 21.5632 4.70765 21.8563C5.00067 22.1493 5.3981 22.3139 5.8125 22.3139H15.1875C15.6019 22.3139 15.9993 22.1493 16.2924 21.8563C16.5854 21.5632 16.75 21.1658 16.75 20.7514V6.78109L16.5656 6.6889H4.43437ZM1.90625 5.1264V3.5639H19.0938V5.1264H1.90625Z" fill="#1B75BC"/>
</svg>
