<svg width="25" height="22" viewBox="0 0 25 22" fill="none" xmlns="http://www.w3.org/2000/svg">
<path d="M0 1.57143C0 1.15466 0.16462 0.754961 0.457646 0.460261C0.750671 0.165561 1.1481 0 1.5625 0H23.4375C23.8519 0 24.2493 0.165561 24.5424 0.460261C24.8354 0.754961 25 1.15466 25 1.57143V4.71429C25 5.13105 24.8354 5.53075 24.5424 5.82545C24.2493 6.12015 23.8519 6.28571 23.4375 6.28571V18.0714C23.4375 19.1134 23.0259 20.1126 22.2934 20.8493C21.5608 21.5861 20.5673 22 19.5312 22H5.46875C4.43275 22 3.43918 21.5861 2.70661 20.8493C1.97405 20.1126 1.5625 19.1134 1.5625 18.0714V6.28571C1.1481 6.28571 0.750671 6.12015 0.457646 5.82545C0.16462 5.53075 0 5.13105 0 4.71429V1.57143ZM3.125 6.28571V18.0714C3.125 18.6966 3.37193 19.2961 3.81147 19.7382C4.25101 20.1802 4.84715 20.4286 5.46875 20.4286H19.5312C20.1529 20.4286 20.749 20.1802 21.1885 19.7382C21.6281 19.2961 21.875 18.6966 21.875 18.0714V6.28571H3.125ZM23.4375 1.57143H1.5625V4.71429H23.4375V1.57143ZM7.8125 10.2143C7.8125 10.0059 7.89481 9.80605 8.04132 9.6587C8.18784 9.51135 8.38655 9.42857 8.59375 9.42857H16.4062C16.6135 9.42857 16.8122 9.51135 16.9587 9.6587C17.1052 9.80605 17.1875 10.0059 17.1875 10.2143C17.1875 10.4227 17.1052 10.6225 16.9587 10.7699C16.8122 10.9172 16.6135 11 16.4062 11H8.59375C8.38655 11 8.18784 10.9172 8.04132 10.7699C7.89481 10.6225 7.8125 10.4227 7.8125 10.2143Z" fill="white"/>
</svg>
