<svg width="25" height="24" viewBox="0 0 25 24" fill="none" xmlns="http://www.w3.org/2000/svg">
<path d="M21.875 1.56936C22.2894 1.56936 22.6868 1.7347 22.9799 2.02901C23.2729 2.32332 23.4375 2.72249 23.4375 3.13871V15.6936C23.4375 16.1098 23.2729 16.509 22.9799 16.8033C22.6868 17.0976 22.2894 17.2629 21.875 17.2629H6.89687C6.06814 17.2631 5.27341 17.5939 4.6875 18.1826L1.5625 21.3213V3.13871C1.5625 2.72249 1.72712 2.32332 2.02015 2.02901C2.31317 1.7347 2.7106 1.56936 3.125 1.56936H21.875ZM3.125 0C2.2962 0 1.50134 0.330685 0.915291 0.919308C0.32924 1.50793 0 2.30627 0 3.13871L0 23.2155C3.28357e-05 23.3708 0.0459259 23.5225 0.131871 23.6516C0.217816 23.7806 0.339948 23.8812 0.482811 23.9405C0.625674 23.9998 0.782845 24.0152 0.934431 23.9848C1.08602 23.9543 1.2252 23.8794 1.33437 23.7695L5.79219 19.2921C6.08514 18.9978 6.48251 18.8324 6.89687 18.8323H21.875C22.7038 18.8323 23.4987 18.5016 24.0847 17.913C24.6708 17.3243 25 16.526 25 15.6936V3.13871C25 2.30627 24.6708 1.50793 24.0847 0.919308C23.4987 0.330685 22.7038 0 21.875 0L3.125 0Z" fill="#FFF1F1"/>
</svg>
