<svg width="30" height="22" viewBox="0 0 30 22" fill="none" xmlns="http://www.w3.org/2000/svg">
<path d="M6.44915 15.6702H6.22203L6.07261 15.8412L1.85296 20.671L1.12871 21.5H2.22949H19.6208H19.8478L19.9972 21.3291L27.845 12.3502L28.5696 11.5211H27.4685H23.5486H23.3216L23.1722 11.692L19.6935 15.6702H6.44915Z" stroke="white"/>
<path d="M6.44915 10.1596H6.22203L6.07261 10.3306L1.85296 15.1604L1.12871 15.9894H2.22949H19.6208H19.8478L19.9972 15.8184L27.845 6.83954L28.5696 6.0105H27.4685H23.5407H23.3134L23.164 6.18177L19.6932 10.1596H6.44915Z" stroke="white"/>
<path d="M19.6208 10.4789H19.8478L19.9972 10.3079L27.845 1.32904L28.5696 0.5H27.4685H10.0773H9.85021L9.70079 0.670956L1.85302 9.64985L1.12842 10.4789H2.22949H19.6208Z" stroke="white"/>
</svg>
