<svg width="21" height="22" viewBox="0 0 21 22" fill="none" xmlns="http://www.w3.org/2000/svg">
<path d="M11.0718 0.230818C10.9968 0.157652 10.9077 0.0996029 10.8096 0.0599953C10.7114 0.0203877 10.6062 0 10.5 0C10.3938 0 10.2886 0.0203877 10.1904 0.0599953C10.0923 0.0996029 10.0032 0.157652 9.92815 0.230818L0.235847 9.65879C0.160891 9.73188 0.10148 9.81863 0.0610117 9.91408C0.0205436 10.0095 -0.000188272 10.1118 1.28826e-06 10.215V21.2143C1.28826e-06 21.4227 0.0850972 21.6225 0.236569 21.7699C0.38804 21.9172 0.59348 22 0.807693 22H8.07692C8.29114 22 8.49658 21.9172 8.64805 21.7699C8.79952 21.6225 8.88461 21.4227 8.88461 21.2143V14.929H12.1154V21.2143C12.1154 21.4227 12.2005 21.6225 12.352 21.7699C12.5034 21.9172 12.7089 22 12.9231 22H20.1923C20.4065 22 20.612 21.9172 20.7634 21.7699C20.9149 21.6225 21 21.4227 21 21.2143V10.215C21.0002 10.1118 20.9795 10.0095 20.939 9.91408C20.8985 9.81863 20.8391 9.73188 20.7642 9.65879L18.5769 7.53278V2.3584C18.5769 2.15003 18.4918 1.95019 18.3404 1.80285C18.1889 1.65551 17.9834 1.57273 17.7692 1.57273H16.1538C15.9396 1.57273 15.7342 1.65551 15.5827 1.80285C15.4312 1.95019 15.3462 2.15003 15.3462 2.3584V4.39012L11.0718 0.230818ZM1.61539 20.4287V10.5403L10.5 1.898L19.3846 10.5403V20.4287H13.7308V14.1434C13.7308 13.935 13.6457 13.7352 13.4942 13.5878C13.3427 13.4405 13.1373 13.3577 12.9231 13.3577H8.07692C7.86271 13.3577 7.65727 13.4405 7.5058 13.5878C7.35433 13.7352 7.26923 13.935 7.26923 14.1434V20.4287H1.61539Z" fill="white"/>
</svg>
