<svg width="25" height="18" viewBox="0 0 25 18" fill="none" xmlns="http://www.w3.org/2000/svg">
<path d="M4.8625 2.4675C4.8309 2.15515 4.86771 1.83991 4.97057 1.54203C5.07343 1.24416 5.24006 0.970227 5.45975 0.737848C5.67945 0.505469 5.94735 0.319779 6.24624 0.192707C6.54514 0.0656363 6.86842 -5.1845e-06 7.19531 3.07124e-10H10.9375C11.1447 3.07124e-10 11.3434 0.0790178 11.4899 0.21967C11.6364 0.360322 11.7188 0.551088 11.7188 0.75V1.323C11.7188 2.367 10.9422 3.096 10.3562 3.5265C10.2857 3.57461 10.2248 3.63458 10.1766 3.7035C10.1687 3.71521 10.1624 3.72781 10.1578 3.741L10.1562 3.75V3.7545L10.1609 3.7695C10.1672 3.7845 10.1828 3.8115 10.2172 3.849C10.3368 3.97142 10.4801 4.07027 10.6391 4.14C11.0781 4.35 11.7344 4.5 12.5 4.5C13.2688 4.5 13.925 4.35 14.3594 4.14C14.5189 4.07044 14.6628 3.97158 14.7828 3.849C14.8087 3.82116 14.8293 3.78918 14.8438 3.7545V3.741C14.8391 3.7278 14.8328 3.71521 14.825 3.7035C14.7767 3.63458 14.7158 3.57461 14.6453 3.5265C14.0594 3.096 13.2828 2.367 13.2828 1.323V0.75C13.2828 0.551347 13.3649 0.360809 13.5111 0.2202C13.6573 0.0795905 13.8556 0.000397306 14.0625 3.07124e-10H17.8047C18.1316 -5.1845e-06 18.4549 0.0656363 18.7538 0.192707C19.0527 0.319779 19.3206 0.505469 19.5402 0.737848C19.7599 0.970227 19.9266 1.24416 20.0294 1.54203C20.1323 1.83991 20.1691 2.15515 20.1375 2.4675L19.7578 6.75H20.1281C20.4328 6.75 20.7844 6.5295 21.1828 6.03C21.5109 5.619 22.0078 5.25 22.6562 5.25C23.5438 5.25 24.1359 5.9205 24.4594 6.543C24.8078 7.2105 25 8.0805 25 9C25 9.9195 24.8078 10.7895 24.4594 11.457C24.1359 12.0795 23.5438 12.75 22.6562 12.75C22.0078 12.75 21.5109 12.381 21.1828 11.97C20.7844 11.4705 20.4328 11.25 20.1281 11.25H19.7578L20.1375 15.5325C20.1691 15.8448 20.1323 16.1601 20.0294 16.458C19.9266 16.7558 19.7599 17.0298 19.5402 17.2622C19.3206 17.4945 19.0527 17.6802 18.7538 17.8073C18.4549 17.9344 18.1316 18 17.8047 18H14.0625C13.8553 18 13.6566 17.921 13.5101 17.7803C13.3636 17.6397 13.2812 17.4489 13.2812 17.25V16.677C13.2812 15.633 14.0578 14.904 14.6437 14.4735C14.7143 14.4254 14.7752 14.3654 14.8234 14.2965C14.8313 14.2848 14.8376 14.2722 14.8422 14.259L14.8438 14.25V14.2455C14.8295 14.2103 14.8089 14.1778 14.7828 14.1495C14.6631 14.0276 14.5198 13.9293 14.3609 13.86C13.9219 13.65 13.2656 13.5 12.5 13.5C11.7328 13.5 11.075 13.65 10.6406 13.86C10.481 13.9295 10.3372 14.0284 10.2172 14.151C10.1913 14.1789 10.1707 14.2108 10.1562 14.2455V14.25L10.1578 14.259C10.1624 14.2722 10.1687 14.2848 10.1766 14.2965C10.2016 14.337 10.2547 14.3985 10.3562 14.4735C10.9422 14.904 11.7188 15.633 11.7188 16.677V17.25C11.7188 17.4489 11.6364 17.6397 11.4899 17.7803C11.3434 17.921 11.1447 18 10.9375 18H7.19531C6.86842 18 6.54514 17.9344 6.24624 17.8073C5.94735 17.6802 5.67945 17.4945 5.45975 17.2622C5.24006 17.0298 5.07343 16.7558 4.97057 16.458C4.86771 16.1601 4.8309 15.8448 4.8625 15.5325L5.24375 11.25H4.87187C4.56719 11.25 4.21563 11.4705 3.81719 11.97C3.48906 12.381 2.99219 12.75 2.34375 12.75C1.45625 12.75 0.864062 12.0795 0.540625 11.457C0.192187 10.7895 0 9.9195 0 9C0 8.0805 0.192187 7.2105 0.540625 6.543C0.864062 5.9205 1.45625 5.25 2.34375 5.25C2.99219 5.25 3.48906 5.619 3.81719 6.03C4.21563 6.5295 4.56719 6.75 4.87187 6.75H5.24375L4.8625 2.4675ZM7.19531 1.5C7.08606 1.49989 6.978 1.52179 6.87811 1.56426C6.77822 1.60674 6.68872 1.66886 6.6154 1.7466C6.54207 1.82435 6.48654 1.916 6.4524 2.01562C6.41826 2.11525 6.40626 2.22064 6.41719 2.325L6.41875 2.3355L6.87187 7.4355C6.88118 7.53902 6.86798 7.64328 6.83311 7.74164C6.79823 7.84001 6.74245 7.93035 6.66929 8.00693C6.59613 8.08351 6.50719 8.14466 6.40812 8.1865C6.30904 8.22835 6.20199 8.24997 6.09375 8.25H4.87187C3.78438 8.25 3.025 7.5045 2.57656 6.942C2.52645 6.87429 2.46398 6.81585 2.39219 6.7695C2.37999 6.76197 2.36687 6.75592 2.35313 6.7515L2.34375 6.75H2.33906C2.30239 6.76367 2.26853 6.78348 2.23906 6.8085C2.1121 6.92342 2.00968 7.06098 1.9375 7.2135C1.71875 7.635 1.5625 8.265 1.5625 9C1.5625 9.7365 1.71875 10.368 1.9375 10.785C2.04688 10.995 2.15625 11.1225 2.24062 11.1915C2.26963 11.2164 2.30294 11.2362 2.33906 11.25H2.34375L2.35313 11.2485C2.36687 11.2441 2.37999 11.238 2.39219 11.2305C2.46398 11.1841 2.52645 11.1257 2.57656 11.058C3.025 10.4955 3.78438 9.75 4.87187 9.75H6.09375C6.20185 9.75005 6.30875 9.77163 6.40772 9.81338C6.50668 9.85513 6.59553 9.91615 6.66867 9.99256C6.74181 10.069 6.79763 10.1591 6.83261 10.2573C6.86758 10.3555 6.88095 10.4596 6.87187 10.563L6.41875 15.675C6.40784 15.7792 6.41979 15.8845 6.45384 15.984C6.48789 16.0835 6.54328 16.1751 6.61643 16.2528C6.68959 16.3306 6.7789 16.3927 6.8786 16.4353C6.97831 16.4778 7.08619 16.4999 7.19531 16.5H10.1297C10.0547 16.251 9.825 15.972 9.40625 15.6645C8.97812 15.3495 8.59375 14.8725 8.59375 14.25C8.59375 13.398 9.29219 12.8295 9.94063 12.519C10.6359 12.1845 11.5422 12 12.5 12C13.4578 12 14.3641 12.1845 15.0594 12.519C15.7078 12.8295 16.4062 13.398 16.4062 14.25C16.4062 14.8725 16.0219 15.3495 15.5937 15.6645C15.175 15.972 14.9453 16.2495 14.8703 16.5H17.8047C17.9139 16.5001 18.022 16.4782 18.1219 16.4357C18.2218 16.3933 18.3113 16.3311 18.3846 16.2534C18.4579 16.1757 18.5135 16.084 18.5476 15.9844C18.5817 15.8848 18.5937 15.7794 18.5828 15.675L18.5813 15.6645L18.1281 10.5645C18.1188 10.461 18.132 10.3567 18.1669 10.2584C18.2018 10.16 18.2576 10.0696 18.3307 9.99307C18.4039 9.91649 18.4928 9.85534 18.5919 9.8135C18.691 9.77165 18.798 9.75003 18.9062 9.75H20.1281C21.2156 9.75 21.975 10.4955 22.4234 11.058C22.5016 11.1555 22.5656 11.2065 22.6078 11.2305C22.6281 11.2425 22.6406 11.2455 22.6469 11.2485C22.6499 11.2495 22.6531 11.25 22.6562 11.25H22.6609C22.6976 11.2363 22.7314 11.2165 22.7609 11.1915C22.8879 11.0766 22.9903 10.939 23.0625 10.7865C23.2812 10.3665 23.4375 9.7365 23.4375 9C23.4375 8.262 23.2812 7.632 23.0625 7.215C22.99 7.06182 22.8871 6.92373 22.7594 6.8085C22.7303 6.78368 22.697 6.76388 22.6609 6.75H22.6562L22.6469 6.7515C22.6331 6.75594 22.62 6.76198 22.6078 6.7695C22.536 6.81585 22.4736 6.87429 22.4234 6.942C21.975 7.5045 21.2156 8.25 20.1281 8.25H18.9062C18.798 8.24997 18.691 8.22835 18.5919 8.1865C18.4928 8.14466 18.4039 8.08351 18.3307 8.00693C18.2576 7.93035 18.2018 7.84001 18.1669 7.74164C18.132 7.64328 18.1188 7.53902 18.1281 7.4355L18.5813 2.325C18.5922 2.22077 18.5802 2.1155 18.5462 2.01598C18.5121 1.91645 18.4567 1.82488 18.3836 1.74716C18.3104 1.66944 18.2211 1.60729 18.1214 1.56472C18.0217 1.52215 17.9138 1.5001 17.8047 1.5H14.8703C14.9453 1.749 15.175 2.028 15.5937 2.3355C16.0219 2.6505 16.4062 3.1275 16.4062 3.75C16.4062 4.602 15.7078 5.1705 15.0594 5.481C14.3641 5.8155 13.4578 6 12.5 6C11.5422 6 10.6359 5.8155 9.94063 5.481C9.29219 5.1705 8.59375 4.602 8.59375 3.75C8.59375 3.1275 8.97812 2.6505 9.40625 2.3355C9.825 2.028 10.0547 1.7505 10.1297 1.5H7.19531Z" fill="#FFF1F1"/>
</svg>
