<svg width="20" height="20" viewBox="0 0 20 20" fill="none" xmlns="http://www.w3.org/2000/svg">
<path d="M10 20C15.5228 20 20 15.5228 20 10C20 4.47715 15.5228 0 10 0C4.47715 0 0 4.47715 0 10C0 15.5228 4.47715 20 10 20Z" fill="#231F20"/>
<path d="M6.41833 16.4958C6.3413 16.4958 6.45684 16.438 6.41833 16.4958Z" fill="white"/>
<path d="M7.06016 1.3608C7.06016 1.3608 7.02165 1.3608 7.06016 1.40573C7.09867 1.45066 7.10509 1.38006 7.06016 1.3608Z" fill="white"/>
<path d="M5.25669 3.14516C5.1925 3.14516 5.5391 3.21577 5.50701 3.20293C5.6097 3.20293 5.62254 3.09381 5.57761 3.04247C5.46208 2.88842 5.39148 3.00396 5.19892 3.04247C5.1198 3.09215 5.04469 3.14795 4.97427 3.20935C5.02323 3.21882 5.07361 3.21801 5.12223 3.20696C5.17085 3.19591 5.21664 3.17486 5.25669 3.14516Z" fill="white"/>
<path d="M6.92538 17.6638C6.96389 17.6638 6.95748 17.6638 6.92538 17.6253C6.89329 17.5868 6.88687 17.6446 6.92538 17.6638Z" fill="white"/>
<path d="M7.27217 17.8114C7.30427 17.8114 7.31069 17.8114 7.27217 17.7729C7.23366 17.7343 7.23366 17.8049 7.27217 17.8114Z" fill="white"/>
<path d="M4.92949 2.7022C4.92949 2.7022 4.92949 2.74713 4.87814 2.77922C4.82679 2.81132 4.94233 2.74713 4.92949 2.7022Z" fill="white"/>
<path d="M2.18233 6.88083C2.09247 6.88083 2.24652 6.88083 2.18233 6.88083Z" fill="white"/>
<path d="M6.4188 7.23382C6.4188 7.27272 6.35397 7.23382 6.4188 7.23382Z" fill="white"/>
<path d="M8.21551 2.4777C8.27759 2.46659 8.33664 2.44254 8.38881 2.4071C8.34388 2.42635 8.26044 2.41352 8.21551 2.4777Z" fill="white"/>
<path d="M7.53523 3.36986C7.53523 3.33135 7.4903 3.33135 7.45821 3.36986C7.42611 3.40837 7.48388 3.34419 7.53523 3.36986Z" fill="white"/>
<path d="M7.88817 2.362C7.9331 2.362 7.77264 2.362 7.74697 2.47112C7.74697 2.41977 7.97803 2.40693 7.97803 2.39409C7.96758 2.38085 7.95361 2.37081 7.93771 2.36514C7.92182 2.35946 7.90465 2.35837 7.88817 2.362Z" fill="white"/>
<path d="M7.38765 2.71503C7.43258 2.71503 7.32347 2.71503 7.38765 2.71503Z" fill="white"/>
<path d="M6.91927 2.68937C6.91927 2.68937 6.79732 2.74072 6.78448 2.77281C6.85508 2.70221 6.65611 2.93969 6.91927 2.68937Z" fill="white"/>
<path d="M6.8422 3.01029C6.76517 3.01029 6.91922 3.01029 6.8422 3.01029Z" fill="white"/>
<path d="M7.15659 2.20156C7.15659 2.20156 7.15659 2.16947 7.11166 2.20156C7.06673 2.23366 7.13734 2.22082 7.15659 2.20156Z" fill="white"/>
<path d="M6.02047 3.53676C5.97672 3.53257 5.93258 3.53723 5.89068 3.55046C5.84878 3.5637 5.80997 3.58523 5.77656 3.61378C5.81507 3.67155 6.36706 3.56885 6.02047 3.53676Z" fill="white"/>
<path d="M7.20797 1.38666C7.18086 1.37784 7.15165 1.37784 7.12453 1.38666C7.06035 1.45085 7.23365 1.42518 7.20797 1.38666Z" fill="white"/>
<path d="M5.9371 3.25417C5.9371 3.25417 5.9371 3.25417 5.98203 3.25417C6.02696 3.25417 5.95635 3.24775 5.9371 3.25417Z" fill="white"/>
<path d="M5.13461 3.4146C5.13461 3.4146 4.8907 3.76762 4.92921 3.80613C5.11354 3.65566 5.28925 3.49494 5.45553 3.32474C5.60957 3.22205 5.45553 3.50446 5.42344 3.56223C5.39134 3.61999 5.49404 3.51088 5.5133 3.56223C5.51889 3.5836 5.51888 3.60605 5.51326 3.62742C5.50763 3.64878 5.49659 3.66833 5.4812 3.68418C5.56464 3.68418 5.72511 3.51088 5.73152 3.4146C5.83422 3.56865 5.91124 3.37609 5.78287 3.31832C5.67492 3.28185 5.55984 3.27155 5.44713 3.28829C5.33442 3.30503 5.2273 3.34832 5.13461 3.4146ZM5.74436 3.31832C5.70585 3.31832 5.6866 3.31832 5.68018 3.31832C5.67376 3.31832 5.77645 3.28623 5.73794 3.31832H5.74436Z" fill="white"/>
<path d="M5.96276 1.38009C6.0724 1.36653 6.17883 1.33395 6.27726 1.28382C6.16752 1.29685 6.061 1.32946 5.96276 1.38009Z" fill="white"/>
<path d="M5.29509 3.80635C5.263 3.90905 5.68662 3.74217 5.6802 3.74217C5.72639 3.72986 5.76848 3.70549 5.80215 3.67156C5.66976 3.65989 5.5366 3.65989 5.40421 3.67156C5.44272 3.69082 5.28867 3.85128 5.29509 3.80635Z" fill="white"/>
<path d="M8.20288 1.32866C8.14512 1.28373 8.13228 1.28373 8.10019 1.36075C8.13228 1.3415 8.17721 1.36075 8.20288 1.32866Z" fill="white"/>
<path d="M5.26327 1.92575C5.34681 1.90498 5.42841 1.87706 5.50717 1.84231C5.50075 1.79096 5.28894 1.92575 5.26327 1.92575Z" fill="white"/>
<path d="M5.19892 2.16317C5.19892 2.16317 5.13473 2.176 5.13473 2.20168C5.14826 2.20392 5.16215 2.20128 5.17391 2.19422C5.18566 2.18717 5.19453 2.17616 5.19892 2.16317Z" fill="white"/>
<path d="M5.19289 3.06176C5.17344 3.06824 5.13454 3.08121 5.19289 3.06176Z" fill="white"/>
<path d="M6.82292 2.39412C6.79083 2.39412 6.7459 2.39412 6.70739 2.43905C6.77799 2.45188 6.77799 2.45188 6.82292 2.39412Z" fill="white"/>
<path d="M5.00627 2.76006C5.05762 2.76006 5.33362 2.45197 5.28227 2.40063C5.23092 2.34928 5.07688 2.46481 5.04479 2.47765C5.01269 2.49049 5.13464 2.56751 5.13464 2.51616C5.13464 2.46481 5.13464 2.68304 5.07046 2.70871C5.00627 2.73439 5.01269 2.72797 5.00627 2.76006ZM5.13464 2.51616C5.13464 2.51616 5.13464 2.51616 5.13464 2.46481C5.13464 2.41346 5.13464 2.4969 5.13464 2.51616Z" fill="white"/>
<path d="M7.95256 1.4571H8.01033C8.01033 1.4571 8.036 1.38649 7.95256 1.4571Z" fill="white"/>
<path d="M5.71239 1.59832C5.71239 1.59832 5.57118 1.65608 5.54551 1.66892C5.54551 1.66892 5.50058 1.66892 5.48774 1.72027C5.4749 1.77162 5.77657 1.65608 5.71239 1.59832Z" fill="white"/>
<path d="M5.4751 2.87561C5.5072 2.91412 5.56496 2.81142 5.56496 2.80501C5.56496 2.79859 5.44943 2.84352 5.4751 2.87561Z" fill="white"/>
<path d="M18.9473 11.5532C18.9473 11.489 19.0244 11.4633 19.0372 11.3992C18.9473 11.4762 18.9473 11.4762 18.9473 11.5532Z" fill="white"/>
<path d="M8.74845 3.06802C8.78696 3.06802 8.74845 3.06802 8.71636 3.06802C8.68427 3.06802 8.73561 3.08728 8.74845 3.06802Z" fill="white"/>
<path d="M19.0821 10.5714C19.0523 10.7473 19.0415 10.926 19.05 11.1042C19.0399 11.2148 19.053 11.3263 19.0885 11.4315C19.1014 11.1491 19.0885 10.8603 19.0821 10.5714Z" fill="white"/>
<path d="M19.1207 10.0193C19.1207 10.0193 19.1207 10.0642 19.1207 10.1027C19.1207 10.1412 19.1335 10.0514 19.1207 10.0193Z" fill="white"/>
<path d="M14.2168 2.43276L14.2682 2.47127C14.2682 2.47127 14.2233 2.43276 14.2168 2.43276Z" fill="white"/>
<path d="M19.0759 12.3301C19.1655 12.1103 19.2071 11.874 19.1978 11.6369C19.1978 11.6369 19.1978 11.5983 19.1978 11.5791C19.1786 11.8358 19.0823 12.0669 19.0759 12.3301Z" fill="white"/>
<path d="M18.8573 12.5932H18.9215C18.9215 12.5932 18.8253 12.5932 18.8573 12.5932Z" fill="white"/>
<path d="M18.2029 5.50063C18.1452 5.53914 18.6522 6.29011 18.6907 6.38638C18.6907 6.42489 18.7292 6.48266 18.6907 6.38638C18.8769 6.81 19.0694 7.23362 19.2363 7.67008V7.63157C19.1978 7.46469 19.1464 7.29139 19.1015 7.12451C18.8671 6.54964 18.5655 6.00455 18.2029 5.50063Z" fill="white"/>
<path d="M19.1785 9.62778C19.1785 9.69197 19.14 9.7369 19.1785 9.78825C19.1657 9.74332 19.2042 9.70481 19.1785 9.62778Z" fill="white"/>
<path d="M19.3195 10.0771C19.3327 10.0309 19.3327 9.98201 19.3195 9.93587C19.1783 10.0193 19.2233 10.2825 19.2297 10.4173C19.3388 10.3146 19.2939 10.2568 19.3388 10.0771H19.3195Z" fill="white"/>
<path d="M10 0.365823C8.09586 0.365823 6.23444 0.930479 4.65117 1.98839C3.0679 3.0463 1.83389 4.54994 1.10519 6.30918C0.376486 8.06842 0.185825 10.0042 0.557313 11.8718C0.928801 13.7394 1.84575 15.4549 3.19221 16.8014C4.53868 18.1478 6.25417 19.0648 8.12177 19.4363C9.98937 19.8078 11.9252 19.6171 13.6844 18.8884C15.4437 18.1597 16.9473 16.9257 18.0052 15.3424C19.0631 13.7592 19.6278 11.8977 19.6278 9.99355C19.6278 7.44012 18.6134 4.99127 16.8079 3.18572C15.0023 1.38017 12.5535 0.365823 10 0.365823ZM11.7523 0.641818C11.7844 0.641818 11.6945 0.641818 11.7074 0.641818C11.5854 0.641818 11.457 0.641818 11.3351 0.596888C11.4757 0.586841 11.617 0.602058 11.7523 0.641818ZM11.4699 1.28367C11.5341 1.28367 12.0219 1.32218 11.8486 1.3992C11.6753 1.47622 11.5212 1.52757 11.3993 1.3992C11.2773 1.27083 11.2003 1.30292 11.1939 1.2965C11.1939 1.2965 11.4314 1.34785 11.4699 1.34143V1.28367ZM8.47887 0.641818C8.77645 0.524505 9.10003 0.489044 9.41596 0.539122C9.69838 0.577633 9.98721 0.487774 10.2632 0.539122C10.3722 0.54548 10.4815 0.54548 10.5905 0.539122C10.6868 0.539122 10.5905 0.654655 10.6868 0.667492C10.7831 0.680329 10.8858 0.827954 10.95 0.795861C10.95 0.898557 10.8986 0.827954 10.95 0.924231C11.0013 1.02051 11.0784 1.01409 11.0719 1.02051C10.9672 1.02694 10.8622 1.02694 10.7574 1.02051C10.7574 1.02051 10.7574 1.07186 10.7574 1.05902C10.8472 1.06545 10.9373 1.06545 11.027 1.05902C10.8665 1.20664 10.6291 1.18739 10.4493 1.30292C10.3227 1.35195 10.1916 1.3885 10.0578 1.41204C10.0334 1.55685 9.97393 1.69349 9.88451 1.80998C9.82675 1.89984 9.42238 1.69445 9.37745 1.6431C9.33252 1.59175 9.08862 1.25799 9.30685 1.17455C9.52508 1.09111 9.30685 1.17455 9.22983 1.09753C9.29401 1.00767 9.36462 1.03976 9.46731 1.0526C9.44853 1.02032 9.41773 0.996787 9.38164 0.987164C9.34555 0.97754 9.30712 0.982606 9.27476 1.00125C9.27476 0.924231 9.38387 0.853628 9.27476 0.776606C9.16564 0.699584 8.94742 0.776606 8.941 0.731677C8.93458 0.686747 9.28118 0.67391 9.33894 0.577633C9.07578 0.519866 8.78695 0.783024 8.53021 0.738095H8.34408C8.34408 0.738095 8.54947 0.718839 8.47887 0.67391V0.641818ZM8.47887 3.15786C8.47887 3.15786 8.53663 3.15786 8.53663 3.10652C8.53663 3.05517 8.13869 3.10652 8.12585 3.06159C8.14828 3.02331 8.17642 2.98868 8.20929 2.95889L8.48528 2.68931C8.48528 2.68931 8.54305 2.61229 8.63933 2.63797C8.63933 2.63797 8.46603 2.79843 8.47887 2.81768C8.54223 2.82656 8.60457 2.84161 8.665 2.86261C8.84472 2.79843 8.71635 2.95247 8.81905 2.96531C8.81905 2.96531 8.81905 3.31191 8.67784 3.15786C8.68143 3.13662 8.68143 3.11492 8.67784 3.09368C8.67784 3.09368 8.49812 3.20921 8.45319 3.20921L8.47887 3.15786ZM8.47887 0.763769C8.3762 0.817424 8.25729 0.831143 8.1451 0.80228C8.19645 0.80228 8.10659 0.763769 8.06808 0.80228C8.22213 0.699584 8.26064 0.770187 8.46603 0.795861L8.47887 0.763769ZM8.06808 0.712421C8.06808 0.712421 8.0039 0.834372 7.97181 0.789443C7.93971 0.744513 7.92688 0.789443 7.90762 0.75735C7.88836 0.725258 8.0039 0.75735 8.05525 0.744513L8.06808 0.712421ZM7.93971 0.834372C7.87369 0.878857 7.79436 0.899255 7.71507 0.892139C7.78036 0.858626 7.85547 0.849522 7.92688 0.866465L7.93971 0.834372ZM7.83702 0.731677C7.79851 0.731677 7.77925 0.770187 7.83702 0.731677C7.87553 0.731677 7.68297 0.731677 7.61237 0.770187C7.64518 0.754105 7.68105 0.745213 7.71758 0.744106C7.75411 0.742999 7.79045 0.749703 7.82418 0.763769L7.83702 0.731677ZM7.70223 0.879302C7.63595 0.940963 7.54885 0.975345 7.45833 0.975579C7.52693 0.917703 7.61259 0.883887 7.70223 0.879302ZM7.70223 0.924231C7.70223 0.924231 7.70223 0.924231 7.67014 0.924231H7.70223ZM2.86911 10.3273C2.86911 10.3722 2.86911 10.3851 2.81134 10.3722C2.79223 10.3139 2.79223 10.2509 2.81134 10.1925C2.83125 10.2363 2.8484 10.2814 2.86269 10.3273C2.85627 10.2695 2.88195 10.3466 2.86911 10.3273ZM2.93971 10.3273C2.93971 10.2375 2.93971 10.4236 2.93971 10.3273ZM6.62392 17.3876C6.56616 17.3042 6.71378 17.2079 6.56616 17.1758C6.41853 17.1437 6.50839 17.2079 6.50197 17.0924C6.49555 16.9769 6.39286 16.8613 6.5469 16.9127C6.5469 16.9127 6.5469 16.5147 6.39928 16.6046C6.54048 16.7458 6.39928 16.7971 6.39928 16.7586C6.35416 16.5094 6.26966 16.2689 6.14896 16.0462C6.14896 16.0462 6.14896 15.9242 6.14896 15.8729C6.14896 15.8215 6.14896 15.5455 6.14896 15.3979C6.13195 15.2934 6.0949 15.1931 6.03984 15.1027C6.00133 15.0321 6.07835 14.9871 6.03984 14.9101C6.00133 14.8331 6.03984 14.5635 6.00775 14.4223C5.94825 14.2139 5.92438 13.9969 5.93715 13.7805C5.93472 13.6171 5.88652 13.4578 5.79801 13.3205C5.70951 13.1832 5.58426 13.0735 5.4365 13.0038C5.26459 12.9268 5.11035 12.8153 4.98337 12.6762C4.85639 12.5371 4.75938 12.3733 4.69838 12.1951C4.58532 11.8529 4.38903 11.5441 4.12713 11.2965C3.98593 11.1746 4.22983 10.6996 4.22341 10.6996C4.09504 10.6033 4.05653 10.5905 4.13355 10.3915C4.17147 10.3158 4.19125 10.2323 4.19132 10.1476C4.19132 10.1476 4.33252 10.0577 4.34536 9.99355C4.3582 9.92937 4.64703 9.69188 4.56359 9.60844C4.48015 9.525 4.63419 9.25542 4.56359 9.13989C4.49299 9.02436 4.45448 8.74836 4.33252 8.7612C4.21057 8.77404 4.20415 9.09496 4.12713 9.05645C4.05011 9.01794 3.94741 8.8639 3.83188 8.8318C3.71635 8.79971 3.75486 8.63283 3.63933 8.58148C3.63933 8.58148 3.63933 8.61999 3.63933 8.63925C3.63933 8.65851 3.56231 8.344 3.56231 8.344C3.57606 8.36283 3.59467 8.37755 3.61616 8.3866C3.63764 8.39564 3.66118 8.39867 3.68426 8.39535C3.68426 8.36326 3.62649 8.20279 3.58156 8.22847C3.53663 8.25414 3.58156 8.33116 3.58156 8.344C3.44035 8.31191 3.47245 8.07442 3.43394 8.02949C3.39543 7.98456 3.06808 7.98457 2.98464 7.86261C2.9012 7.74066 2.88836 7.56094 2.77283 7.53527C2.6573 7.5096 2.61879 7.65722 2.47758 7.57378C2.33638 7.49034 2.07964 7.24002 2.07964 7.17584C2.07964 7.11165 1.91276 6.91268 2.04112 6.8164L2.09247 6.61101C2.16949 6.3286 2.01545 5.96916 2.13098 5.71884C2.18699 5.52885 2.21932 5.33267 2.22726 5.13476C2.08605 5.08341 1.92559 6.41845 1.84857 6.41845C1.91276 6.13604 1.84857 5.84721 1.98336 5.60331C2.03161 5.4644 2.07232 5.32299 2.10531 5.17969C2.19174 5.03393 2.24846 4.8725 2.27219 4.70472C2.59056 4.11333 2.99507 3.57255 3.47245 3.1001C3.92716 2.62491 4.43797 2.20678 4.99363 1.85491C5.34145 1.63946 5.70391 1.44858 6.07835 1.28367L6.56616 1.08469C6.65602 1.1553 6.56616 1.1553 6.51481 1.20664C6.55047 1.2226 6.58994 1.22806 6.6286 1.22238C6.66725 1.21669 6.70348 1.2001 6.73304 1.17455C6.69453 1.0526 7.20801 0.840791 7.37489 0.840791C7.37489 0.872883 7.30428 0.879302 7.27861 0.904976C7.25293 0.93065 7.34921 0.904976 7.38772 0.904976C7.20183 1.01811 7.00639 1.11476 6.80364 1.19381C6.85499 1.2965 7.1374 1.10395 7.21442 1.09111C7.21442 1.16813 7.09889 1.14888 7.06038 1.19381C7.26577 1.23232 7.35563 0.956323 7.57386 0.981997C7.50703 1.06005 7.42656 1.1253 7.33638 1.17455C7.37862 1.16492 7.4225 1.16492 7.46475 1.17455C7.43265 1.23232 7.34921 1.21306 7.32354 1.29008C7.45991 1.24819 7.58803 1.18304 7.70223 1.09753C7.70223 1.09753 7.70223 1.06544 7.66372 1.0526C7.76633 0.963884 7.89441 0.909956 8.02957 0.898557C7.98464 0.937068 7.92688 0.949905 7.89478 1.00125C8.01673 0.962742 8.08734 0.879302 8.22854 0.892139C8.22854 0.937068 8.18362 0.937068 8.16436 0.962742C8.21575 0.968399 8.26758 0.957131 8.31199 0.93065C8.31199 0.93065 8.27347 0.93065 8.26064 0.93065C8.3042 0.914968 8.35186 0.914968 8.39543 0.93065C8.3505 1.05902 8.47887 1.03976 8.56231 1.11037C8.64575 1.18097 8.43394 1.18097 8.4917 1.23232C8.54947 1.28367 8.665 1.2965 8.72919 1.34785C8.79337 1.3992 8.51738 1.48906 8.47245 1.46338C8.42752 1.43771 8.26064 1.27725 8.29915 1.46338C8.33766 1.64952 8.36333 1.70729 8.09376 1.57892C8.09376 1.57892 8.18362 1.69445 8.17078 1.7137C8.15794 1.73296 7.88836 1.66878 7.86911 1.63026C7.81776 1.47622 7.5867 1.5725 7.57386 1.51473C7.56102 1.45697 8.4211 1.32218 8.06166 1.11679C7.92278 1.11122 7.78711 1.15951 7.68297 1.25157C7.63804 1.34143 7.54819 1.34785 7.46475 1.36711H7.30428C7.25935 1.40562 7.34279 1.54682 7.36205 1.55966C7.24268 1.59515 7.11556 1.59515 6.9962 1.55966C6.9962 1.55966 7.09247 1.55966 7.10531 1.48264C7.00903 1.41204 6.46346 1.67519 6.40569 1.72654C6.13612 1.86133 6.13612 1.93835 5.99491 2.11165C5.99491 2.15658 6.20672 2.07956 6.18747 2.21435C6.16821 2.34913 6.43137 2.32988 6.45062 2.3363C6.40078 2.38849 6.35766 2.44671 6.32225 2.5096C6.32225 2.5096 6.40569 2.5096 6.39286 2.54811C6.38002 2.58662 6.33509 2.54811 6.29658 2.54811C6.24523 2.64439 6.29658 2.75992 6.38644 2.71499C6.4763 2.67006 6.52765 2.58662 6.59825 2.4775C6.66885 2.36839 6.9641 2.32988 7.0668 2.13091C7.16949 1.93193 6.97052 2.02179 7.15024 1.93835C7.32996 1.85491 7.3107 1.78431 7.35563 1.7137C7.40056 1.6431 7.74074 1.78431 7.8306 1.82282C7.5867 2.163 8.04241 1.95119 8.18362 1.85491C8.18362 2.163 8.26706 2.28495 8.53663 2.40048C8.53663 2.43899 8.4917 2.40048 8.47245 2.43899C8.45319 2.4775 8.67142 2.51602 8.63933 2.56736C8.54305 2.77275 8.4211 2.67648 8.24138 2.80485C8.06166 2.93322 7.7279 2.80485 7.49684 2.86261C7.26338 2.94662 7.04623 3.0704 6.85499 3.22847C7.09247 3.22847 7.27861 2.92038 7.56744 2.97815C7.74716 3.01666 7.4134 3.09368 7.3813 3.1001C7.39558 3.11781 7.41477 3.13091 7.43647 3.13777C7.45816 3.14462 7.48139 3.14491 7.50326 3.13861C7.56102 3.21563 7.40056 3.38251 7.67014 3.38251C7.81776 3.38251 7.8306 3.23489 7.95255 3.23489C7.94781 3.26895 7.94781 3.30351 7.95255 3.33758C7.88195 3.47879 7.38772 3.55581 7.24652 3.63925C7.10531 3.72269 7.30428 3.44028 7.42623 3.39535C7.21825 3.48803 7.00372 3.56526 6.78439 3.62641C6.72429 3.63739 6.6705 3.67052 6.63366 3.71925C6.59681 3.76798 6.5796 3.82876 6.58541 3.88957C6.46988 3.94734 6.33509 3.9345 6.21956 3.97943C6.21956 3.97943 6.28374 3.97943 6.30942 3.97943C6.18514 4.06099 6.05416 4.13185 5.91789 4.19124C5.91789 4.19124 5.82161 4.46723 5.80236 4.3517C5.7831 4.23617 5.80236 4.20408 5.8537 4.17198C5.74459 4.17198 5.78952 4.36454 5.67399 4.30677C5.67399 4.30677 5.78952 4.41589 5.67399 4.40305L5.63548 4.49933C5.63548 4.49933 5.77668 4.49291 5.73175 4.49291C5.68682 4.49291 5.62906 4.49291 5.63548 4.56351C5.6419 4.63412 5.69324 4.56351 5.69966 4.56351C5.70608 4.56351 5.52636 4.69188 5.4686 4.71756C5.2875 4.84125 5.1178 4.98088 4.96154 5.13476C4.74331 5.30806 4.71763 6.1553 4.63419 6.16172C4.55075 6.16813 4.59568 6.09111 4.56359 6.0526C4.5315 6.01409 4.56359 5.34015 4.44806 5.41075C4.33252 5.48136 4.2555 5.37224 4.12713 5.3594C4.12713 5.3594 3.85114 5.3594 3.8383 5.3594C3.82546 5.3594 3.92174 5.39792 3.92816 5.39792C3.92609 5.4364 3.92609 5.47496 3.92816 5.51345C3.89075 5.52205 3.85167 5.51999 3.81537 5.50752C3.77906 5.49504 3.74698 5.47263 3.72277 5.44284C3.72277 5.38508 3.46603 5.47494 3.42752 5.44284C3.38901 5.41075 3.16436 5.64182 3.15152 5.65466C3.13869 5.66749 3.03599 5.99483 2.95255 6.0526C2.66372 6.2259 2.76 6.72654 2.7279 6.97686C2.69581 7.22718 2.90762 7.2336 3.04883 7.15016C3.19003 7.06672 3.16436 7.20793 3.19645 7.15016C3.22854 7.0924 3.29273 7.02821 3.32482 6.95119C3.35691 6.87417 3.69709 6.53399 3.77412 6.72012C3.72198 6.88605 3.65091 7.04542 3.56231 7.19509C3.50454 7.19509 3.47887 7.28495 3.45961 7.41332C3.45961 7.41332 3.31198 7.73424 3.45961 7.62513C3.60724 7.51602 4.05653 7.62513 4.00518 7.74708C3.87039 8.04875 3.76128 8.46595 4.00518 8.72911C4.15281 8.87673 4.26192 8.60716 4.37745 8.65209C4.49299 8.69702 4.65345 8.76762 4.68554 8.92166C4.74973 8.92166 4.9487 8.27982 5.06423 8.45953C5.19582 8.34727 5.34559 8.25828 5.50711 8.19638C5.4686 8.19638 5.46218 8.51088 5.43009 8.54297C5.24395 8.71627 5.63548 8.8318 5.50711 8.58148C5.4365 8.44028 5.50711 8.4146 5.64831 8.37609C5.78952 8.33758 5.64831 8.25414 5.70608 8.2413C5.70608 8.2413 5.8858 8.36967 5.90505 8.38251C6.03342 8.46595 5.90505 8.54297 6.11044 8.49804C6.31584 8.45311 6.38002 8.65851 6.54048 8.49804C6.70094 8.33758 6.78439 8.49804 6.8935 8.4467C6.85775 8.45622 6.82013 8.45622 6.78439 8.4467C6.78439 8.55581 7.09889 8.57507 7.07322 8.68418C7.04754 8.79329 7.15666 8.77404 7.21442 8.79971C7.27219 8.82539 7.35563 8.96017 7.43907 9.05003C7.52251 9.13989 7.73432 9.29394 7.85627 9.2105C7.97822 9.12706 8.49812 9.33886 8.53021 9.51216C8.56231 9.46082 8.80621 9.9743 8.78695 9.99355C8.78695 10.0513 8.91532 10.1925 9.05011 10.231C9.09504 10.4878 9.13997 10.276 9.31969 10.3209C9.44383 10.3466 9.56303 10.3921 9.6727 10.4557C9.71121 10.4942 9.6727 10.6418 9.71121 10.6547C9.74193 10.6313 9.77676 10.6138 9.81391 10.6033C9.86526 10.5327 10.0065 10.6033 10.0578 10.6354C10.1796 10.6451 10.3019 10.6451 10.4237 10.6354C10.6291 10.6354 10.751 10.86 10.9179 10.9627C11.0848 11.0654 11.2067 10.9242 11.2902 11.2066C11.3225 11.2954 11.33 11.3913 11.3119 11.4841C11.2938 11.5768 11.2508 11.6628 11.1875 11.733C11.0363 11.9248 10.8665 12.1011 10.6804 12.2593C10.5135 12.3235 10.6804 13.2092 10.4622 13.3825C10.2439 13.5558 10.2953 13.9409 9.97437 13.8382C9.87492 13.8622 9.77969 13.9011 9.69196 13.9538C9.51811 14.0149 9.35865 14.111 9.22341 14.2362C9.06937 14.3838 9.22341 14.6213 9.04369 14.801C9.04369 14.801 8.72919 15.2054 8.67784 15.2888L8.64575 15.2439C8.5944 15.2888 8.51096 15.3401 8.55589 15.4108C8.55589 15.3594 8.58156 15.3337 8.63291 15.3337C8.67142 15.3337 8.53021 15.5199 8.51096 15.5391C8.4917 15.5584 8.35691 15.5391 8.27347 15.5905C8.19003 15.6418 8.01673 15.507 7.92046 15.4878C7.88837 15.5776 8.16436 15.7317 8.20287 15.8344C8.31198 16.136 7.66372 16.1104 7.56102 16.1168C7.56102 16.1746 7.65088 16.3093 7.63163 16.3607C7.61237 16.412 7.35563 16.3093 7.30428 16.3607C7.25293 16.412 7.43265 16.6174 7.45833 16.6238C7.44003 16.7066 7.41644 16.788 7.38772 16.8677C7.30428 16.8677 7.22084 16.9704 7.3107 17.0346C7.40056 17.0988 7.44549 17.0731 7.50326 17.1117C7.56102 17.1502 7.39414 17.2657 7.44549 17.3556C7.49684 17.4454 7.27219 17.4197 7.50326 17.6315C7.16949 17.6315 7.50326 17.8177 7.50326 17.8177C7.50326 17.8177 7.50326 17.8177 7.50326 17.7535C7.50326 17.6893 7.42623 17.7535 7.40698 17.7535C7.34279 17.6059 7.63804 17.7856 7.63163 17.7856C7.72148 17.8369 7.87553 17.8434 7.94613 17.9011C7.89247 17.9214 7.83635 17.9343 7.77925 17.9396C7.54819 17.8883 7.22726 17.9396 7.03471 17.7214C6.88798 17.6016 6.75065 17.4707 6.62392 17.3299V17.3876ZM7.86911 1.28367C7.86911 1.23874 7.92046 1.2259 8.01673 1.2259C7.9985 1.24658 7.97559 1.26261 7.94991 1.27265C7.92424 1.2827 7.89654 1.28647 7.86911 1.28367ZM7.27219 1.65594C7.25071 1.68168 7.22141 1.69971 7.18875 1.70729C7.19192 1.688 7.2023 1.67063 7.21779 1.65871C7.23329 1.6468 7.25273 1.64121 7.27219 1.6431V1.65594ZM7.17591 1.60459C7.13088 1.63677 7.0772 1.65466 7.02187 1.65594C7.06038 1.59175 7.11173 1.59175 7.17591 1.59175V1.60459ZM7.67014 2.88829C7.75677 2.88657 7.8411 2.9162 7.90762 2.97173C7.8658 2.97072 7.82494 2.95897 7.78897 2.93762C7.753 2.91626 7.72313 2.88601 7.70223 2.84978L7.67014 2.88829ZM7.73432 3.27982C7.63804 3.39535 7.52893 3.23489 7.5546 3.22847C7.58028 3.22205 7.6573 3.28623 7.66372 3.28623L7.73432 3.27982ZM6.91276 8.61358C6.91276 8.61358 6.94485 8.50446 7.01545 8.49804C7.08605 8.49162 6.95768 8.61999 6.91276 8.61358ZM6.41853 7.2336C6.02059 7.03463 6.303 7.5096 6.41853 7.2336ZM4.83958 6.97686C4.74973 6.97686 4.90377 6.90626 4.89093 6.87417C4.82675 6.72654 4.39029 6.69445 4.35178 6.57892C4.36087 6.57616 4.36914 6.5712 4.37586 6.56448C4.38258 6.55777 4.38753 6.5495 4.39029 6.54041C4.24267 6.48264 4.16564 6.66236 4.03086 6.64952C4.30685 6.17455 5.00005 6.72012 5.27604 6.93835L4.83958 6.97686ZM4.92302 7.27853C4.92302 7.34914 4.69196 7.24644 4.6727 7.22077C4.70316 7.20062 4.73888 7.18987 4.7754 7.18987C4.81192 7.18987 4.84764 7.20062 4.8781 7.22077C4.8781 7.22077 4.93586 7.25286 4.93586 7.27853H4.92302ZM4.28118 6.66878C4.28118 6.70729 4.28118 6.72012 4.22983 6.72012C4.17848 6.72012 4.24908 6.61101 4.26834 6.66878H4.28118ZM4.96154 6.37353C4.96154 6.26441 4.88451 6.25799 4.96154 6.1553C4.98421 6.21527 4.98421 6.28146 4.96154 6.34143C4.96154 6.34143 4.93586 6.34785 4.9487 6.37353H4.96154ZM5.49427 7.18225C5.4365 7.0924 5.49427 7.04105 5.37874 7.00896C5.48143 6.88059 5.82803 7.00896 5.93715 7.07956C5.93715 7.07956 5.93715 7.07956 5.89863 7.07956C5.86012 7.07956 6.13612 7.27853 5.98207 7.21435C5.82803 7.15016 5.71892 7.21435 5.60338 7.31062C5.50711 7.17584 5.35306 7.27211 5.22469 7.20793C5.09632 7.14374 5.44292 7.20151 5.48143 7.18225H5.49427ZM7.52893 16.688C7.52893 16.7715 7.37489 16.6431 7.484 16.6303C7.49539 16.6358 7.50535 16.644 7.51314 16.654C7.52092 16.664 7.52632 16.6756 7.52893 16.688ZM12.0219 19.3774C11.5152 19.4886 10.9997 19.5552 10.4814 19.5763C9.48576 19.6381 8.48689 19.5274 7.52893 19.249C7.65665 19.2839 7.7881 19.3033 7.92046 19.3068C7.80492 19.2362 7.6573 19.2618 7.54819 19.1656C7.94613 19.2298 8.3184 19.2041 8.68426 19.249C8.64575 19.1977 8.3184 19.1206 8.3184 19.0821C8.42096 19.0898 8.52394 19.0898 8.62649 19.0821C8.74844 18.9923 8.44035 19.0051 8.46603 18.9345C8.4917 18.8639 8.56231 18.9345 8.58798 18.9345C8.61365 18.9345 8.58798 18.8382 8.58798 18.8061C8.76265 18.7513 8.94411 18.721 9.12713 18.7163C9.06937 18.7548 9.00518 18.7163 9.03086 18.8061C8.98593 18.8061 8.8383 18.8061 8.82546 18.8703C8.81263 18.9345 8.98593 19.0757 8.99234 19.0821C8.99876 19.0885 9.24267 19.2233 9.2555 19.326C9.26834 19.4287 10.1926 19.4801 10.3274 19.4672C10.6676 19.4287 10.9692 19.3068 11.3158 19.249C11.5148 19.2105 11.7138 19.1591 11.9128 19.1399C12.0694 19.0912 12.2308 19.0589 12.3941 19.0436C12.4391 19.2041 13.1579 18.9987 13.3248 19.0436C13.3312 18.9858 12.1117 19.326 11.9898 19.3517L12.0219 19.3774ZM12.9654 2.04747C12.9654 2.04747 12.837 1.92551 12.9012 1.92551C12.907 1.93403 12.9101 1.9441 12.9101 1.9544C12.9101 1.9647 12.907 1.97476 12.9012 1.98328C12.9012 1.98328 12.914 2.02179 12.9333 2.03463L12.9654 2.04747ZM13.1066 2.56736C13.0552 2.5096 13.1066 2.37481 12.959 2.3363L13.0617 2.29779C12.9718 2.0924 13.2735 2.29779 13.312 2.37481C13.4789 2.56736 13.2221 2.68931 13.1066 2.56736ZM13.7484 2.59946C13.7484 2.59946 13.5687 2.56736 13.5495 2.59946C13.5302 2.63155 13.4789 2.43899 13.4789 2.41332C13.4919 2.41958 13.5061 2.42283 13.5206 2.42283C13.535 2.42283 13.5493 2.41958 13.5623 2.41332C13.4738 2.31813 13.3637 2.24551 13.2414 2.20151C13.1323 2.27211 13.0039 1.97686 12.9911 1.93193C13.1708 1.93193 13.2799 2.10523 13.4468 2.18225C13.6137 2.25928 14.0886 2.48392 14.0886 2.63797C14.0886 2.79201 13.7035 2.6829 13.6522 2.77276C13.6201 2.6508 13.7613 2.6508 13.7549 2.61229L13.7484 2.59946ZM18.9859 12.869C18.8383 13.2028 18.7099 13.5109 18.5687 13.8703C18.511 14.0051 18.3826 14.0885 18.3184 14.2233C18.2621 14.3703 18.1819 14.5069 18.0809 14.6277C17.8755 14.8459 17.7343 15.1733 17.4391 15.3081C17.3043 15.3787 17.1246 15.3658 16.9962 15.4749C16.9192 15.3016 17.1246 15.0577 17.1631 14.8909C17.193 14.6292 17.2489 14.3712 17.33 14.1206C17.5161 13.6328 17.33 13.1001 17.5225 12.6315C17.5943 12.4549 17.6779 12.2834 17.7728 12.1181C17.8755 11.9576 17.8306 11.6688 17.8563 11.4762C17.868 11.2053 17.8106 10.9358 17.6894 10.6932C17.6509 10.6226 17.3941 10.2631 17.5097 10.1797C17.6252 10.0962 17.606 9.39663 17.4262 9.31961C17.2465 9.24259 17.1759 9.44798 17.1053 9.31961C17.0347 9.19124 17.0475 9.09496 16.9384 9.0372C16.8293 8.97943 16.2388 9.3517 16.1682 9.31961C16.0432 9.25584 15.8986 9.24207 15.7638 9.2811C15.6098 9.32603 15.5071 9.44798 15.3466 9.37096C15.2627 9.31805 15.1851 9.25559 15.1156 9.18482C14.923 9.0372 14.6791 8.92808 14.6149 8.67134C14.5508 8.4146 14.2812 8.4146 14.2555 8.19638C14.0629 8.35042 14.0822 7.96531 14.0565 7.91396C13.9474 7.70215 13.9795 7.6508 14.0565 7.4069C14.14 6.97044 13.6265 6.57892 14.018 6.18739C14.0886 6.11037 13.9667 5.95632 14.0822 5.89214C14.1097 5.86018 14.1236 5.81868 14.1207 5.77661C14.1207 5.67391 14.3775 5.61614 14.4288 5.48136C14.4801 5.34657 14.3518 5.17327 14.3967 4.99355C14.4416 4.81383 14.5315 4.89085 14.5764 4.80741C14.6214 4.72397 14.5764 4.57635 14.6085 4.55709C14.6406 4.53784 14.9872 4.78816 15.1027 4.55709C15.1669 4.44798 15.3595 4.40305 15.4814 4.36454C15.6661 4.31931 15.8562 4.29987 16.0463 4.30677C16.1104 4.36454 16.3094 4.49291 16.2645 4.64695C16.2196 4.801 16.6111 4.86518 16.7138 4.89727C16.8165 4.92937 16.8742 5.08341 17.0026 5.09625C17.131 5.10908 17.1438 5.16685 17.2144 5.21178C17.285 5.25671 17.054 4.69188 17.2722 4.85234C17.4213 4.96054 17.5887 5.04099 17.7664 5.08983C17.7575 5.06054 17.7575 5.02926 17.7664 4.99997C17.8691 4.96146 17.9654 5.12834 17.8242 4.85876C17.7857 4.79458 17.4968 4.21691 17.4198 4.26184C17.3428 4.30677 17.4519 4.32603 17.4198 4.34528C17.3877 4.36454 17.33 4.23617 17.33 4.26826C17.33 4.30035 17.33 4.31961 17.33 4.33887C17.33 4.35812 16.8101 3.92166 16.7844 3.82539H16.8678C16.8663 3.80918 16.8615 3.79345 16.8538 3.77912C16.8461 3.76479 16.8356 3.75215 16.8229 3.74195C16.8421 3.73922 16.8615 3.73922 16.8807 3.74195C16.8726 3.72487 16.8685 3.70625 16.8685 3.68739C16.8685 3.66853 16.8726 3.6499 16.8807 3.63283C16.9256 3.63283 17.0668 3.74836 17.1374 3.74195C17.017 3.51769 16.8281 3.33778 16.5982 3.22847C16.5982 3.22847 15.873 3.60074 15.873 3.62641C15.873 3.65209 16.457 3.2413 16.4314 3.14503C16.4455 3.16576 16.4648 3.18254 16.4872 3.19377C16.5097 3.205 16.5346 3.21032 16.5597 3.20921C16.5982 3.17712 16.4121 3.01666 16.3993 2.9974C16.3865 3.03705 16.3865 3.0797 16.3993 3.11935C16.3351 3.15786 16.3094 3.11935 16.2516 3.08084C16.3646 3.34299 16.5521 3.56617 16.7908 3.72269C16.7908 3.72269 16.6753 3.79329 16.733 3.79329C16.6303 3.79329 16.6239 3.83822 16.5726 3.83822C16.5726 3.96017 16.7844 4.0051 16.8357 4.08854C16.875 4.16545 16.9093 4.24477 16.9384 4.32603C16.8451 4.27284 16.7589 4.20815 16.6817 4.13347C16.6303 4.13347 16.3993 3.85748 16.3608 3.81255C16.2809 3.69866 16.1724 3.60788 16.0463 3.54939C15.8707 3.42285 15.6862 3.30916 15.4943 3.20921C15.3787 3.16428 15.5456 3.37609 15.5456 3.37609C15.6419 3.45953 15.7574 3.5173 15.8537 3.59432C15.95 3.67134 16.2324 3.73553 16.3672 3.90883C16.3332 3.87406 16.2874 3.85342 16.2388 3.85106C16.2388 3.92808 16.38 4.03078 16.3929 4.13347C16.4057 4.23617 16.4314 4.30035 16.4249 4.32603C16.4185 4.3517 16.1297 4.21691 16.1425 4.17198C16.1554 4.12706 16.4314 4.17198 16.3223 4.04361C16.2231 3.93452 16.1058 3.84332 15.9757 3.77404C15.7579 3.61759 15.5258 3.48219 15.2825 3.36967C15.3338 3.65209 14.923 3.4467 14.9487 3.55581C14.9744 3.66492 15.1348 3.74195 15 3.77404C14.8653 3.80613 14.9294 3.87673 14.9166 3.94092C14.9038 4.0051 15.1156 4.24259 14.9551 4.28752C14.7947 4.33245 15.0578 4.37738 14.7818 4.39021C14.6727 4.39021 14.6406 4.53142 14.5508 4.46082C14.4609 4.39021 14.416 4.38379 14.2619 4.36454C14.1079 4.34528 14.1913 4.36454 14.1656 4.26184C14.14 4.15915 14.0116 4.16557 14.018 4.05003C14.0244 3.9345 13.9217 3.83181 13.8961 3.69702C13.8961 3.69702 13.7228 3.49162 13.8961 3.50446C13.9795 3.50446 14.4481 3.60074 14.493 3.50446C14.6406 3.26698 13.9603 2.95247 13.8511 2.91396C13.9341 2.90128 14.0185 2.90128 14.1015 2.91396C14.1015 2.86261 14.0373 2.84978 14.018 2.81127C13.9988 2.77275 14.3261 2.84978 14.1977 2.70215C14.2036 2.61453 14.2036 2.52661 14.1977 2.43899C14.1977 2.37481 14.3903 2.35555 14.3069 2.30421C14.1679 2.24127 14.0594 2.1259 14.0052 1.98328C14.1271 2.06672 14.3004 2.32988 14.4545 2.31704C14.6085 2.30421 14.647 2.31704 14.6791 2.31704C14.7112 2.31704 14.6791 2.31704 14.846 2.28495C14.846 2.15016 14.6021 2.06672 14.5828 1.9897C14.5636 1.91268 14.6534 2.02179 14.692 2.02821C14.7305 2.03463 14.2619 1.76505 14.493 1.80998C14.57 1.70729 14.3325 1.63026 14.2748 1.61101L14.3967 1.70087C14.1207 1.92551 13.7934 1.28367 13.4789 1.28367C13.4789 1.35427 13.7228 1.51473 13.7805 1.56608C13.8383 1.61743 14.0629 1.67519 14.1721 1.77789C14.2802 1.88094 14.3655 2.00559 14.4224 2.14374C14.371 2.24002 13.941 1.79715 13.9538 1.79715L14.0116 1.89342C13.9538 1.89342 13.8961 1.78431 13.8383 1.8164C13.7805 1.84849 13.9089 1.97044 13.6843 1.89984C13.4596 1.82924 13.2606 1.66878 13.235 1.50189C13.1333 1.32729 12.9981 1.17458 12.837 1.0526C12.9525 0.898557 13.5174 1.10395 13.6714 1.20023C13.7879 1.26995 13.913 1.3239 14.0437 1.36069C14.0437 1.36069 13.864 1.28367 13.864 1.28367C13.864 1.28367 14.1592 1.41845 14.2362 1.45055C14.3133 1.48264 14.5764 1.62385 14.7369 1.72012C15.0793 1.91684 15.4114 2.13108 15.7318 2.36197C17.0801 3.37271 18.1383 4.72093 18.7998 6.27083C18.9234 6.56057 19.0264 6.85871 19.1079 7.163C19.1859 7.32144 19.2317 7.49379 19.2427 7.67006C19.3004 7.88187 19.3518 8.09368 19.416 8.31191C19.5625 9.10852 19.5776 9.92374 19.4609 10.7253C19.4009 11.4617 19.2433 12.1869 18.9923 12.8819L18.9859 12.869ZM15.2504 4.02436H15.1862C15.1092 3.99227 15.3274 3.92166 15.2504 4.02436ZM15.4686 3.58148C15.5135 3.58148 15.5841 3.71627 15.5905 3.72911C15.5905 3.72911 15.4044 3.63283 15.4686 3.58148ZM15.6226 3.77404C15.6804 3.77404 15.8216 3.98585 15.7959 4.02436C15.7703 4.06287 15.6226 3.85106 15.552 3.85106L15.6226 3.77404ZM17.1952 4.53142C17.1631 4.53142 17.0989 4.53142 17.0861 4.46082C17.0732 4.39021 17.1952 4.46082 17.2529 4.51216C17.3107 4.56351 17.2144 4.51216 17.1952 4.51216V4.53142ZM17.5289 4.44156C17.545 4.45301 17.5577 4.46861 17.5656 4.4867C17.5735 4.50478 17.5764 4.52468 17.5739 4.54426C17.5633 4.54167 17.5535 4.53669 17.5453 4.52971C17.537 4.52272 17.5304 4.51393 17.526 4.504C17.5217 4.49407 17.5197 4.48327 17.5202 4.47244C17.5207 4.46162 17.5237 4.45105 17.5289 4.44156Z" fill="white"/>
</svg>
