<svg width="22" height="16" viewBox="0 0 22 16" fill="none" xmlns="http://www.w3.org/2000/svg">
<path d="M6.78571 14.4C6.78571 14.3176 6.81796 14.2403 6.87257 14.1847C6.92687 14.1294 6.99859 14.1 7.07143 14.1H21.2143C21.2871 14.1 21.3588 14.1294 21.4131 14.1847C21.4677 14.2403 21.5 14.3176 21.5 14.4C21.5 14.4824 21.4677 14.5597 21.4131 14.6153C21.3588 14.6706 21.2871 14.7 21.2143 14.7H7.07143C6.99859 14.7 6.92687 14.6706 6.87257 14.6153C6.81796 14.5597 6.78571 14.4824 6.78571 14.4ZM6.78571 8C6.78571 7.91756 6.81796 7.84027 6.87257 7.78467C6.92687 7.72938 6.99859 7.7 7.07143 7.7H21.2143C21.2871 7.7 21.3588 7.72938 21.4131 7.78467C21.4677 7.84027 21.5 7.91756 21.5 8C21.5 8.08244 21.4677 8.15973 21.4131 8.21533C21.3588 8.27062 21.2871 8.3 21.2143 8.3H7.07143C6.99859 8.3 6.92687 8.27062 6.87257 8.21533C6.81796 8.15973 6.78571 8.08244 6.78571 8ZM6.78571 1.6C6.78571 1.51756 6.81796 1.44027 6.87257 1.38467C6.92687 1.32938 6.99859 1.3 7.07143 1.3H21.2143C21.2871 1.3 21.3588 1.32938 21.4131 1.38467C21.4677 1.44027 21.5 1.51756 21.5 1.6C21.5 1.68244 21.4677 1.75973 21.4131 1.81533C21.3588 1.87062 21.2871 1.9 21.2143 1.9H7.07143C6.99859 1.9 6.92687 1.87062 6.87257 1.81533C6.81796 1.75973 6.78571 1.68244 6.78571 1.6ZM2.32587 2.38102C2.12422 2.58634 1.85265 2.7 1.57143 2.7C1.29021 2.7 1.01864 2.58634 0.816985 2.38102C0.61503 2.17539 0.5 1.89462 0.5 1.6C0.5 1.30538 0.615031 1.02461 0.816985 0.818983C1.01864 0.613662 1.2902 0.5 1.57143 0.5C1.85265 0.5 2.12422 0.613662 2.32587 0.818983C2.52783 1.02461 2.64286 1.30538 2.64286 1.6C2.64286 1.89462 2.52783 2.17539 2.32587 2.38102ZM2.32587 8.78102C2.12422 8.98634 1.85265 9.1 1.57143 9.1C1.29021 9.1 1.01864 8.98634 0.816985 8.78102C0.61503 8.57539 0.5 8.29462 0.5 8C0.5 7.70538 0.61503 7.42461 0.816985 7.21898C1.01864 7.01366 1.29021 6.9 1.57143 6.9C1.85265 6.9 2.12422 7.01366 2.32587 7.21898C2.52783 7.42461 2.64286 7.70538 2.64286 8C2.64286 8.29462 2.52783 8.57539 2.32587 8.78102ZM2.32587 15.181C2.12422 15.3863 1.85265 15.5 1.57143 15.5C1.29021 15.5 1.01864 15.3863 0.816985 15.181C0.61503 14.9754 0.5 14.6946 0.5 14.4C0.5 14.1054 0.61503 13.8246 0.816985 13.619C1.01864 13.4137 1.29021 13.3 1.57143 13.3C1.85265 13.3 2.12422 13.4137 2.32587 13.619C2.52783 13.8246 2.64286 14.1054 2.64286 14.4C2.64286 14.6946 2.52783 14.9754 2.32587 15.181Z" fill="black" stroke="white"/>
</svg>
