<svg width="25" height="27" viewBox="0 0 25 27" fill="none" xmlns="http://www.w3.org/2000/svg">
<path d="M2.16607 10.4622C1.96103 10.4622 1.79444 10.3031 1.79444 10.1073C1.79444 9.91139 1.96103 9.75225 2.16607 9.75225C2.3711 9.75225 2.53769 9.91139 2.53769 10.1073C2.53769 10.3031 2.3711 10.4622 2.16607 10.4622Z" fill="white"/>
<path d="M2.16607 11.015C1.96103 11.015 1.79444 10.8559 1.79444 10.66C1.79444 10.4642 1.96103 10.305 2.16607 10.305C2.3711 10.305 2.53769 10.4642 2.53769 10.66C2.53769 10.8559 2.3711 11.015 2.16607 11.015Z" fill="white"/>
<path d="M2.16607 11.5678C1.96103 11.5678 1.79444 11.4087 1.79444 11.2128C1.79444 11.0169 1.96103 10.8578 2.16607 10.8578C2.3711 10.8578 2.53769 11.0169 2.53769 11.2128C2.53769 11.4087 2.3711 11.5678 2.16607 11.5678Z" fill="white"/>
<path d="M2.16607 12.1257C1.96103 12.1257 1.79444 11.9665 1.79444 11.7707C1.79444 11.5748 1.96103 11.4157 2.16607 11.4157C2.3711 11.4157 2.53769 11.5748 2.53769 11.7707C2.53769 11.9665 2.3711 12.1257 2.16607 12.1257Z" fill="white"/>
<path d="M2.16607 12.6784C1.96103 12.6784 1.79444 12.5193 1.79444 12.3234C1.79444 12.1276 1.96103 11.9684 2.16607 11.9684C2.3711 11.9684 2.53769 12.1276 2.53769 12.3234C2.53769 12.5193 2.3711 12.6784 2.16607 12.6784Z" fill="white"/>
<path d="M2.16607 13.2312C1.96103 13.2312 1.79444 13.0721 1.79444 12.8762C1.79444 12.6804 1.96103 12.5212 2.16607 12.5212C2.3711 12.5212 2.53769 12.6804 2.53769 12.8762C2.53769 13.0721 2.3711 13.2312 2.16607 13.2312Z" fill="white"/>
<path d="M2.16607 13.784C1.96103 13.784 1.79444 13.6249 1.79444 13.429C1.79444 13.2331 1.96103 13.074 2.16607 13.074C2.3711 13.074 2.53769 13.2331 2.53769 13.429C2.53769 13.6249 2.3711 13.784 2.16607 13.784Z" fill="white"/>
<path d="M2.16607 14.3368C1.96103 14.3368 1.79444 14.1776 1.79444 13.9818C1.79444 13.7859 1.96103 13.6268 2.16607 13.6268C2.3711 13.6268 2.53769 13.7859 2.53769 13.9818C2.53769 14.1776 2.3711 14.3368 2.16607 14.3368Z" fill="white"/>
<path d="M2.16607 14.8896C1.96103 14.8896 1.79444 14.7304 1.79444 14.5346C1.79444 14.3387 1.96103 14.1796 2.16607 14.1796C2.3711 14.1796 2.53769 14.3387 2.53769 14.5346C2.53769 14.7304 2.3711 14.8896 2.16607 14.8896Z" fill="white"/>
<path d="M2.16607 15.4423C1.96103 15.4423 1.79444 15.2832 1.79444 15.0873C1.79444 14.8915 1.96103 14.7323 2.16607 14.7323C2.3711 14.7323 2.53769 14.8915 2.53769 15.0873C2.53769 15.2832 2.3711 15.4423 2.16607 15.4423Z" fill="white"/>
<path d="M2.16607 16.0002C1.96103 16.0002 1.79444 15.8411 1.79444 15.6452C1.79444 15.4493 1.96103 15.2902 2.16607 15.2902C2.3711 15.2902 2.53769 15.4493 2.53769 15.6452C2.53769 15.8411 2.3711 16.0002 2.16607 16.0002Z" fill="white"/>
<path d="M2.16607 16.553C1.96103 16.553 1.79444 16.3938 1.79444 16.198C1.79444 16.0021 1.96103 15.843 2.16607 15.843C2.3711 15.843 2.53769 16.0021 2.53769 16.198C2.53769 16.3938 2.3711 16.553 2.16607 16.553Z" fill="white"/>
<path d="M2.16607 17.1057C1.96103 17.1057 1.79444 16.9466 1.79444 16.7508C1.79444 16.5549 1.96103 16.3958 2.16607 16.3958C2.3711 16.3958 2.53769 16.5549 2.53769 16.7508C2.53769 16.9466 2.3711 17.1057 2.16607 17.1057Z" fill="white"/>
<path d="M2.16607 17.6585C1.96103 17.6585 1.79444 17.4994 1.79444 17.3035C1.79444 17.1077 1.96103 16.9485 2.16607 16.9485C2.3711 16.9485 2.53769 17.1077 2.53769 17.3035C2.53769 17.4994 2.3711 17.6585 2.16607 17.6585Z" fill="white"/>
<path d="M12.7203 4.63016C12.5153 4.63016 12.3487 4.47103 12.3487 4.27517C12.3487 4.07931 12.5153 3.92017 12.7203 3.92017C12.9253 3.92017 13.0919 4.07931 13.0919 4.27517C13.0919 4.47103 12.9253 4.63016 12.7203 4.63016Z" fill="white"/>
<path d="M12.7203 5.18295C12.5153 5.18295 12.3487 5.02381 12.3487 4.82795C12.3487 4.63209 12.5153 4.47295 12.7203 4.47295C12.9253 4.47295 13.0919 4.63209 13.0919 4.82795C13.0919 5.02381 12.9253 5.18295 12.7203 5.18295Z" fill="white"/>
<path d="M12.7203 5.73572C12.5153 5.73572 12.3487 5.57659 12.3487 5.38073C12.3487 5.18487 12.5153 5.02573 12.7203 5.02573C12.9253 5.02573 13.0919 5.18487 13.0919 5.38073C13.0919 5.57659 12.9253 5.73572 12.7203 5.73572Z" fill="white"/>
<path d="M12.7203 6.28851C12.5153 6.28851 12.3487 6.12937 12.3487 5.93351C12.3487 5.73765 12.5153 5.57851 12.7203 5.57851C12.9253 5.57851 13.0919 5.73765 13.0919 5.93351C13.0919 6.12937 12.9253 6.28851 12.7203 6.28851Z" fill="white"/>
<path d="M12.7203 6.84128C12.5153 6.84128 12.3487 6.68215 12.3487 6.48629C12.3487 6.29043 12.5153 6.13129 12.7203 6.13129C12.9253 6.13129 13.0919 6.29043 13.0919 6.48629C13.0919 6.69439 12.9253 6.84128 12.7203 6.84128Z" fill="white"/>
<path d="M12.7203 7.39914C12.5153 7.39914 12.3487 7.24 12.3487 7.04414C12.3487 6.84828 12.5153 6.68914 12.7203 6.68914C12.9253 6.68914 13.0919 6.84828 13.0919 7.04414C13.0919 7.24 12.9253 7.39914 12.7203 7.39914Z" fill="white"/>
<path d="M12.7203 7.95192C12.9256 7.95192 13.0919 7.79298 13.0919 7.59692C13.0919 7.40086 12.9256 7.24192 12.7203 7.24192C12.5151 7.24192 12.3487 7.40086 12.3487 7.59692C12.3487 7.79298 12.5151 7.95192 12.7203 7.95192Z" fill="white"/>
<path d="M4.16071 9.35161C4.09721 9.35161 4.03371 9.33916 3.98291 9.30179C3.8051 9.20214 3.74159 8.97794 3.8559 8.81601C3.9194 8.7039 4.04641 8.64162 4.17341 8.64162C4.23692 8.64162 4.30042 8.65408 4.35122 8.69145C4.44013 8.74127 4.49093 8.81601 4.52903 8.9032C4.55443 8.99039 4.54173 9.09004 4.49093 9.17723C4.41472 9.27688 4.28772 9.35161 4.16071 9.35161Z" fill="white"/>
<path d="M4.66507 9.62547C4.60156 9.62547 4.53806 9.61301 4.48726 9.57565C4.30945 9.476 4.24595 9.25179 4.36025 9.08986C4.42376 8.97776 4.55076 8.91548 4.67777 8.91548C4.74127 8.91548 4.80477 8.92793 4.85558 8.9653C4.94448 9.01513 4.99528 9.08986 5.03338 9.17705C5.05878 9.26425 5.04608 9.36389 4.99528 9.45109C4.90638 9.56319 4.79207 9.62547 4.66507 9.62547Z" fill="white"/>
<path d="M5.17212 9.89932C5.10784 9.89932 5.04357 9.88708 4.99215 9.85036C4.90216 9.80139 4.85074 9.72795 4.81218 9.63002C4.78647 9.54433 4.79932 9.4464 4.85074 9.36071C4.91502 9.25054 5.04357 9.18933 5.17212 9.18933C5.2364 9.18933 5.30067 9.20157 5.35209 9.2383C5.53206 9.33623 5.59634 9.55657 5.4935 9.71571C5.42922 9.82588 5.30067 9.89932 5.17212 9.89932Z" fill="white"/>
<path d="M5.67172 10.1681C5.60695 10.1681 5.54218 10.1561 5.49036 10.12C5.39968 10.0718 5.34786 9.99963 5.32195 9.90336C5.29604 9.81913 5.30899 9.72286 5.36081 9.63862C5.42559 9.53032 5.55513 9.45811 5.68468 9.45811C5.74945 9.45811 5.81422 9.47015 5.86604 9.50625C6.04741 9.60252 6.09923 9.81913 6.00854 9.97557C5.91786 10.1079 5.80127 10.1681 5.67172 10.1681Z" fill="white"/>
<path d="M6.17076 10.4521C6.10598 10.4521 6.04121 10.4399 5.98939 10.4031C5.89871 10.3542 5.84689 10.2807 5.82098 10.1828C5.79507 10.0971 5.80803 9.99918 5.85985 9.91349C5.92462 9.80332 6.05417 9.74211 6.18371 9.74211C6.24849 9.74211 6.31326 9.75435 6.36508 9.79108C6.54644 9.88901 6.59826 10.1093 6.50758 10.2685C6.42985 10.3787 6.3003 10.4521 6.17076 10.4521Z" fill="white"/>
<path d="M6.68448 10.7361C6.61856 10.7361 6.55264 10.7236 6.4999 10.6863C6.31532 10.5866 6.26258 10.3624 6.35487 10.2005C6.42079 10.0884 6.55264 10.0261 6.68448 10.0261C6.7504 10.0261 6.81633 10.0386 6.86907 10.0759C6.96136 10.1258 7.01409 10.2005 7.04046 10.2877C7.06683 10.3749 7.05365 10.4745 7.00091 10.5617C6.94817 10.6614 6.81633 10.7361 6.68448 10.7361Z" fill="white"/>
<path d="M7.17137 10.9998C7.10709 10.9998 7.04282 10.9878 6.9914 10.9517C6.90141 10.9035 6.84999 10.8313 6.82428 10.7351C6.79857 10.6508 6.81142 10.5546 6.86284 10.4703C6.92712 10.362 7.05567 10.2898 7.18422 10.2898C7.2485 10.2898 7.31278 10.3019 7.3642 10.338C7.54417 10.4342 7.60844 10.6508 7.5056 10.8073C7.42847 10.9396 7.29992 10.9998 7.17137 10.9998Z" fill="white"/>
<path d="M12.7203 20.1689C12.5153 20.1689 12.3487 20.0097 12.3487 19.8139C12.3487 19.618 12.5153 19.4589 12.7203 19.4589C12.9253 19.4589 13.0919 19.618 13.0919 19.8139C13.0919 20.0097 12.9253 20.1689 12.7203 20.1689Z" fill="white"/>
<path d="M12.7203 20.7216C12.5153 20.7216 12.3487 20.5625 12.3487 20.3666C12.3487 20.1708 12.5153 20.0116 12.7203 20.0116C12.9253 20.0116 13.0919 20.1708 13.0919 20.3666C13.0919 20.5625 12.9253 20.7216 12.7203 20.7216Z" fill="white"/>
<path d="M12.7203 21.2744C12.5153 21.2744 12.3487 21.1153 12.3487 20.9194C12.3487 20.7236 12.5153 20.5644 12.7203 20.5644C12.9253 20.5644 13.0919 20.7236 13.0919 20.9194C13.0919 21.1275 12.9253 21.2744 12.7203 21.2744Z" fill="white"/>
<path d="M12.7203 21.8323C12.5153 21.8323 12.3487 21.6731 12.3487 21.4773C12.3487 21.2814 12.5153 21.1223 12.7203 21.1223C12.9253 21.1223 13.0919 21.2814 13.0919 21.4773C13.0919 21.6731 12.9253 21.8323 12.7203 21.8323Z" fill="white"/>
<path d="M12.7203 22.385C12.5153 22.385 12.3487 22.2259 12.3487 22.0301C12.3487 21.8342 12.5153 21.6751 12.7203 21.6751C12.9253 21.6751 13.0919 21.8342 13.0919 22.0301C13.0919 22.2259 12.9253 22.385 12.7203 22.385Z" fill="white"/>
<path d="M12.7203 22.9378C12.5153 22.9378 12.3487 22.7787 12.3487 22.5828C12.3487 22.387 12.5153 22.2278 12.7203 22.2278C12.9253 22.2278 13.0919 22.387 13.0919 22.5828C13.0919 22.7787 12.9253 22.9378 12.7203 22.9378Z" fill="white"/>
<path d="M12.7203 23.4906C12.5153 23.4906 12.3487 23.3315 12.3487 23.1356C12.3487 22.9398 12.5153 22.7806 12.7203 22.7806C12.9253 22.7806 13.0919 22.9398 13.0919 23.1356C13.0919 23.3315 12.9253 23.4906 12.7203 23.4906Z" fill="white"/>
<path d="M18.2641 17.121C18.1989 17.121 18.1337 17.1085 18.0816 17.0711C17.9903 17.0213 17.9381 16.9466 17.899 16.8594C17.8729 16.7722 17.886 16.6725 17.9381 16.5854C18.0033 16.4732 18.1337 16.411 18.2641 16.411C18.3293 16.411 18.3945 16.4234 18.4467 16.4608C18.5379 16.5106 18.5901 16.5854 18.6162 16.685C18.6423 16.7722 18.6292 16.8718 18.5771 16.959C18.5249 17.0462 18.3945 17.121 18.2641 17.121Z" fill="white"/>
<path d="M18.753 17.3948C18.6883 17.3948 18.6235 17.3824 18.5717 17.345C18.481 17.2952 18.4292 17.2204 18.4033 17.1332C18.3774 17.046 18.3903 16.9464 18.4421 16.8592C18.5069 16.7471 18.6365 16.6848 18.766 16.6848C18.8308 16.6848 18.8955 16.6973 18.9474 16.7346C19.1287 16.8343 19.1805 17.0585 19.0899 17.2204C19.0121 17.3325 18.8955 17.3948 18.753 17.3948Z" fill="white"/>
<path d="M19.2574 17.6737C19.1926 17.6737 19.1279 17.6613 19.076 17.6239C18.9853 17.5741 18.9335 17.4994 18.9076 17.4122C18.8817 17.325 18.8947 17.2253 18.9465 17.1381C19.0113 17.026 19.1408 16.9637 19.2704 16.9637C19.3351 16.9637 19.3999 16.9762 19.4517 17.0136C19.6331 17.1132 19.6849 17.3374 19.5942 17.4994C19.5165 17.6115 19.3869 17.6737 19.2574 17.6737Z" fill="white"/>
<path d="M19.7537 17.9527C19.6894 17.9527 19.6251 17.9402 19.5737 17.9028C19.4837 17.853 19.4323 17.7783 19.4066 17.6911C19.3809 17.6039 19.3937 17.5043 19.4451 17.4171C19.5094 17.305 19.638 17.2427 19.7665 17.2427C19.8308 17.2427 19.8951 17.2551 19.9465 17.2925C20.1265 17.3921 20.1907 17.6164 20.0879 17.7783C20.0108 17.8779 19.8951 17.9527 19.7537 17.9527Z" fill="white"/>
<path d="M20.258 18.2265C20.1937 18.2265 20.1295 18.2141 20.078 18.1767C19.9881 18.1269 19.9366 18.0521 19.9109 17.9649C19.8852 17.8778 19.8981 17.7781 19.9495 17.6909C20.0138 17.5788 20.1423 17.5165 20.2709 17.5165C20.3351 17.5165 20.3994 17.529 20.4508 17.5664C20.6308 17.666 20.6951 17.8902 20.5922 18.0521C20.5151 18.1642 20.3866 18.2265 20.258 18.2265Z" fill="white"/>
<path d="M20.7697 18.5054C20.7052 18.5054 20.6407 18.493 20.5892 18.4556C20.4086 18.356 20.3441 18.1318 20.4473 17.9698C20.5118 17.8577 20.6407 17.7955 20.7697 17.7955C20.8342 17.7955 20.8987 17.8079 20.9502 17.8453C21.1308 17.9449 21.1953 18.1691 21.0921 18.3311C21.0147 18.4307 20.8987 18.5054 20.7697 18.5054Z" fill="white"/>
<path d="M21.2688 18.7793C21.2043 18.7793 21.1398 18.7668 21.0882 18.7295C20.9077 18.6298 20.8432 18.4056 20.9464 18.2437C21.0108 18.1316 21.1398 18.0693 21.2688 18.0693C21.3332 18.0693 21.3977 18.0818 21.4493 18.1191C21.6298 18.2188 21.6943 18.443 21.5912 18.6049C21.5267 18.717 21.3977 18.7793 21.2688 18.7793Z" fill="white"/>
<path d="M18.2576 11.01C18.1294 11.01 18.0013 10.9477 17.9372 10.8356C17.886 10.7484 17.8731 10.6612 17.8988 10.5615C17.9244 10.4743 17.9885 10.3872 18.0782 10.3498C18.1294 10.3249 18.1935 10.3 18.2576 10.3C18.3857 10.3 18.5139 10.3622 18.578 10.4743C18.6292 10.5615 18.642 10.6487 18.6164 10.7484C18.5908 10.8356 18.5267 10.9228 18.4498 10.9601C18.3857 10.9975 18.3217 11.01 18.2576 11.01Z" fill="white"/>
<path d="M18.7644 10.7361C18.6336 10.7361 18.5027 10.6738 18.4373 10.5617C18.385 10.4745 18.3719 10.3873 18.3981 10.2877C18.4243 10.2005 18.4897 10.1133 18.5681 10.0759C18.6205 10.051 18.6859 10.0261 18.7513 10.0261C18.8821 10.0261 19.0129 10.0884 19.0783 10.2005C19.183 10.3749 19.1176 10.5866 18.9344 10.6863C18.9083 10.7112 18.8429 10.7361 18.7644 10.7361Z" fill="white"/>
<path d="M19.2687 10.4572C19.1379 10.4572 19.0071 10.3949 18.9417 10.2828C18.8894 10.1956 18.8763 10.096 18.9024 10.0088C18.9286 9.92157 18.994 9.83437 19.0725 9.79701C19.1248 9.77209 19.1902 9.74718 19.2556 9.74718C19.3865 9.74718 19.5173 9.80946 19.5827 9.92157C19.6873 10.096 19.6219 10.3077 19.4388 10.4074C19.3995 10.4447 19.3341 10.4572 19.2687 10.4572Z" fill="white"/>
<path d="M19.7678 10.1782C19.637 10.1782 19.5061 10.116 19.4407 10.0039C19.3884 9.91667 19.3753 9.82948 19.4015 9.72983C19.4276 9.64264 19.4931 9.55545 19.5715 9.51808C19.6239 9.49317 19.6893 9.46826 19.7547 9.46826C19.8855 9.46826 20.0163 9.53054 20.0817 9.64264C20.1864 9.81702 20.121 10.0288 19.9378 10.1284C19.9117 10.1658 19.8332 10.1782 19.7678 10.1782Z" fill="white"/>
<path d="M20.2721 9.9044C20.1413 9.9044 20.0105 9.84212 19.9451 9.73001C19.8928 9.64282 19.8797 9.55563 19.9058 9.45598C19.932 9.36879 19.9974 9.28159 20.0759 9.24423C20.1282 9.21931 20.1936 9.1944 20.259 9.1944C20.3899 9.1944 20.5207 9.25668 20.5861 9.36879C20.6907 9.54317 20.6253 9.75492 20.4422 9.85457C20.4029 9.89194 20.3375 9.9044 20.2721 9.9044Z" fill="white"/>
<path d="M20.7697 9.62547C20.6407 9.62547 20.5118 9.56319 20.4473 9.45109C20.3441 9.2767 20.4086 9.06495 20.5892 8.9653C20.6407 8.92793 20.7052 8.91548 20.7697 8.91548C20.8987 8.91548 21.0276 8.97776 21.0921 9.08986C21.1953 9.26425 21.1308 9.476 20.9502 9.57565C20.8987 9.61301 20.8213 9.62547 20.7697 9.62547Z" fill="white"/>
<path d="M21.2688 9.35161C21.1398 9.35161 21.0108 9.28934 20.9464 9.17723C20.8432 9.00285 20.9077 8.7911 21.0882 8.69145C21.1398 8.66654 21.2043 8.64162 21.2688 8.64162C21.3977 8.64162 21.5267 8.7039 21.5912 8.81601C21.6943 8.99039 21.6298 9.20214 21.4493 9.30179C21.3977 9.3267 21.3332 9.35161 21.2688 9.35161Z" fill="white"/>
<path d="M4.17391 18.7793C4.04318 18.7793 3.91245 18.717 3.84708 18.6049C3.74249 18.4305 3.80786 18.2188 3.97781 18.1191C4.03011 18.0818 4.09547 18.0693 4.16084 18.0693C4.29157 18.0693 4.42231 18.144 4.48767 18.2437C4.53997 18.3309 4.55304 18.4181 4.52689 18.5177C4.50075 18.6049 4.43538 18.6921 4.34387 18.7295C4.30465 18.7668 4.23928 18.7793 4.17391 18.7793Z" fill="white"/>
<path d="M4.6717 18.5004C4.54315 18.5004 4.4146 18.4269 4.35032 18.3168C4.24748 18.1454 4.31176 17.9373 4.49173 17.8393C4.54315 17.8026 4.60743 17.7904 4.6717 17.7904C4.80025 17.7904 4.9288 17.8516 4.99308 17.9618C5.0445 18.0475 5.05735 18.1331 5.03164 18.2311C5.00593 18.3168 4.94166 18.4024 4.85167 18.4392C4.80025 18.4759 4.73598 18.5004 4.6717 18.5004Z" fill="white"/>
<path d="M5.17095 18.2215C5.0428 18.2215 4.91465 18.1602 4.85058 18.0501C4.79932 17.9644 4.78651 17.8787 4.81214 17.7808C4.83776 17.6951 4.90184 17.6094 4.99154 17.5604C5.0428 17.5237 5.10688 17.5115 5.17095 17.5115C5.2991 17.5115 5.42725 17.5849 5.49132 17.6828C5.54258 17.7685 5.55539 17.8542 5.52976 17.9521C5.50413 18.0378 5.44006 18.1235 5.36317 18.1602C5.2991 18.2092 5.23502 18.2215 5.17095 18.2215Z" fill="white"/>
<path d="M5.68303 17.9476C5.55222 17.9476 5.42141 17.8864 5.356 17.7762C5.30367 17.6905 5.29059 17.6048 5.31676 17.5069C5.34292 17.4212 5.40833 17.3355 5.48681 17.2866C5.53914 17.2498 5.60455 17.2376 5.66995 17.2376C5.80077 17.2376 5.93158 17.2988 5.99699 17.409C6.10164 17.5804 6.03623 17.7885 5.85309 17.8864C5.81385 17.9231 5.74844 17.9476 5.68303 17.9476Z" fill="white"/>
<path d="M6.17414 17.6737C6.04558 17.6737 5.91703 17.6115 5.85276 17.4994C5.74992 17.325 5.81419 17.1132 5.99416 17.0136C6.04559 16.9762 6.10986 16.9637 6.17414 16.9637C6.30269 16.9637 6.43124 17.026 6.49551 17.1381C6.54693 17.2253 6.55979 17.3125 6.53408 17.4122C6.50837 17.4994 6.44409 17.5865 6.36696 17.6364C6.30269 17.6613 6.23841 17.6737 6.17414 17.6737Z" fill="white"/>
<path d="M6.67966 17.3948C6.5507 17.3948 6.42174 17.3325 6.35727 17.2204C6.2541 17.046 6.31858 16.8343 6.49912 16.7346C6.5507 16.6973 6.61518 16.6848 6.67966 16.6848C6.80862 16.6848 6.93757 16.7471 7.00205 16.8592C7.10522 17.0336 7.04074 17.2453 6.8602 17.345C6.80862 17.3824 6.74414 17.3948 6.67966 17.3948Z" fill="white"/>
<path d="M7.18548 17.1159C7.05466 17.1159 6.92385 17.0547 6.85844 16.9445C6.80612 16.8588 6.79303 16.7731 6.8192 16.6752C6.84536 16.5895 6.91077 16.5038 6.98925 16.4549C7.04158 16.4181 7.10699 16.4059 7.17239 16.4059C7.30321 16.4059 7.43402 16.4671 7.49943 16.5773C7.60408 16.7487 7.53867 16.9568 7.35553 17.0547C7.31629 17.0914 7.25088 17.1159 7.18548 17.1159Z" fill="white"/>
<path d="M23.2693 10.4622C23.0642 10.4622 22.8976 10.3031 22.8976 10.1073C22.8976 9.91139 23.0642 9.75225 23.2693 9.75225C23.4743 9.75225 23.6409 9.91139 23.6409 10.1073C23.6409 10.3031 23.4743 10.4622 23.2693 10.4622Z" fill="white"/>
<path d="M23.2693 11.015C23.0642 11.015 22.8976 10.8559 22.8976 10.66C22.8976 10.4642 23.0642 10.305 23.2693 10.305C23.4743 10.305 23.6409 10.4642 23.6409 10.66C23.6409 10.8559 23.4743 11.015 23.2693 11.015Z" fill="white"/>
<path d="M23.2693 11.5678C23.0642 11.5678 22.8976 11.4087 22.8976 11.2128C22.8976 11.0169 23.0642 10.8578 23.2693 10.8578C23.4743 10.8578 23.6409 11.0169 23.6409 11.2128C23.6409 11.4087 23.4743 11.5678 23.2693 11.5678Z" fill="white"/>
<path d="M23.2693 12.1206C23.0642 12.1206 22.8976 11.9614 22.8976 11.7656C22.8976 11.5697 23.0642 11.4106 23.2693 11.4106C23.4743 11.4106 23.6409 11.5697 23.6409 11.7656C23.6409 11.9614 23.4743 12.1206 23.2693 12.1206Z" fill="white"/>
<path d="M23.2693 12.6784C23.0642 12.6784 22.8976 12.5193 22.8976 12.3234C22.8976 12.1276 23.0642 11.9684 23.2693 11.9684C23.4743 11.9684 23.6409 12.1276 23.6409 12.3234C23.6409 12.5193 23.4743 12.6784 23.2693 12.6784Z" fill="white"/>
<path d="M23.2693 13.2312C23.0642 13.2312 22.8976 13.0721 22.8976 12.8762C22.8976 12.6804 23.0642 12.5212 23.2693 12.5212C23.4743 12.5212 23.6409 12.6804 23.6409 12.8762C23.6409 13.0721 23.4743 13.2312 23.2693 13.2312Z" fill="white"/>
<path d="M23.2693 13.784C23.0642 13.784 22.8976 13.6249 22.8976 13.429C22.8976 13.2331 23.0642 13.074 23.2693 13.074C23.4743 13.074 23.6409 13.2331 23.6409 13.429C23.6409 13.6249 23.4743 13.784 23.2693 13.784Z" fill="white"/>
<path d="M23.2693 14.3368C23.0642 14.3368 22.8976 14.1776 22.8976 13.9818C22.8976 13.7859 23.0642 13.6268 23.2693 13.6268C23.4743 13.6268 23.6409 13.7859 23.6409 13.9818C23.6409 14.1776 23.4743 14.3368 23.2693 14.3368Z" fill="white"/>
<path d="M23.2693 14.8896C23.0642 14.8896 22.8976 14.7304 22.8976 14.5346C22.8976 14.3387 23.0642 14.1796 23.2693 14.1796C23.4743 14.1796 23.6409 14.3387 23.6409 14.5346C23.6409 14.7304 23.4743 14.8896 23.2693 14.8896Z" fill="white"/>
<path d="M23.2693 15.4423C23.0642 15.4423 22.8976 15.2832 22.8976 15.0873C22.8976 14.8915 23.0642 14.7323 23.2693 14.7323C23.4743 14.7323 23.6409 14.8915 23.6409 15.0873C23.6409 15.2832 23.4743 15.4423 23.2693 15.4423Z" fill="white"/>
<path d="M23.2693 15.9951C23.0642 15.9951 22.8976 15.836 22.8976 15.6401C22.8976 15.4443 23.0642 15.2851 23.2693 15.2851C23.4743 15.2851 23.6409 15.4443 23.6409 15.6401C23.6409 15.836 23.4743 15.9951 23.2693 15.9951Z" fill="white"/>
<path d="M23.2693 16.553C23.0642 16.553 22.8976 16.3938 22.8976 16.198C22.8976 16.0021 23.0642 15.843 23.2693 15.843C23.4743 15.843 23.6409 16.0021 23.6409 16.198C23.6409 16.3938 23.4743 16.553 23.2693 16.553Z" fill="white"/>
<path d="M23.2693 17.1057C23.0642 17.1057 22.8976 16.9466 22.8976 16.7508C22.8976 16.5549 23.0642 16.3958 23.2693 16.3958C23.4743 16.3958 23.6409 16.5549 23.6409 16.7508C23.6409 16.9466 23.4743 17.1057 23.2693 17.1057Z" fill="white"/>
<path d="M23.2693 17.6585C23.0642 17.6585 22.8976 17.4994 22.8976 17.3035C22.8976 17.1077 23.0642 16.9485 23.2693 16.9485C23.4743 16.9485 23.6409 17.1077 23.6409 17.3035C23.6409 17.4994 23.4743 17.6585 23.2693 17.6585Z" fill="white"/>
<path d="M10.7106 3.53475C10.5798 3.53475 10.449 3.4613 10.3836 3.36337C10.3313 3.27768 10.3182 3.19199 10.3444 3.09406C10.3705 3.00837 10.4359 2.92269 10.5144 2.87372C10.5667 2.84924 10.6321 2.82476 10.6975 2.82476C10.8284 2.82476 10.9592 2.88596 11.0246 2.99613C11.1292 3.16751 11.0638 3.37561 10.8807 3.47354C10.8414 3.51027 10.776 3.53475 10.7106 3.53475Z" fill="white"/>
<path d="M10.2114 3.8086C10.0806 3.8086 9.9499 3.73516 9.88453 3.63723C9.83224 3.55154 9.81916 3.46585 9.84531 3.36792C9.87146 3.28223 9.93682 3.19654 10.0153 3.14758C10.0676 3.12309 10.1329 3.09861 10.1983 3.09861C10.329 3.09861 10.4598 3.17206 10.5251 3.26999C10.6297 3.44137 10.5643 3.64947 10.3944 3.7474C10.3421 3.79636 10.2767 3.8086 10.2114 3.8086Z" fill="white"/>
<path d="M9.6993 4.08753C9.57075 4.08753 9.44219 4.01408 9.37792 3.90391C9.27508 3.73253 9.33935 3.52443 9.51932 3.4265C9.57074 3.38978 9.63502 3.37754 9.6993 3.37754C9.82785 3.37754 9.9564 3.45098 10.0207 3.54891C10.0721 3.6346 10.0849 3.72029 10.0592 3.81822C10.0335 3.90391 9.96925 3.9896 9.89212 4.02632C9.82785 4.06305 9.76357 4.08753 9.6993 4.08753Z" fill="white"/>
<path d="M9.20164 4.35631C9.07308 4.35631 8.94453 4.28411 8.88026 4.1758C8.82884 4.09157 8.81598 4.00733 8.84169 3.91106C8.8674 3.82683 8.93168 3.74259 9.02166 3.69445C9.07308 3.67039 9.13736 3.64632 9.20164 3.64632C9.33019 3.64632 9.45874 3.71852 9.52301 3.81479C9.62586 3.98326 9.56158 4.18784 9.38161 4.28411C9.33019 4.34428 9.26591 4.35631 9.20164 4.35631Z" fill="white"/>
<path d="M8.69611 4.64031C8.56796 4.64031 8.43982 4.5791 8.37574 4.46893C8.32448 4.38324 8.31167 4.29755 8.3373 4.19962C8.36293 4.11393 8.427 4.02824 8.51671 3.97928C8.56797 3.9548 8.63204 3.93032 8.69611 3.93032C8.82426 3.93032 8.95241 3.99152 9.01648 4.10169C9.06774 4.18738 9.08056 4.27307 9.05493 4.371C9.0293 4.45669 8.96522 4.54238 8.88833 4.5791C8.82426 4.62807 8.76019 4.64031 8.69611 4.64031Z" fill="white"/>
<path d="M8.19687 4.92431C8.06831 4.92431 7.93976 4.84957 7.87549 4.74992C7.77265 4.57554 7.83692 4.36378 8.01689 4.26414C8.06831 4.23922 8.13259 4.21431 8.19687 4.21431C8.32542 4.21431 8.45397 4.27659 8.51824 4.3887C8.56966 4.47589 8.58252 4.56308 8.55681 4.66273C8.5311 4.74992 8.46682 4.83711 8.38969 4.88694C8.32542 4.89939 8.26114 4.92431 8.19687 4.92431Z" fill="white"/>
<path d="M7.69251 5.19816C7.56396 5.19816 7.43541 5.12342 7.37113 5.02378C7.26829 4.84939 7.33257 4.63764 7.51254 4.53799C7.56396 4.50062 7.62824 4.48817 7.69251 4.48817C7.82106 4.48817 7.94961 4.5629 8.01389 4.66255C8.06531 4.74974 8.07817 4.83694 8.05246 4.93658C8.02675 5.02378 7.96247 5.11097 7.88534 5.14833C7.82106 5.1857 7.75679 5.19816 7.69251 5.19816Z" fill="white"/>
<path d="M7.20141 5.46694C7.0706 5.46694 6.93978 5.39474 6.87438 5.28643C6.82205 5.2022 6.80897 5.11796 6.83513 5.02169C6.8613 4.93746 6.9267 4.85322 7.00519 4.80508C7.05752 4.78102 7.12292 4.75695 7.18833 4.75695C7.31915 4.75695 7.44996 4.81712 7.51537 4.92542C7.62002 5.09389 7.55461 5.29847 7.37147 5.39474C7.33223 5.44287 7.26682 5.46694 7.20141 5.46694Z" fill="white"/>
<path d="M6.69027 5.75094C6.5618 5.75094 6.43333 5.68866 6.36909 5.57655C6.3177 5.48936 6.30485 5.40217 6.33055 5.30252C6.35624 5.21533 6.42048 5.12814 6.51041 5.09077C6.5618 5.06586 6.62604 5.04095 6.69027 5.04095C6.81875 5.04095 6.94722 5.10323 7.01146 5.21533C7.11424 5.38971 7.05 5.60147 6.88299 5.70112C6.81875 5.73848 6.75451 5.75094 6.69027 5.75094Z" fill="white"/>
<path d="M6.19125 6.02986C6.06229 6.02986 5.93333 5.95513 5.86886 5.85548C5.76569 5.6811 5.83017 5.46934 6.01071 5.3697C6.06229 5.34478 6.12677 5.31987 6.19125 5.31987C6.32021 5.31987 6.44916 5.38215 6.51364 5.49426C6.61681 5.66864 6.55233 5.88039 6.37179 5.98004C6.32021 6.00495 6.25573 6.02986 6.19125 6.02986Z" fill="white"/>
<path d="M5.6869 6.30372C5.55794 6.30372 5.42898 6.22898 5.3645 6.12933C5.26134 5.95495 5.32581 5.7432 5.50635 5.64355C5.55794 5.60618 5.62242 5.59373 5.6869 5.59373C5.81585 5.59373 5.94481 5.65601 6.00929 5.76811C6.11245 5.94249 6.04798 6.15425 5.86744 6.25389C5.81585 6.29126 5.75137 6.30372 5.6869 6.30372Z" fill="white"/>
<path d="M5.1946 6.5725C5.06379 6.5725 4.93297 6.5003 4.86757 6.392C4.81524 6.30776 4.80216 6.22352 4.82832 6.12725C4.85449 6.04302 4.91989 5.95878 4.99838 5.91065C5.05071 5.88658 5.11611 5.86251 5.18152 5.86251C5.31233 5.86251 5.44315 5.92268 5.50856 6.03098C5.61321 6.19946 5.5478 6.40403 5.36466 6.5003C5.32542 6.56047 5.26001 6.5725 5.1946 6.5725Z" fill="white"/>
<path d="M4.69025 6.8565C4.55943 6.8565 4.42862 6.79422 4.36321 6.68212C4.31089 6.59492 4.29781 6.50773 4.32397 6.40808C4.35013 6.32089 4.41554 6.2337 4.49403 6.19633C4.54635 6.17142 4.61176 6.14651 4.67717 6.14651C4.80798 6.14651 4.9388 6.20879 5.0042 6.32089C5.10885 6.49527 5.04345 6.70703 4.86031 6.80668C4.82106 6.84404 4.75566 6.8565 4.69025 6.8565Z" fill="white"/>
<path d="M4.18327 7.13542C4.05472 7.13542 3.92616 7.07314 3.86189 6.96104C3.75905 6.78666 3.82332 6.5749 4.0033 6.47526C4.05472 6.45034 4.11899 6.42543 4.18327 6.42543C4.31182 6.42543 4.44037 6.48771 4.50465 6.59982C4.55607 6.68701 4.56892 6.7742 4.54321 6.87385C4.5175 6.96104 4.45323 7.04823 4.37609 7.09806C4.31182 7.12297 4.24754 7.13542 4.18327 7.13542Z" fill="white"/>
<path d="M21.2637 20.9904C21.1333 20.9904 21.0029 20.917 20.9377 20.819C20.8855 20.7334 20.8725 20.6477 20.8986 20.5497C20.9247 20.464 20.9899 20.3784 21.0681 20.3294C21.1202 20.3049 21.1854 20.2804 21.2506 20.2804C21.381 20.2804 21.5114 20.3539 21.5766 20.4518C21.6288 20.5375 21.6418 20.6232 21.6158 20.7211C21.5897 20.8068 21.5245 20.8925 21.4462 20.9415C21.3941 20.9782 21.3289 20.9904 21.2637 20.9904Z" fill="white"/>
<path d="M20.7605 21.2693C20.6297 21.2693 20.4989 21.2071 20.4335 21.095C20.3812 21.0078 20.3681 20.9206 20.3943 20.8209C20.4204 20.7337 20.4858 20.6465 20.5643 20.6092C20.6166 20.5718 20.6821 20.5594 20.7475 20.5594C20.8783 20.5594 21.0091 20.6216 21.0745 20.7337C21.1791 20.9081 21.1137 21.1199 20.9306 21.2195C20.8914 21.2569 20.826 21.2693 20.7605 21.2693Z" fill="white"/>
<path d="M20.2615 21.5432C20.1307 21.5432 19.9999 21.482 19.9345 21.3718C19.8821 21.2861 19.8691 21.2004 19.8952 21.1025C19.9214 21.0168 19.9868 20.9311 20.0653 20.8822C20.1176 20.8577 20.183 20.8332 20.2484 20.8332C20.3792 20.8332 20.5101 20.9067 20.5755 21.0046C20.6801 21.176 20.6147 21.3841 20.4316 21.482C20.3923 21.531 20.3269 21.5432 20.2615 21.5432Z" fill="white"/>
<path d="M19.7492 21.8272C19.6207 21.8272 19.4921 21.7525 19.4278 21.6528C19.325 21.4784 19.3893 21.2667 19.5692 21.167C19.6207 21.1421 19.6849 21.1172 19.7492 21.1172C19.8778 21.1172 20.0063 21.1919 20.0706 21.2916C20.122 21.3788 20.1349 21.466 20.1092 21.5656C20.0834 21.6528 20.0192 21.74 19.942 21.7774C19.8778 21.8023 19.8135 21.8272 19.7492 21.8272Z" fill="white"/>
<path d="M19.2515 22.1011C19.123 22.1011 18.9944 22.0263 18.9302 21.9267C18.8787 21.8395 18.8659 21.7523 18.8916 21.6526C18.9173 21.5654 18.9816 21.4783 19.0716 21.4409C19.123 21.4035 19.1873 21.3911 19.2515 21.3911C19.3801 21.3911 19.5086 21.4533 19.5729 21.5654C19.6757 21.7398 19.6115 21.9516 19.4315 22.0512C19.3801 22.0886 19.3158 22.1011 19.2515 22.1011Z" fill="white"/>
<path d="M18.7525 22.3749C18.6221 22.3749 18.4917 22.3015 18.4265 22.2035C18.3744 22.1178 18.3613 22.0322 18.3874 21.9342C18.4135 21.8485 18.4787 21.7628 18.5569 21.7139C18.6091 21.6894 18.6743 21.6649 18.7395 21.6649C18.8699 21.6649 19.0003 21.7384 19.0655 21.8363C19.1176 21.922 19.1307 22.0077 19.1046 22.1056C19.0785 22.1913 19.0133 22.277 18.922 22.3137C18.8829 22.3504 18.8177 22.3749 18.7525 22.3749Z" fill="white"/>
<path d="M18.2468 22.6538C18.1182 22.6538 17.9897 22.5791 17.9254 22.4794C17.8225 22.3051 17.8868 22.0933 18.0668 21.9937C18.1182 21.9687 18.1825 21.9438 18.2468 21.9438C18.3753 21.9438 18.5039 22.0061 18.5681 22.1182C18.6196 22.2054 18.6324 22.2926 18.6067 22.3923C18.581 22.4794 18.5167 22.5666 18.4267 22.6165C18.3753 22.6414 18.311 22.6538 18.2468 22.6538Z" fill="white"/>
<path d="M17.7504 22.9226C17.6195 22.9226 17.4887 22.8504 17.4233 22.7421C17.371 22.6579 17.3579 22.5736 17.3841 22.4774C17.4102 22.3931 17.4756 22.3089 17.5541 22.2608C17.6065 22.2367 17.6719 22.2126 17.7373 22.2126C17.8681 22.2126 17.9989 22.2848 18.0643 22.3811C18.169 22.5496 18.1035 22.7541 17.9204 22.8504C17.8812 22.9106 17.8158 22.9226 17.7504 22.9226Z" fill="white"/>
<path d="M17.2436 23.2015C17.1154 23.2015 16.9873 23.1281 16.9232 23.0302C16.8719 22.9445 16.8591 22.8588 16.8848 22.7609C16.9104 22.6752 16.9745 22.5895 17.0642 22.5405C17.1154 22.516 17.1795 22.4915 17.2436 22.4915C17.3717 22.4915 17.4999 22.565 17.5639 22.6629C17.6152 22.7486 17.628 22.8343 17.6024 22.9322C17.5768 23.0179 17.5127 23.1036 17.423 23.1526C17.3717 23.1893 17.3076 23.2015 17.2436 23.2015Z" fill="white"/>
<path d="M16.7404 23.4855C16.6118 23.4855 16.4833 23.4233 16.419 23.3112C16.3676 23.224 16.3547 23.1368 16.3804 23.0371C16.4062 22.9499 16.4704 22.8627 16.5604 22.8254C16.6118 22.788 16.6761 22.7755 16.7404 22.7755C16.8689 22.7755 16.9975 22.8378 17.0618 22.9499C17.1646 23.1243 17.1003 23.3361 16.9204 23.4357C16.8689 23.4731 16.8047 23.4855 16.7404 23.4855Z" fill="white"/>
<path d="M16.2413 23.7594C16.1128 23.7594 15.9842 23.6982 15.92 23.588C15.8685 23.5023 15.8557 23.4166 15.8814 23.3187C15.9071 23.233 15.9714 23.1473 16.0614 23.0984C16.1128 23.0739 16.1771 23.0494 16.2413 23.0494C16.3699 23.0494 16.4984 23.1228 16.5627 23.2208C16.6656 23.3922 16.6013 23.6003 16.4213 23.6982C16.357 23.7349 16.2928 23.7594 16.2413 23.7594Z" fill="white"/>
<path d="M15.7423 24.0332C15.612 24.0332 15.4816 23.9598 15.4164 23.8619C15.3642 23.7762 15.3512 23.6905 15.3772 23.5926C15.4033 23.5069 15.4685 23.4212 15.5468 23.3722C15.5989 23.3477 15.6641 23.3233 15.7293 23.3233C15.8597 23.3233 15.9901 23.3967 16.0553 23.4946C16.1075 23.5803 16.1205 23.666 16.0944 23.7639C16.0683 23.8496 16.0031 23.9353 15.9249 23.9843C15.8727 24.021 15.8075 24.0332 15.7423 24.0332Z" fill="white"/>
<path d="M15.2392 24.3172C15.1084 24.3172 14.9776 24.2425 14.9122 24.1429C14.8598 24.0557 14.8468 23.9685 14.8729 23.8688C14.8991 23.7816 14.9645 23.6944 15.043 23.6571C15.0953 23.6197 15.1607 23.6073 15.2261 23.6073C15.3569 23.6073 15.4878 23.6695 15.5532 23.7816C15.6578 23.956 15.5924 24.1678 15.4093 24.2674C15.3831 24.2923 15.3046 24.3172 15.2392 24.3172Z" fill="white"/>
<path d="M14.7402 24.586C14.6094 24.586 14.4785 24.5248 14.4131 24.4146C14.3608 24.329 14.3477 24.2433 14.3739 24.1453C14.4001 24.0596 14.4655 23.974 14.5439 23.925C14.5963 23.9005 14.6617 23.876 14.7271 23.876C14.8579 23.876 14.9887 23.9495 15.0541 24.0474C15.1588 24.2188 15.0934 24.4269 14.9102 24.5248C14.871 24.5738 14.8056 24.586 14.7402 24.586Z" fill="white"/>
<path d="M21.256 7.13035C21.1908 7.13035 21.1256 7.11811 21.0734 7.08139C20.9821 7.03242 20.93 6.95898 20.9039 6.86105C20.8778 6.77536 20.8909 6.67743 20.943 6.59174C21.0082 6.48157 21.1386 6.42036 21.269 6.42036C21.3342 6.42036 21.3994 6.4326 21.4516 6.46933C21.5428 6.51829 21.595 6.59174 21.6211 6.68967C21.6472 6.77536 21.6341 6.87329 21.582 6.95898C21.5168 7.06915 21.3864 7.13035 21.256 7.13035Z" fill="white"/>
<path d="M20.7492 6.85143C20.6845 6.85143 20.6197 6.83919 20.5679 6.80246C20.4772 6.7535 20.4254 6.68005 20.3995 6.58212C20.3735 6.49643 20.3865 6.3985 20.4383 6.31281C20.5031 6.20264 20.6326 6.14143 20.7622 6.14143C20.827 6.14143 20.8917 6.15368 20.9436 6.1904C21.1249 6.28833 21.1767 6.50867 21.0861 6.66781C21.0083 6.79022 20.8788 6.85143 20.7492 6.85143Z" fill="white"/>
<path d="M20.2502 6.57757C20.1854 6.57757 20.1206 6.56533 20.0688 6.52861C19.9781 6.47964 19.9263 6.4062 19.9004 6.30827C19.8745 6.22258 19.8874 6.12465 19.9393 6.03896C20.004 5.92879 20.1336 5.86758 20.2631 5.86758C20.3279 5.86758 20.3927 5.87982 20.4445 5.91655C20.6259 6.01448 20.6777 6.23482 20.587 6.39395C20.5093 6.50413 20.3797 6.57757 20.2502 6.57757Z" fill="white"/>
<path d="M19.7557 6.30372C19.6903 6.30372 19.6249 6.29126 19.5726 6.25389C19.3895 6.15425 19.324 5.93004 19.4287 5.76811C19.4941 5.65601 19.6249 5.59373 19.7557 5.59373C19.8211 5.59373 19.8865 5.60618 19.9389 5.64355C20.0304 5.69337 20.0828 5.76811 20.1089 5.8553C20.1351 5.94249 20.122 6.04214 20.0697 6.12933C20.0174 6.24144 19.8996 6.30372 19.7557 6.30372Z" fill="white"/>
<path d="M19.2515 6.02479C19.1873 6.02479 19.123 6.01255 19.0716 5.97583C18.9816 5.92686 18.9302 5.85342 18.8916 5.75549C18.8659 5.6698 18.8787 5.57187 18.9302 5.48618C18.9944 5.37601 19.123 5.3148 19.2515 5.3148C19.3158 5.3148 19.3801 5.32704 19.4315 5.36377C19.6115 5.4617 19.6757 5.68204 19.5729 5.84117C19.4958 5.95135 19.3801 6.02479 19.2515 6.02479Z" fill="white"/>
<path d="M18.7385 5.74587C18.6744 5.74587 18.6104 5.73363 18.5591 5.6969C18.4694 5.64794 18.4053 5.57449 18.3925 5.47656C18.3669 5.39087 18.3797 5.29294 18.431 5.20725C18.495 5.09708 18.6232 5.03588 18.7513 5.03588C18.8154 5.03588 18.8795 5.04812 18.9307 5.08484C19.0204 5.13381 19.0717 5.20725 19.1101 5.30518C19.1358 5.39087 19.123 5.4888 19.0717 5.57449C18.9948 5.68466 18.8667 5.74587 18.7385 5.74587Z" fill="white"/>
<path d="M18.2463 5.47201C18.1815 5.47201 18.1167 5.45977 18.0649 5.42305C17.8835 5.32512 17.8317 5.10478 17.9224 4.94564C17.9872 4.83547 18.1167 4.76202 18.2463 4.76202C18.311 4.76202 18.3758 4.77426 18.4276 4.81099C18.5183 4.85995 18.5701 4.9334 18.609 5.03133C18.6349 5.11702 18.6219 5.21495 18.5701 5.30064C18.4924 5.39857 18.3758 5.47201 18.2463 5.47201Z" fill="white"/>
<path d="M17.739 5.19309C17.6743 5.19309 17.6095 5.18085 17.5577 5.14412C17.467 5.09516 17.4152 5.02171 17.3893 4.92378C17.3633 4.83809 17.3763 4.74016 17.4281 4.65447C17.4929 4.5443 17.6224 4.4831 17.752 4.4831C17.8168 4.4831 17.8815 4.49534 17.9333 4.53206C18.1147 4.62999 18.1665 4.85033 18.0759 5.00947C17.9981 5.13188 17.8686 5.19309 17.739 5.19309Z" fill="white"/>
<path d="M17.2501 4.91923C17.1849 4.91923 17.1197 4.90699 17.0675 4.87027C16.9763 4.8213 16.9241 4.74786 16.885 4.64993C16.8589 4.56424 16.872 4.46631 16.9241 4.38062C16.9893 4.27045 17.1197 4.20924 17.2501 4.20924C17.3153 4.20924 17.3805 4.22148 17.4327 4.25821C17.5239 4.30717 17.5891 4.38062 17.6022 4.47855C17.6282 4.56424 17.6152 4.66217 17.563 4.74786C17.4978 4.84579 17.3805 4.91923 17.2501 4.91923Z" fill="white"/>
<path d="M16.7404 4.64031C16.6761 4.64031 16.6118 4.62807 16.5604 4.59134C16.4704 4.54238 16.419 4.46893 16.3804 4.371C16.3547 4.28531 16.3676 4.18738 16.419 4.10169C16.4833 3.99152 16.6118 3.93032 16.7404 3.93032C16.8047 3.93032 16.8689 3.94256 16.9204 3.97928C17.1003 4.07721 17.1646 4.29755 17.0618 4.45669C16.9975 4.56686 16.8689 4.64031 16.7404 4.64031Z" fill="white"/>
<path d="M16.2413 4.36645C16.1771 4.36645 16.1128 4.35421 16.0614 4.31749C15.9714 4.26852 15.9071 4.19508 15.8814 4.09715C15.8557 4.01146 15.8685 3.91353 15.92 3.82784C15.9842 3.71767 16.1128 3.65646 16.2413 3.65646C16.3056 3.65646 16.3699 3.6687 16.4213 3.70543C16.6013 3.80336 16.6656 4.0237 16.5627 4.18284C16.4856 4.29301 16.3699 4.36645 16.2413 4.36645Z" fill="white"/>
<path d="M15.7346 4.08753C15.6694 4.08753 15.6042 4.07529 15.5521 4.03856C15.4608 3.9896 15.4086 3.91615 15.3826 3.81822C15.3565 3.73253 15.3695 3.6346 15.4217 3.54891C15.4869 3.43874 15.6173 3.37754 15.7477 3.37754C15.8129 3.37754 15.8781 3.38978 15.9302 3.4265C16.0215 3.47547 16.0737 3.54891 16.0997 3.64684C16.1258 3.73253 16.1128 3.83046 16.0606 3.91615C15.9954 4.01408 15.865 4.08753 15.7346 4.08753Z" fill="white"/>
<path d="M15.2251 3.8086C15.1608 3.8086 15.0966 3.79636 15.0451 3.75964C14.9551 3.71067 14.9037 3.63723 14.878 3.5393C14.8523 3.45361 14.8652 3.35568 14.9166 3.26999C14.9809 3.15982 15.1094 3.09861 15.238 3.09861C15.3022 3.09861 15.3665 3.11085 15.4179 3.14758C15.5979 3.24551 15.6622 3.46585 15.5593 3.62498C15.4822 3.7474 15.3665 3.8086 15.2251 3.8086Z" fill="white"/>
<path d="M14.7288 3.53475C14.6641 3.53475 14.5993 3.52251 14.5475 3.48578C14.4568 3.43682 14.405 3.36337 14.3791 3.26544C14.3531 3.17975 14.3661 3.08182 14.4179 2.99613C14.4827 2.88596 14.6122 2.82476 14.7418 2.82476C14.8066 2.82476 14.8713 2.837 14.9231 2.87372C15.1045 2.97165 15.1563 3.19199 15.0656 3.35113C14.9879 3.4613 14.8584 3.53475 14.7288 3.53475Z" fill="white"/>
<path d="M10.6993 24.586C10.6345 24.586 10.5698 24.5738 10.518 24.5371C10.4273 24.4881 10.3755 24.4146 10.3495 24.3167C10.3236 24.231 10.3366 24.1331 10.3884 24.0474C10.4532 23.9372 10.5827 23.876 10.7123 23.876C10.777 23.876 10.8418 23.8883 10.8936 23.925C11.075 24.0229 11.1268 24.2433 11.0361 24.4024C10.9584 24.5248 10.8418 24.586 10.6993 24.586Z" fill="white"/>
<path d="M10.2003 24.3122C10.1355 24.3122 10.0707 24.2999 10.0189 24.2632C9.92823 24.2142 9.87641 24.1408 9.8505 24.0429C9.82459 23.9572 9.83754 23.8592 9.88936 23.7736C9.95414 23.6634 10.0837 23.6022 10.2132 23.6022C10.278 23.6022 10.3428 23.6144 10.3946 23.6511C10.576 23.7491 10.6278 23.9694 10.5371 24.1286C10.4594 24.2387 10.3298 24.3122 10.2003 24.3122Z" fill="white"/>
<path d="M9.70582 24.0383C9.64041 24.0383 9.575 24.0259 9.52268 23.9885C9.33954 23.8888 9.27413 23.6646 9.37878 23.5027C9.44419 23.3906 9.575 23.3283 9.70582 23.3283C9.77122 23.3283 9.83663 23.3408 9.88896 23.3782C9.98053 23.428 10.0329 23.5027 10.059 23.6024C10.0852 23.6895 10.0721 23.7892 10.0198 23.8764C9.96744 23.976 9.84971 24.0383 9.70582 24.0383Z" fill="white"/>
<path d="M9.20164 23.7594C9.13736 23.7594 9.07308 23.7472 9.02166 23.7104C8.93168 23.6615 8.88026 23.588 8.84169 23.4901C8.81598 23.4044 8.82884 23.3065 8.88026 23.2208C8.94453 23.1106 9.07308 23.0494 9.20164 23.0494C9.26591 23.0494 9.33019 23.0616 9.38161 23.0984C9.56158 23.1963 9.62586 23.4166 9.52301 23.5758C9.44588 23.6859 9.33019 23.7594 9.20164 23.7594Z" fill="white"/>
<path d="M8.69611 23.4855C8.63204 23.4855 8.56797 23.4731 8.51671 23.4357C8.427 23.3859 8.36293 23.3112 8.3373 23.224C8.31167 23.1243 8.32448 23.0371 8.37574 22.9499C8.43982 22.8378 8.56796 22.7755 8.69611 22.7755C8.76019 22.7755 8.82426 22.788 8.87552 22.8254C8.96523 22.8752 9.01648 22.9499 9.05493 23.0371C9.08056 23.1243 9.06774 23.224 9.01648 23.3112C8.95241 23.4233 8.82426 23.4855 8.69611 23.4855Z" fill="white"/>
<path d="M8.19634 23.2066C8.13156 23.2066 8.06679 23.1942 8.01497 23.1568C7.83361 23.0571 7.78179 22.8329 7.87247 22.671C7.93724 22.5589 8.06679 22.4966 8.19634 22.4966C8.26111 22.4966 8.32588 22.5091 8.3777 22.5464C8.46838 22.5963 8.5202 22.671 8.55907 22.7707C8.58498 22.8578 8.57202 22.9575 8.5202 23.0447C8.45543 23.1443 8.32588 23.2066 8.19634 23.2066Z" fill="white"/>
<path d="M7.6985 22.9328C7.63258 22.9328 7.56666 22.9203 7.51392 22.8829C7.32934 22.7833 7.2766 22.5591 7.36889 22.3971C7.43482 22.285 7.56666 22.2228 7.6985 22.2228C7.76443 22.2228 7.83035 22.2352 7.88309 22.2726C7.97538 22.3224 8.02812 22.3971 8.05449 22.4968C8.08085 22.584 8.06767 22.6836 8.01493 22.7708C7.96219 22.858 7.83035 22.9328 7.6985 22.9328Z" fill="white"/>
<path d="M7.19485 22.6488C7.13058 22.6488 7.0663 22.6365 7.01488 22.5998C6.92489 22.5508 6.87347 22.4774 6.83491 22.3795C6.8092 22.2938 6.82205 22.1958 6.87347 22.1101C6.93775 22 7.0663 21.9388 7.19485 21.9388C7.25913 21.9388 7.3234 21.951 7.37482 21.9877C7.5548 22.0857 7.61907 22.306 7.51623 22.4651C7.45195 22.5876 7.3234 22.6488 7.19485 22.6488Z" fill="white"/>
<path d="M6.6905 22.38C6.62622 22.38 6.56195 22.3675 6.51053 22.3302C6.42054 22.2803 6.35627 22.2056 6.33055 22.1184C6.30484 22.0188 6.3177 21.9316 6.36912 21.8444C6.4334 21.7323 6.56195 21.67 6.6905 21.67C6.75477 21.67 6.81905 21.6824 6.87047 21.7198C7.05044 21.8195 7.11472 22.0437 7.01188 22.2056C6.9476 22.3052 6.81905 22.38 6.6905 22.38Z" fill="white"/>
<path d="M6.19125 22.1011C6.12677 22.1011 6.06229 22.0886 6.01071 22.0512C5.83017 21.9516 5.76569 21.7274 5.86886 21.5654C5.93333 21.4533 6.06229 21.3911 6.19125 21.3911C6.25573 21.3911 6.32021 21.4035 6.37179 21.4409C6.55233 21.5405 6.61681 21.7647 6.51364 21.9267C6.43627 22.0388 6.32021 22.1011 6.19125 22.1011Z" fill="white"/>
<path d="M5.68637 21.8272C5.62139 21.8272 5.55641 21.8147 5.50443 21.7774C5.32248 21.6777 5.2705 21.4535 5.36147 21.2916C5.42645 21.1795 5.55641 21.1172 5.68637 21.1172C5.75135 21.1172 5.81633 21.1297 5.86831 21.167C6.05025 21.2667 6.11523 21.4909 6.01126 21.6528C5.94629 21.7525 5.81633 21.8272 5.68637 21.8272Z" fill="white"/>
<path d="M5.18329 21.5432C5.11851 21.5432 5.05374 21.531 5.00192 21.4942C4.91124 21.4453 4.85942 21.3718 4.83351 21.2739C4.8076 21.1882 4.82056 21.0903 4.87237 21.0046C4.93715 20.8944 5.06669 20.8332 5.19624 20.8332C5.26101 20.8332 5.32579 20.8454 5.37761 20.8822C5.55897 20.9801 5.61079 21.2004 5.52011 21.3596C5.42942 21.482 5.31283 21.5432 5.18329 21.5432Z" fill="white"/>
<path d="M4.68082 21.2744C4.61571 21.2744 4.5506 21.262 4.49851 21.2246C4.40736 21.1748 4.35527 21.1 4.32923 21.0128C4.30318 20.9132 4.3162 20.826 4.36829 20.7388C4.4334 20.6267 4.56362 20.5644 4.69384 20.5644C4.75895 20.5644 4.82406 20.5769 4.87615 20.6143C5.05845 20.7139 5.11054 20.9381 5.00637 21.1C4.94126 21.1997 4.81104 21.2744 4.68082 21.2744Z" fill="white"/>
<path d="M4.18447 20.9955C4.11907 20.9955 4.05366 20.983 4.00133 20.9457C3.81819 20.846 3.75279 20.6218 3.85744 20.4599C3.92285 20.3478 4.05366 20.2855 4.18447 20.2855C4.24988 20.2855 4.31529 20.298 4.36761 20.3353C4.45918 20.3851 4.51151 20.4599 4.53767 20.5595C4.56383 20.6467 4.55075 20.7464 4.49843 20.8336C4.4461 20.9208 4.32837 20.9955 4.18447 20.9955Z" fill="white"/>
<path d="M12.5027 19.2662C15.8364 19.2662 18.539 16.6846 18.539 13.5C18.539 10.3154 15.8364 7.73385 12.5027 7.73385C9.16889 7.73385 6.46634 10.3154 6.46634 13.5C6.46634 16.6846 9.16889 19.2662 12.5027 19.2662Z" fill="white"/>
<path d="M12.5027 16.7406C14.3762 16.7406 15.8951 15.2897 15.8951 13.5C15.8951 11.7103 14.3762 10.2594 12.5027 10.2594C10.6291 10.2594 9.11021 11.7103 9.11021 13.5C9.11021 15.2897 10.6291 16.7406 12.5027 16.7406Z" fill="white"/>
<path d="M14.4511 1.86119C14.4511 2.89068 13.5804 3.72239 12.5027 3.72239C11.4249 3.72239 10.5543 2.89068 10.5543 1.86119C10.5543 0.831706 11.4249 0 12.5027 0C13.5751 0 14.4511 0.831706 14.4511 1.86119Z" fill="white"/>
<path d="M3.89679 7.67806C3.89679 8.70755 3.02612 9.53926 1.9484 9.53926C0.870673 9.53926 0 8.70755 0 7.67806C0 6.64857 0.870673 5.81687 1.9484 5.81687C3.02612 5.81687 3.89679 6.64857 3.89679 7.67806Z" fill="white"/>
<path d="M3.89679 19.3169C3.89679 20.3464 3.02612 21.1781 1.9484 21.1781C0.870673 21.1781 0 20.3464 0 19.3169C0 18.2874 0.870673 17.4557 1.9484 17.4557C3.02612 17.4557 3.89679 18.2874 3.89679 19.3169Z" fill="white"/>
<path d="M14.4511 25.1388C14.4511 26.1683 13.5804 27 12.5027 27C11.4249 27 10.5543 26.1683 10.5543 25.1388C10.5543 24.1093 11.4249 23.2776 12.5027 23.2776C13.5751 23.2725 14.4511 24.1093 14.4511 25.1388Z" fill="white"/>
<path d="M25 19.3169C25 20.3464 24.124 21.1781 23.0516 21.1781C21.9792 21.1781 21.1032 20.3464 21.1032 19.3169C21.1032 18.2874 21.9739 17.4557 23.0516 17.4557C24.1293 17.4557 25 18.2874 25 19.3169Z" fill="white"/>
<path d="M25 7.67806C25 8.70755 24.124 9.53926 23.0516 9.53926C21.9792 9.53926 21.1032 8.70755 21.1032 7.67806C21.1032 6.64857 21.9739 5.81687 23.0516 5.81687C24.1293 5.81687 25 6.64857 25 7.67806Z" fill="white"/>
</svg>
