<svg width="25" height="25" viewBox="0 0 25 25" fill="none" xmlns="http://www.w3.org/2000/svg">
<path d="M12.5004 7.42802C11.8343 7.42802 11.1747 7.55921 10.5593 7.81411C9.94396 8.06901 9.38481 8.44263 8.91381 8.91363C8.44281 9.38462 8.0692 9.94378 7.8143 10.5592C7.5594 11.1746 7.4282 11.8341 7.4282 12.5002C7.4282 13.1663 7.5594 13.8259 7.8143 14.4413C8.0692 15.0566 8.44281 15.6158 8.91381 16.0868C9.38481 16.5578 9.94396 16.9314 10.5593 17.1863C11.1747 17.4412 11.8343 17.5724 12.5004 17.5724C13.8456 17.5724 15.1358 17.038 16.087 16.0868C17.0382 15.1356 17.5726 13.8454 17.5726 12.5002C17.5726 11.155 17.0382 9.86485 16.087 8.91363C15.1358 7.9624 13.8456 7.42802 12.5004 7.42802ZM8.9908 12.5002C8.9908 11.5694 9.36056 10.6767 10.0187 10.0185C10.6769 9.36037 11.5696 8.99061 12.5004 8.99061C13.4312 8.99061 14.3239 9.36037 14.982 10.0185C15.6402 10.6767 16.01 11.5694 16.01 12.5002C16.01 13.431 15.6402 14.3237 14.982 14.9819C14.3239 15.64 13.4312 16.0098 12.5004 16.0098C11.5696 16.0098 10.6769 15.64 10.0187 14.9819C9.36056 14.3237 8.9908 13.431 8.9908 12.5002Z" fill="white"/>
<path d="M15.3064 2.09779C14.4829 -0.699262 10.5171 -0.699262 9.69357 2.09779L9.54669 2.59626C9.48918 2.79151 9.38871 2.97141 9.25264 3.12279C9.11656 3.27416 8.94834 3.39317 8.7603 3.47108C8.57226 3.54899 8.36917 3.58384 8.16591 3.57306C7.96265 3.56229 7.76438 3.50616 7.58563 3.40881L7.12935 3.15879C4.56669 1.76495 1.76495 4.56825 3.16035 7.12935L3.40881 7.58563C3.50616 7.76438 3.56229 7.96265 3.57306 8.16591C3.58384 8.36917 3.54899 8.57226 3.47108 8.7603C3.39317 8.94834 3.27416 9.11656 3.12279 9.25264C2.97141 9.38871 2.79151 9.48918 2.59626 9.54669L2.09779 9.69357C-0.699262 10.5171 -0.699262 14.4829 2.09779 15.3064L2.59626 15.4533C2.79151 15.5108 2.97141 15.6113 3.12279 15.7474C3.27416 15.8834 3.39317 16.0517 3.47108 16.2397C3.54899 16.4277 3.58384 16.6308 3.57306 16.8341C3.56229 17.0373 3.50616 17.2356 3.40881 17.4144L3.15879 17.8706C1.76495 20.4333 4.56669 23.2366 7.12935 21.8396L7.58563 21.5912C7.76438 21.4938 7.96265 21.4377 8.16591 21.4269C8.36917 21.4162 8.57226 21.451 8.7603 21.5289C8.94834 21.6068 9.11656 21.7258 9.25264 21.8772C9.38871 22.0286 9.48918 22.2085 9.54669 22.4037L9.69357 22.9022C10.5171 25.6993 14.4829 25.6993 15.3064 22.9022L15.4533 22.4037C15.5108 22.2085 15.6113 22.0286 15.7474 21.8772C15.8834 21.7258 16.0517 21.6068 16.2397 21.5289C16.4277 21.451 16.6308 21.4162 16.8341 21.4269C17.0373 21.4377 17.2356 21.4938 17.4144 21.5912L17.8706 21.8412C20.4333 23.2366 23.2366 20.4317 21.8396 17.8706L21.5912 17.4144C21.4938 17.2356 21.4377 17.0373 21.4269 16.8341C21.4162 16.6308 21.451 16.4277 21.5289 16.2397C21.6068 16.0517 21.7258 15.8834 21.8772 15.7474C22.0286 15.6113 22.2085 15.5108 22.4037 15.4533L22.9022 15.3064C25.6993 14.4829 25.6993 10.5171 22.9022 9.69357L22.4037 9.54669C22.2085 9.48918 22.0286 9.38871 21.8772 9.25264C21.7258 9.11656 21.6068 8.94834 21.5289 8.7603C21.451 8.57226 21.4162 8.36917 21.4269 8.16591C21.4377 7.96265 21.4938 7.76438 21.5912 7.58563L21.8412 7.12935C23.2366 4.56669 20.4317 1.76495 17.8706 3.16035L17.4144 3.40881C17.2356 3.50616 17.0373 3.56229 16.8341 3.57306C16.6308 3.58384 16.4277 3.54899 16.2397 3.47108C16.0517 3.39317 15.8834 3.27416 15.7474 3.12279C15.6113 2.97141 15.5108 2.79151 15.4533 2.59626L15.3064 2.09779ZM11.1921 2.54C11.5765 1.23523 13.4235 1.23523 13.8079 2.54L13.9548 3.03847C14.0783 3.45738 14.2939 3.84335 14.586 4.16807C14.878 4.4928 15.239 4.74805 15.6425 4.91512C16.046 5.08219 16.4818 5.15683 16.9179 5.13359C17.354 5.11034 17.7794 4.98979 18.1629 4.78077L18.6176 4.53075C19.8114 3.88227 21.1177 5.18704 20.4677 6.38243L20.2192 6.83871C20.0105 7.22221 19.8903 7.64755 19.8673 8.08356C19.8443 8.51957 19.9191 8.9552 20.0863 9.35853C20.2535 9.76186 20.5089 10.1227 20.8336 10.4145C21.1583 10.7064 21.5443 10.9219 21.9631 11.0452L22.46 11.1921C23.7648 11.5765 23.7648 13.4235 22.46 13.8079L21.9615 13.9548C21.5426 14.0783 21.1567 14.2939 20.8319 14.586C20.5072 14.878 20.2519 15.239 20.0849 15.6425C19.9178 16.046 19.8432 16.4818 19.8664 16.9179C19.8897 17.354 20.0102 17.7794 20.2192 18.1629L20.4692 18.6176C21.1177 19.8114 19.813 21.1177 18.6176 20.4677L18.1629 20.2192C17.7793 20.0102 17.3538 19.8897 16.9176 19.8666C16.4814 19.8434 16.0456 19.9182 15.642 20.0855C15.2385 20.2527 14.8775 20.5081 14.5856 20.833C14.2936 21.1579 14.0781 21.544 13.9548 21.9631L13.8079 22.46C13.4235 23.7648 11.5765 23.7648 11.1921 22.46L11.0452 21.9615C10.9217 21.5428 10.7061 21.1571 10.4141 20.8325C10.1222 20.508 9.76138 20.2528 9.35807 20.0858C8.95476 19.9187 8.51919 19.844 8.08327 19.8671C7.64734 19.8902 7.22211 20.0105 6.83871 20.2192L6.38243 20.4692C5.18861 21.1177 3.88227 19.813 4.53231 18.6176L4.78077 18.1629C4.99008 17.7793 5.11087 17.3538 5.13427 16.9175C5.15767 16.4812 5.08309 16.0452 4.916 15.6415C4.74891 15.2378 4.49355 14.8766 4.16866 14.5845C3.84378 14.2923 3.4576 14.0766 3.03847 13.9532L2.54 13.8063C1.23523 13.4219 1.23523 11.5749 2.54 11.1905L3.03847 11.0437C3.45694 10.9201 3.84249 10.7045 4.16689 10.4127C4.49129 10.1208 4.74633 9.76018 4.91336 9.35708C5.08038 8.95397 5.15516 8.51862 5.13222 8.08288C5.10928 7.64714 4.9892 7.22205 4.78077 6.83871L4.53075 6.38243C3.88227 5.18861 5.18704 3.88227 6.38243 4.53231L6.83871 4.78077C7.22211 4.98949 7.64734 5.10981 8.08327 5.1329C8.51919 5.156 8.95476 5.08129 9.35807 4.91424C9.76138 4.74719 10.1222 4.49204 10.4141 4.16748C10.7061 3.84292 10.9217 3.45716 11.0452 3.03847L11.1921 2.54Z" fill="white"/>
</svg>
