<svg width="20" height="24" viewBox="0 0 20 24" fill="none" xmlns="http://www.w3.org/2000/svg">
<path d="M6.15385 8.8C6.35786 8.8 6.55352 8.88429 6.69777 9.03432C6.84203 9.18434 6.92308 9.38783 6.92308 9.6V19.2C6.92308 19.4122 6.84203 19.6157 6.69777 19.7657C6.55352 19.9157 6.35786 20 6.15385 20C5.94983 20 5.75418 19.9157 5.60992 19.7657C5.46566 19.6157 5.38462 19.4122 5.38462 19.2V9.6C5.38462 9.38783 5.46566 9.18434 5.60992 9.03432C5.75418 8.88429 5.94983 8.8 6.15385 8.8ZM10 8.8C10.204 8.8 10.3997 8.88429 10.5439 9.03432C10.6882 9.18434 10.7692 9.38783 10.7692 9.6V19.2C10.7692 19.4122 10.6882 19.6157 10.5439 19.7657C10.3997 19.9157 10.204 20 10 20C9.79599 20 9.60033 19.9157 9.45607 19.7657C9.31181 19.6157 9.23077 19.4122 9.23077 19.2V9.6C9.23077 9.38783 9.31181 9.18434 9.45607 9.03432C9.60033 8.88429 9.79599 8.8 10 8.8ZM14.6154 9.6C14.6154 9.38783 14.5343 9.18434 14.3901 9.03432C14.2458 8.88429 14.0502 8.8 13.8462 8.8C13.6421 8.8 13.4465 8.88429 13.3022 9.03432C13.158 9.18434 13.0769 9.38783 13.0769 9.6V19.2C13.0769 19.4122 13.158 19.6157 13.3022 19.7657C13.4465 19.9157 13.6421 20 13.8462 20C14.0502 20 14.2458 19.9157 14.3901 19.7657C14.5343 19.6157 14.6154 19.4122 14.6154 19.2V9.6Z" fill="white"/>
<path fill-rule="evenodd" clip-rule="evenodd" d="M20 4.8C20 5.22435 19.8379 5.63131 19.5494 5.93137C19.2609 6.23143 18.8696 6.4 18.4615 6.4H17.6923V20.8C17.6923 21.6487 17.3681 22.4626 16.7911 23.0627C16.2141 23.6629 15.4314 24 14.6154 24H5.38462C4.56856 24 3.78594 23.6629 3.2089 23.0627C2.63187 22.4626 2.30769 21.6487 2.30769 20.8V6.4H1.53846C1.13044 6.4 0.739122 6.23143 0.450605 5.93137C0.162087 5.63131 0 5.22435 0 4.8V3.2C0 2.77565 0.162087 2.36869 0.450605 2.06863C0.739122 1.76857 1.13044 1.6 1.53846 1.6H6.92308C6.92308 1.17565 7.08516 0.768687 7.37368 0.468629C7.6622 0.168571 8.05351 0 8.46154 0H11.5385C11.9465 0 12.3378 0.168571 12.6263 0.468629C12.9148 0.768687 13.0769 1.17565 13.0769 1.6H18.4615C18.8696 1.6 19.2609 1.76857 19.5494 2.06863C19.8379 2.36869 20 2.77565 20 3.2V4.8ZM4.02769 6.4L3.84615 6.4944V20.8C3.84615 21.2243 4.00824 21.6313 4.29676 21.9314C4.58528 22.2314 4.97659 22.4 5.38462 22.4H14.6154C15.0234 22.4 15.4147 22.2314 15.7032 21.9314C15.9918 21.6313 16.1538 21.2243 16.1538 20.8V6.4944L15.9723 6.4H4.02769ZM1.53846 4.8V3.2H18.4615V4.8H1.53846Z" fill="white"/>
</svg>
