<svg width="52" height="52" viewBox="0 0 52 52" fill="none" xmlns="http://www.w3.org/2000/svg">
<rect width="52" height="52" rx="8" fill="#F5F5F5"/>
<path d="M24 38C24 38 22 38 22 36C22 34 24 28 32 28C40 28 42 34 42 36C42 38 40 38 40 38H24Z" fill="#27AE60"/>
<path d="M32 26C35.3137 26 38 23.3137 38 20C38 16.6863 35.3137 14 32 14C28.6863 14 26 16.6863 26 20C26 23.3137 28.6863 26 32 26Z" fill="#27AE60"/>
<path d="M20.4327 38C20.1511 37.4318 20 36.7583 20 36C20 33.2891 21.3581 30.5011 23.8719 28.5599C22.7722 28.2082 21.4902 28 20 28C12 28 10 34 10 36C10 38 12 38 12 38H20.4327Z" fill="#27AE60"/>
<path d="M19 26C21.7614 26 24 23.7614 24 21C24 18.2386 21.7614 16 19 16C16.2386 16 14 18.2386 14 21C14 23.7614 16.2386 26 19 26Z" fill="#27AE60"/>
</svg>
