<svg width="53" height="52" viewBox="0 0 53 52" fill="none" xmlns="http://www.w3.org/2000/svg">
<rect x="0.5" width="52" height="52" rx="8" fill="#E1F8FF"/>
<path d="M40.2223 15.7116L35.8312 20.6118L32.197 24.6665C32.0043 24.881 31.7375 25.0031 31.4579 25.0031H13.5169C12.6196 25.0031 12.1587 23.8591 12.7778 23.1684L20.8031 14.2135C20.9946 13.9991 21.2626 13.877 21.5422 13.877H39.4832C40.3806 13.877 40.8414 15.0209 40.2223 15.7116Z" fill="#7DD8FF" stroke="#009BCC" stroke-width="1.83846" stroke-miterlimit="10"/>
<path d="M40.2223 22.446L36.1439 26.9961L32.197 31.3996C32.0043 31.6153 31.7375 31.7361 31.4579 31.7361H13.5169C12.6196 31.7361 12.1587 30.5935 12.7778 29.9028L17.169 25.0026H31.4579C31.7375 25.0026 32.0043 24.8805 32.197 24.6661L35.8312 20.6113H39.4832C40.3806 20.6113 40.8414 21.7539 40.2223 22.446Z" fill="#7DD8FF" stroke="#009BCC" stroke-width="1.83846" stroke-miterlimit="10"/>
<path d="M40.2223 28.8308L32.197 37.7857C32.0043 38.0014 31.7375 38.1222 31.4579 38.1222H13.5169C12.6196 38.1222 12.1587 36.9796 12.7778 36.2875L16.8575 31.7361H31.4579C31.7375 31.7361 32.0043 31.6154 32.197 31.3996L36.1439 26.9961H39.4832C40.3806 26.9961 40.8414 28.1401 40.2223 28.8308Z" fill="#7DD8FF" stroke="#009BCC" stroke-width="1.83846" stroke-miterlimit="10"/>
</svg>
