<svg width="25" height="25" viewBox="0 0 25 25" fill="none" xmlns="http://www.w3.org/2000/svg">
<g clip-path="url(#clip0_12768_29982)">
<path fill-rule="evenodd" clip-rule="evenodd" d="M11.9473 0.228545C12.0199 0.15579 12.1061 0.0980667 12.201 0.0586816C12.2959 0.0192966 12.3977 -0.000976563 12.5004 -0.000976562C12.6032 -0.000976563 12.7049 0.0192966 12.7998 0.0586816C12.8948 0.0980667 12.981 0.15579 13.0535 0.228545L16.1785 3.35354C16.2512 3.42618 16.3088 3.51242 16.3481 3.60732C16.3874 3.70223 16.4077 3.80395 16.4077 3.90667C16.4077 4.00939 16.3874 4.11111 16.3481 4.20602C16.3088 4.30092 16.2512 4.38716 16.1785 4.45979C16.1059 4.53243 16.0197 4.59005 15.9248 4.62936C15.8299 4.66867 15.7281 4.68891 15.6254 4.68891C15.5227 4.68891 15.421 4.66867 15.3261 4.62936C15.2312 4.59005 15.1449 4.53243 15.0723 4.45979L13.2817 2.66761V8.59417C13.2817 8.80137 13.1994 9.00008 13.0528 9.1466C12.9063 9.29311 12.7076 9.37542 12.5004 9.37542C12.2932 9.37542 12.0945 9.29311 11.948 9.1466C11.8015 9.00008 11.7192 8.80137 11.7192 8.59417V2.66761L9.92854 4.45979C9.78185 4.60649 9.58288 4.68891 9.37542 4.68891C9.16796 4.68891 8.96899 4.60649 8.82229 4.45979C8.6756 4.3131 8.59318 4.11413 8.59318 3.90667C8.59318 3.69921 8.6756 3.50024 8.82229 3.35354L11.9473 0.228545ZM12.5004 15.6254C12.7076 15.6254 12.9063 15.7077 13.0528 15.8542C13.1994 16.0008 13.2817 16.1995 13.2817 16.4067V22.3332L15.0723 20.541C15.219 20.3943 15.418 20.3119 15.6254 20.3119C15.8329 20.3119 16.0318 20.3943 16.1785 20.541C16.3252 20.6877 16.4077 20.8867 16.4077 21.0942C16.4077 21.3016 16.3252 21.5006 16.1785 21.6473L13.0535 24.7723C12.981 24.8451 12.8948 24.9028 12.7998 24.9422C12.7049 24.9815 12.6032 25.0018 12.5004 25.0018C12.3977 25.0018 12.2959 24.9815 12.201 24.9422C12.1061 24.9028 12.0199 24.8451 11.9473 24.7723L8.82229 21.6473C8.74966 21.5747 8.69204 21.4884 8.65273 21.3935C8.61342 21.2986 8.59318 21.1969 8.59318 21.0942C8.59318 20.9914 8.61342 20.8897 8.65273 20.7948C8.69204 20.6999 8.74966 20.6137 8.82229 20.541C8.96899 20.3943 9.16796 20.3119 9.37542 20.3119C9.47814 20.3119 9.57986 20.3322 9.67477 20.3715C9.76967 20.4108 9.85591 20.4684 9.92854 20.541L11.7192 22.3332V16.4067C11.7192 16.1995 11.8015 16.0008 11.948 15.8542C12.0945 15.7077 12.2932 15.6254 12.5004 15.6254ZM0.228545 13.0535C0.15579 12.981 0.0980667 12.8948 0.0586816 12.7998C0.0192966 12.7049 -0.000976563 12.6032 -0.000976562 12.5004C-0.000976563 12.3977 0.0192966 12.2959 0.0586816 12.201C0.0980667 12.1061 0.15579 12.0199 0.228545 11.9473L3.35354 8.82229C3.50024 8.6756 3.69921 8.59318 3.90667 8.59318C4.11413 8.59318 4.3131 8.6756 4.45979 8.82229C4.60649 8.96899 4.68891 9.16796 4.68891 9.37542C4.68891 9.58288 4.60649 9.78185 4.45979 9.92854L2.66761 11.7192H8.59417C8.80137 11.7192 9.00008 11.8015 9.1466 11.948C9.29311 12.0945 9.37542 12.2932 9.37542 12.5004C9.37542 12.7076 9.29311 12.9063 9.1466 13.0528C9.00008 13.1994 8.80137 13.2817 8.59417 13.2817H2.66761L4.45979 15.0723C4.60649 15.219 4.68891 15.418 4.68891 15.6254C4.68891 15.8329 4.60649 16.0318 4.45979 16.1785C4.3131 16.3252 4.11413 16.4077 3.90667 16.4077C3.69921 16.4077 3.50024 16.3252 3.35354 16.1785L0.228545 13.0535ZM15.6254 12.5004C15.6254 12.2932 15.7077 12.0945 15.8542 11.948C16.0008 11.8015 16.1995 11.7192 16.4067 11.7192H22.3332L20.541 9.92854C20.4684 9.85591 20.4108 9.76967 20.3715 9.67477C20.3322 9.57986 20.3119 9.47814 20.3119 9.37542C20.3119 9.27269 20.3322 9.17098 20.3715 9.07607C20.4108 8.98116 20.4684 8.89493 20.541 8.82229C20.6877 8.6756 20.8867 8.59318 21.0942 8.59318C21.1969 8.59318 21.2986 8.61342 21.3935 8.65273C21.4884 8.69204 21.5747 8.74966 21.6473 8.82229L24.7723 11.9473C24.8451 12.0199 24.9028 12.1061 24.9422 12.201C24.9815 12.2959 25.0018 12.3977 25.0018 12.5004C25.0018 12.6032 24.9815 12.7049 24.9422 12.7998C24.9028 12.8948 24.8451 12.981 24.7723 13.0535L21.6473 16.1785C21.5747 16.2512 21.4884 16.3088 21.3935 16.3481C21.2986 16.3874 21.1969 16.4077 21.0942 16.4077C20.9914 16.4077 20.8897 16.3874 20.7948 16.3481C20.6999 16.3088 20.6137 16.2512 20.541 16.1785C20.4684 16.1059 20.4108 16.0197 20.3715 15.9248C20.3322 15.8299 20.3119 15.7281 20.3119 15.6254C20.3119 15.5227 20.3322 15.421 20.3715 15.3261C20.4108 15.2312 20.4684 15.1449 20.541 15.0723L22.3332 13.2817H16.4067C16.1995 13.2817 16.0008 13.1994 15.8542 13.0528C15.7077 12.9063 15.6254 12.7076 15.6254 12.5004Z" fill="black"/>
</g>
<defs>
<clipPath id="clip0_12768_29982">
<rect width="25" height="25" fill="white"/>
</clipPath>
</defs>
</svg>
