<svg width="52" height="53" viewBox="0 0 52 53" fill="none" xmlns="http://www.w3.org/2000/svg">
<rect y="0.699951" width="52" height="52" rx="8" fill="#F2FCF2"/>
<path d="M42 26.7C42 35.5365 34.8366 42.7 26 42.7C17.1634 42.7 10 35.5365 10 26.7C10 17.8634 17.1634 10.7 26 10.7C34.8366 10.7 42 17.8634 42 26.7ZM34.0606 20.6393C33.4749 20.0535 32.5251 20.0535 31.9393 20.6393C31.9252 20.6534 31.9119 20.6684 31.8995 20.6842L24.9548 29.5334L20.7678 25.3464C20.182 24.7606 19.2322 24.7606 18.6464 25.3464C18.0606 25.9322 18.0606 26.8819 18.6464 27.4677L23.9393 32.7606C24.5251 33.3464 25.4749 33.3464 26.0606 32.7606C26.0737 32.7476 26.086 32.7338 26.0975 32.7194L34.0819 22.7389C34.6463 22.1516 34.6392 21.2179 34.0606 20.6393Z" fill="#0EAC00"/>
</svg>
