<svg width="20" height="28" viewBox="0 0 20 28" fill="none" xmlns="http://www.w3.org/2000/svg">
<path d="M20 24.5V7.875L12.5 0H3.33333C2.44928 0 1.60143 0.368749 0.976311 1.02513C0.351189 1.6815 0 2.57174 0 3.5V24.5C0 25.4283 0.351189 26.3185 0.976311 26.9749C1.60143 27.6313 2.44928 28 3.33333 28H16.6667C17.5507 28 18.3986 27.6313 19.0237 26.9749C19.6488 26.3185 20 25.4283 20 24.5ZM12.5 5.25C12.5 5.94619 12.7634 6.61387 13.2322 7.10616C13.7011 7.59844 14.337 7.875 15 7.875H18.3333V24.5C18.3333 24.9641 18.1577 25.4092 17.8452 25.7374C17.5326 26.0656 17.1087 26.25 16.6667 26.25H3.33333C2.89131 26.25 2.46738 26.0656 2.15482 25.7374C1.84226 25.4092 1.66667 24.9641 1.66667 24.5V3.5C1.66667 3.03587 1.84226 2.59075 2.15482 2.26256C2.46738 1.93437 2.89131 1.75 3.33333 1.75H12.5V5.25Z" fill="#004FC6"/>
<path d="M2.44835 10.827H4.41165C4.89072 10.827 5.31632 10.9258 5.68845 11.1234C6.06058 11.3165 6.3493 11.5927 6.55461 11.952C6.75993 12.3068 6.86258 12.7178 6.86258 13.1849C6.86258 13.652 6.75993 14.0651 6.55461 14.4244C6.3493 14.7793 6.06058 15.0555 5.68845 15.2531C5.31632 15.4462 4.89072 15.5428 4.41165 15.5428H2.44835V10.827ZM4.37316 14.8017C4.70252 14.8017 4.99124 14.7366 5.23932 14.6063C5.49169 14.4716 5.68417 14.283 5.81677 14.0404C5.95364 13.7934 6.02208 13.5082 6.02208 13.1849C6.02208 12.8615 5.95364 12.5786 5.81677 12.336C5.68417 12.089 5.49169 11.9004 5.23932 11.7701C4.99124 11.6354 4.70252 11.568 4.37316 11.568H3.28243V14.8017H4.37316Z" fill="#004FC6"/>
<path d="M9.84714 15.6101C9.38947 15.6101 8.9767 15.5068 8.60885 15.3002C8.24099 15.0891 7.95227 14.7995 7.74268 14.4312C7.53309 14.0584 7.4283 13.643 7.4283 13.1849C7.4283 12.7268 7.53309 12.3136 7.74268 11.9453C7.95227 11.5725 8.24099 11.2828 8.60885 11.0762C8.9767 10.8651 9.38947 10.7596 9.84714 10.7596C10.3048 10.7596 10.7176 10.8651 11.0854 11.0762C11.4533 11.2828 11.742 11.5703 11.9516 11.9386C12.1612 12.3068 12.266 12.7223 12.266 13.1849C12.266 13.6475 12.1612 14.0629 11.9516 14.4312C11.742 14.7995 11.4533 15.0891 11.0854 15.3002C10.7176 15.5068 10.3048 15.6101 9.84714 15.6101ZM9.84714 14.8421C10.1466 14.8421 10.416 14.7725 10.6556 14.6333C10.8951 14.4896 11.0833 14.292 11.2202 14.0404C11.3571 13.7844 11.4255 13.4993 11.4255 13.1849C11.4255 12.8705 11.3571 12.5875 11.2202 12.336C11.0833 12.08 10.8951 11.8824 10.6556 11.7432C10.416 11.5995 10.1466 11.5276 9.84714 11.5276C9.54773 11.5276 9.27826 11.5995 9.03872 11.7432C8.79919 11.8824 8.61099 12.08 8.47411 12.336C8.33724 12.5875 8.2688 12.8705 8.2688 13.1849C8.2688 13.4993 8.33724 13.7844 8.47411 14.0404C8.61099 14.292 8.79919 14.4896 9.03872 14.6333C9.27826 14.7725 9.54773 14.8421 9.84714 14.8421Z" fill="#004FC6"/>
<path d="M15.2289 15.6101C14.7755 15.6101 14.3649 15.5068 13.997 15.3002C13.6334 15.0891 13.3469 14.7995 13.1373 14.4312C12.932 14.0629 12.8293 13.6475 12.8293 13.1849C12.8293 12.7223 12.9341 12.3068 13.1437 11.9386C13.3533 11.5703 13.6399 11.2828 14.0034 11.0762C14.3713 10.8651 14.7819 10.7596 15.2353 10.7596C15.6032 10.7596 15.9389 10.827 16.2426 10.9617C16.5463 11.0964 16.803 11.2918 17.0126 11.5478L16.4736 12.08C16.1485 11.7117 15.7486 11.5276 15.2738 11.5276C14.9658 11.5276 14.69 11.5995 14.4461 11.7432C14.2023 11.8824 14.012 12.0778 13.8751 12.3293C13.7382 12.5808 13.6698 12.866 13.6698 13.1849C13.6698 13.5037 13.7382 13.7889 13.8751 14.0404C14.012 14.292 14.2023 14.4896 14.4461 14.6333C14.69 14.7725 14.9658 14.8421 15.2738 14.8421C15.7486 14.8421 16.1485 14.6557 16.4736 14.283L17.0126 14.8219C16.803 15.0779 16.5442 15.2733 16.2362 15.408C15.9325 15.5428 15.5968 15.6101 15.2289 15.6101Z" fill="#004FC6"/>
</svg>
