<svg width="25" height="25" viewBox="0 0 25 25" fill="none" xmlns="http://www.w3.org/2000/svg">
<path d="M0.78125 15.469C0.98845 15.469 1.18716 15.5513 1.33368 15.6978C1.48019 15.8443 1.5625 16.043 1.5625 16.2502V20.1565C1.5625 20.5709 1.72712 20.9683 2.02015 21.2613C2.31317 21.5544 2.7106 21.719 3.125 21.719H21.875C22.2894 21.719 22.6868 21.5544 22.9799 21.2613C23.2729 20.9683 23.4375 20.5709 23.4375 20.1565V16.2502C23.4375 16.043 23.5198 15.8443 23.6663 15.6978C23.8128 15.5513 24.0115 15.469 24.2188 15.469C24.426 15.469 24.6247 15.5513 24.7712 15.6978C24.9177 15.8443 25 16.043 25 16.2502V20.1565C25 20.9853 24.6708 21.7802 24.0847 22.3662C23.4987 22.9523 22.7038 23.2815 21.875 23.2815H3.125C2.2962 23.2815 1.50134 22.9523 0.915291 22.3662C0.32924 21.7802 0 20.9853 0 20.1565V16.2502C0 16.043 0.08231 15.8443 0.228823 15.6978C0.375336 15.5513 0.57405 15.469 0.78125 15.469Z" fill="black"/>
<path d="M11.9469 18.5219C12.0195 18.5946 12.1057 18.6524 12.2006 18.6917C12.2955 18.7311 12.3972 18.7514 12.5 18.7514C12.6028 18.7514 12.7045 18.7311 12.7994 18.6917C12.8944 18.6524 12.9806 18.5946 13.0531 18.5219L17.7406 13.8344C17.8873 13.6877 17.9697 13.4887 17.9697 13.2812C17.9697 13.0738 17.8873 12.8748 17.7406 12.7281C17.5939 12.5814 17.395 12.499 17.1875 12.499C16.98 12.499 16.7811 12.5814 16.6344 12.7281L13.2813 16.0828V2.34375C13.2813 2.13655 13.199 1.93784 13.0524 1.79132C12.9059 1.64481 12.7072 1.5625 12.5 1.5625C12.2928 1.5625 12.0941 1.64481 11.9476 1.79132C11.8011 1.93784 11.7188 2.13655 11.7188 2.34375V16.0828L8.36564 12.7281C8.21894 12.5814 8.01997 12.499 7.81251 12.499C7.60505 12.499 7.40608 12.5814 7.25939 12.7281C7.11269 12.8748 7.03027 13.0738 7.03027 13.2812C7.03027 13.4887 7.11269 13.6877 7.25939 13.8344L11.9469 18.5219Z" fill="black"/>
</svg>
