<svg width="35" height="35" viewBox="0 0 35 35" fill="none" xmlns="http://www.w3.org/2000/svg">
<path d="M12.8715 14.6124C12.7808 14.4982 12.6682 14.4032 12.5403 14.3331C12.4124 14.263 12.2718 14.2192 12.1267 14.2042C11.9817 14.1893 11.8351 14.2035 11.6956 14.2461C11.5561 14.2886 11.4265 14.3586 11.3144 14.452C11.2024 14.5454 11.1102 14.6602 11.0432 14.7897C10.9762 14.9193 10.9357 15.0609 10.9243 15.2063C10.9128 15.3517 10.9306 15.4979 10.9764 15.6363C11.0223 15.7748 11.0954 15.9026 11.1915 16.0124L16.0761 21.8749L11.1915 27.7374C11.014 27.9611 10.931 28.2453 10.9603 28.5293C10.9895 28.8134 11.1287 29.0747 11.3481 29.2575C11.5674 29.4403 11.8496 29.53 12.1342 29.5076C12.4189 29.4852 12.6834 29.3523 12.8715 29.1374L17.5002 23.5833L22.129 29.1396C22.3149 29.3624 22.5817 29.5022 22.8707 29.5282C23.0138 29.5411 23.1581 29.5257 23.2952 29.4829C23.4324 29.44 23.5597 29.3706 23.67 29.2785C23.7804 29.1864 23.8715 29.0735 23.9381 28.9463C24.0048 28.819 24.0458 28.6798 24.0587 28.5367C24.0716 28.3936 24.0562 28.2494 24.0133 28.1122C23.9705 27.9751 23.901 27.8477 23.809 27.7374L18.9243 21.8749L23.809 16.0124C23.9864 15.7887 24.0694 15.5045 24.0401 15.2205C24.0109 14.9364 23.8717 14.6751 23.6523 14.4923C23.433 14.3095 23.1509 14.2198 22.8662 14.2422C22.5816 14.2646 22.317 14.3975 22.129 14.6124L17.5002 20.1665L12.8715 14.6102V14.6124Z" fill="#0F753C"/>
<path d="M30.625 30.625V9.84375L20.7812 0H8.75C7.58968 0 6.47688 0.460936 5.65641 1.28141C4.83594 2.10188 4.375 3.21468 4.375 4.375V30.625C4.375 31.7853 4.83594 32.8981 5.65641 33.7186C6.47688 34.5391 7.58968 35 8.75 35H26.25C27.4103 35 28.5231 34.5391 29.3436 33.7186C30.1641 32.8981 30.625 31.7853 30.625 30.625ZM20.7812 6.5625C20.7812 7.43274 21.127 8.26734 21.7423 8.88269C22.3577 9.49805 23.1923 9.84375 24.0625 9.84375H28.4375V30.625C28.4375 31.2052 28.207 31.7616 27.7968 32.1718C27.3866 32.582 26.8302 32.8125 26.25 32.8125H8.75C8.16984 32.8125 7.61344 32.582 7.2032 32.1718C6.79297 31.7616 6.5625 31.2052 6.5625 30.625V4.375C6.5625 3.79484 6.79297 3.23844 7.2032 2.8282C7.61344 2.41797 8.16984 2.1875 8.75 2.1875H20.7812V6.5625Z" fill="#0F753C"/>
</svg>
