<svg width="30" height="30" viewBox="0 0 30 30" fill="none" xmlns="http://www.w3.org/2000/svg">
<path fill-rule="evenodd" clip-rule="evenodd" d="M15 0C23.2843 0 30 6.71573 30 15C30 23.2843 23.2843 30 15 30C6.71573 30 0 23.2843 0 15C0 6.71573 6.71573 0 15 0ZM14.9787 20C14.0221 20 13.2143 20.732 13.2143 21.7746C13.2143 22.8172 14.0221 23.5714 14.9787 23.5714C15.9566 23.5714 16.7857 22.8172 16.7857 21.7746C16.7857 20.732 15.9566 20 14.9787 20ZM16.4282 6.4289L13.5934 6.42857C13.2168 6.42857 12.9083 6.71996 12.8811 7.08955L12.8792 7.15368L13.1933 17.5216C13.205 17.9075 13.5212 18.2143 13.9073 18.2143H16.0927C16.4788 18.2143 16.795 17.9075 16.8067 17.5216L17.1206 7.16449C17.1325 6.77018 16.8225 6.44085 16.4282 6.4289Z" fill="#FF0000"/>
</svg>
