<svg width="35" height="35" viewBox="0 0 35 35" fill="none" xmlns="http://www.w3.org/2000/svg">
<path d="M30.625 30.625V9.84375L20.7812 0H8.75C7.58968 0 6.47688 0.460936 5.65641 1.28141C4.83594 2.10188 4.375 3.21468 4.375 4.375V30.625C4.375 31.7853 4.83594 32.8981 5.65641 33.7186C6.47688 34.5391 7.58968 35 8.75 35H26.25C27.4103 35 28.5231 34.5391 29.3436 33.7186C30.1641 32.8981 30.625 31.7853 30.625 30.625ZM20.7812 6.5625C20.7812 7.43274 21.127 8.26734 21.7423 8.88269C22.3577 9.49805 23.1923 9.84375 24.0625 9.84375H28.4375V30.625C28.4375 31.2052 28.207 31.7616 27.7968 32.1718C27.3866 32.582 26.8302 32.8125 26.25 32.8125H8.75C8.16984 32.8125 7.61344 32.582 7.2032 32.1718C6.79297 31.7616 6.5625 31.2052 6.5625 30.625V4.375C6.5625 3.79484 6.79297 3.23844 7.2032 2.8282C7.61344 2.41797 8.16984 2.1875 8.75 2.1875H20.7812V6.5625Z" fill="black"/>
<path d="M13.368 19.08C12.9307 19.08 12.528 19.0107 12.16 18.872C11.7973 18.728 11.48 18.528 11.208 18.272C10.936 18.0107 10.7253 17.704 10.576 17.352C10.4267 17 10.352 16.616 10.352 16.2C10.352 15.784 10.4267 15.4 10.576 15.048C10.7253 14.696 10.936 14.392 11.208 14.136C11.4853 13.8747 11.808 13.6747 12.176 13.536C12.544 13.392 12.9467 13.32 13.384 13.32C13.8587 13.32 14.2853 13.3973 14.664 13.552C15.048 13.7067 15.3707 13.9333 15.632 14.232L14.976 14.872C14.7573 14.6533 14.52 14.4933 14.264 14.392C14.0133 14.2853 13.736 14.232 13.432 14.232C13.1387 14.232 12.8667 14.28 12.616 14.376C12.3653 14.472 12.1493 14.608 11.968 14.784C11.7867 14.96 11.6453 15.168 11.544 15.408C11.448 15.648 11.4 15.912 11.4 16.2C11.4 16.4827 11.448 16.744 11.544 16.984C11.6453 17.224 11.7867 17.4347 11.968 17.616C12.1493 17.792 12.3627 17.928 12.608 18.024C12.8533 18.12 13.1253 18.168 13.424 18.168C13.7013 18.168 13.968 18.1253 14.224 18.04C14.4853 17.9493 14.7333 17.8 14.968 17.592L15.56 18.368C15.2667 18.6027 14.9253 18.7813 14.536 18.904C14.152 19.0213 13.7627 19.08 13.368 19.08ZM14.576 18.232V16.136H15.56V18.368L14.576 18.232ZM16.9317 19V13.4H17.9717V19H16.9317ZM20.4384 15.976H23.2304V16.856H20.4384V15.976ZM20.5264 19H19.4864V13.4H23.5744V14.272H20.5264V19Z" fill="black"/>
</svg>
