<svg width="32" height="42" viewBox="0 0 32 42" fill="none" xmlns="http://www.w3.org/2000/svg">
<path d="M31.75 36.75V11.8125L19.9375 0H5.5C4.10761 0 2.77226 0.553123 1.78769 1.53769C0.803123 2.52226 0.25 3.85761 0.25 5.25V36.75C0.25 38.1424 0.803123 39.4777 1.78769 40.4623C2.77226 41.4469 4.10761 42 5.5 42H26.5C27.8924 42 29.2277 41.4469 30.2123 40.4623C31.1969 39.4777 31.75 38.1424 31.75 36.75ZM19.9375 7.875C19.9375 8.91929 20.3523 9.92081 21.0908 10.6592C21.8292 11.3977 22.8307 11.8125 23.875 11.8125H29.125V36.75C29.125 37.4462 28.8484 38.1139 28.3562 38.6062C27.8639 39.0984 27.1962 39.375 26.5 39.375H5.5C4.80381 39.375 4.13613 39.0984 3.64384 38.6062C3.15156 38.1139 2.875 37.4462 2.875 36.75V5.25C2.875 4.55381 3.15156 3.88613 3.64384 3.39384C4.13613 2.90156 4.80381 2.625 5.5 2.625H19.9375V7.875Z" fill="#D84A24"/>
<path d="M9.528 15.8004V21.4004H8.488V19.0004H5.592V21.4004H4.552V15.8004H5.592V18.1124H8.488V15.8004H9.528Z" fill="#D84A24"/>
<path d="M12.1646 16.6804H10.3086V15.8004H15.0606V16.6804H13.2046V21.4004H12.1646V16.6804Z" fill="#D84A24"/>
<path d="M20.9851 21.4004L20.9771 17.6884L19.1371 20.7604H18.6731L16.8331 17.7364V21.4004H15.8411V15.8004H16.6971L18.9211 19.5124L21.1051 15.8004H21.9611L21.9691 21.4004H20.9851Z" fill="#D84A24"/>
<path d="M23.4817 15.8004H24.5217V20.5204H27.4497V21.4004H23.4817V15.8004Z" fill="#D84A24"/>
</svg>
