<svg width="26" height="25" viewBox="0 0 26 25" fill="none" xmlns="http://www.w3.org/2000/svg">
<path d="M12.6195 23.4375C9.69098 23.4375 6.88238 22.2852 4.81159 20.234C2.7408 18.1828 1.57744 15.4008 1.57744 12.5C1.57744 9.59919 2.7408 6.8172 4.81159 4.76602C6.88238 2.71484 9.69098 1.5625 12.6195 1.5625C15.5481 1.5625 18.3567 2.71484 20.4275 4.76602C22.4982 6.8172 23.6616 9.59919 23.6616 12.5C23.6616 15.4008 22.4982 18.1828 20.4275 20.234C18.3567 22.2852 15.5481 23.4375 12.6195 23.4375ZM12.6195 25C15.9664 25 19.1763 23.683 21.5429 21.3388C23.9095 18.9946 25.239 15.8152 25.239 12.5C25.239 9.18479 23.9095 6.00537 21.5429 3.66117C19.1763 1.31696 15.9664 0 12.6195 0C9.27262 0 6.06279 1.31696 3.69617 3.66117C1.32955 6.00537 0 9.18479 0 12.5C0 15.8152 1.32955 18.9946 3.69617 21.3388C6.06279 23.683 9.27262 25 12.6195 25Z" fill="white"/>
<path d="M8.2894 9.04062C8.28724 9.09108 8.29552 9.14145 8.31374 9.18862C8.33196 9.23579 8.35972 9.27877 8.39533 9.31492C8.43094 9.35107 8.47364 9.37962 8.5208 9.39882C8.56796 9.41802 8.61858 9.42746 8.66956 9.42656H9.97095C10.1886 9.42656 10.3622 9.25 10.3905 9.03594C10.5325 8.01094 11.2424 7.26406 12.5075 7.26406C13.5896 7.26406 14.5802 7.8 14.5802 9.08906C14.5802 10.0812 13.9903 10.5375 13.058 11.2313C11.9964 11.9953 11.1556 12.8875 11.2155 14.3359L11.2203 14.675C11.2219 14.7775 11.2642 14.8753 11.338 14.9472C11.4118 15.0191 11.5111 15.0594 11.6146 15.0594H12.8939C12.9985 15.0594 13.0988 15.0182 13.1728 14.945C13.2468 14.8717 13.2883 14.7723 13.2883 14.6687V14.5047C13.2883 13.3828 13.7189 13.0563 14.8815 12.1828C15.8422 11.4594 16.8439 10.6563 16.8439 8.97031C16.8439 6.60938 14.831 5.46875 12.6274 5.46875C10.6287 5.46875 8.43925 6.39062 8.2894 9.04062ZM10.7455 18.0453C10.7455 18.8781 11.4159 19.4937 12.3387 19.4937C13.2993 19.4937 13.9603 18.8781 13.9603 18.0453C13.9603 17.1828 13.2978 16.5766 12.3371 16.5766C11.4159 16.5766 10.7455 17.1828 10.7455 18.0453Z" fill="white"/>
</svg>
