<svg width="35" height="35" viewBox="0 0 35 35" fill="none" xmlns="http://www.w3.org/2000/svg">
<path d="M30.625 30.625V9.84375L20.7812 0H8.75C7.58968 0 6.47688 0.460936 5.65641 1.28141C4.83594 2.10188 4.375 3.21468 4.375 4.375V30.625C4.375 31.7853 4.83594 32.8981 5.65641 33.7186C6.47688 34.5391 7.58968 35 8.75 35H26.25C27.4103 35 28.5231 34.5391 29.3436 33.7186C30.1641 32.8981 30.625 31.7853 30.625 30.625ZM20.7812 6.5625C20.7812 7.43274 21.127 8.26734 21.7423 8.88269C22.3577 9.49805 23.1923 9.84375 24.0625 9.84375H28.4375V30.625C28.4375 31.2052 28.207 31.7616 27.7968 32.1718C27.3866 32.582 26.8302 32.8125 26.25 32.8125H8.75C8.16984 32.8125 7.61344 32.582 7.2032 32.1718C6.79297 31.7616 6.5625 31.2052 6.5625 30.625V4.375C6.5625 3.79484 6.79297 3.23844 7.2032 2.8282C7.61344 2.41797 8.16984 2.1875 8.75 2.1875H20.7812V6.5625Z" fill="black"/>
<path d="M10.624 19.08C10.2667 19.08 9.936 19.0107 9.632 18.872C9.33333 18.7333 9.088 18.5333 8.896 18.272L9.488 17.56C9.64267 17.7733 9.81067 17.9333 9.992 18.04C10.1787 18.1467 10.3813 18.2 10.6 18.2C11.1813 18.2 11.472 17.856 11.472 17.168V14.272H9.48V13.4H12.512V17.112C12.512 17.7733 12.3493 18.2667 12.024 18.592C11.704 18.9173 11.2373 19.08 10.624 19.08ZM13.9708 19V13.4H16.2748C16.7708 13.4 17.1948 13.48 17.5468 13.64C17.9041 13.8 18.1788 14.0293 18.3708 14.328C18.5628 14.6267 18.6588 14.9813 18.6588 15.392C18.6588 15.8027 18.5628 16.1573 18.3708 16.456C18.1788 16.7547 17.9041 16.984 17.5468 17.144C17.1948 17.304 16.7708 17.384 16.2748 17.384H14.5468L15.0108 16.896V19H13.9708ZM15.0108 17.008L14.5468 16.504H16.2268C16.6854 16.504 17.0294 16.408 17.2587 16.216C17.4934 16.0187 17.6108 15.744 17.6108 15.392C17.6108 15.0347 17.4934 14.76 17.2587 14.568C17.0294 14.376 16.6854 14.28 16.2268 14.28H14.5468L15.0108 13.768V17.008ZM22.3914 19.08C21.9541 19.08 21.5514 19.0107 21.1834 18.872C20.8208 18.728 20.5034 18.528 20.2314 18.272C19.9594 18.0107 19.7488 17.704 19.5994 17.352C19.4501 17 19.3754 16.616 19.3754 16.2C19.3754 15.784 19.4501 15.4 19.5994 15.048C19.7488 14.696 19.9594 14.392 20.2314 14.136C20.5088 13.8747 20.8314 13.6747 21.1994 13.536C21.5674 13.392 21.9701 13.32 22.4074 13.32C22.8821 13.32 23.3088 13.3973 23.6874 13.552C24.0714 13.7067 24.3941 13.9333 24.6554 14.232L23.9994 14.872C23.7808 14.6533 23.5434 14.4933 23.2874 14.392C23.0368 14.2853 22.7594 14.232 22.4554 14.232C22.1621 14.232 21.8901 14.28 21.6394 14.376C21.3888 14.472 21.1728 14.608 20.9914 14.784C20.8101 14.96 20.6688 15.168 20.5674 15.408C20.4714 15.648 20.4234 15.912 20.4234 16.2C20.4234 16.4827 20.4714 16.744 20.5674 16.984C20.6688 17.224 20.8101 17.4347 20.9914 17.616C21.1728 17.792 21.3861 17.928 21.6314 18.024C21.8768 18.12 22.1488 18.168 22.4474 18.168C22.7248 18.168 22.9914 18.1253 23.2474 18.04C23.5088 17.9493 23.7568 17.8 23.9914 17.592L24.5834 18.368C24.2901 18.6027 23.9488 18.7813 23.5594 18.904C23.1754 19.0213 22.7861 19.08 22.3914 19.08ZM23.5994 18.232V16.136H24.5834V18.368L23.5994 18.232Z" fill="black"/>
</svg>
