<svg width="32" height="26" viewBox="0 0 32 26" fill="none" xmlns="http://www.w3.org/2000/svg">
<g filter="url(#filter0_d_17567_36754)">
<path d="M1 5C1 2.79086 2.79086 1 5 1H27C29.2091 1 31 2.79086 31 5V7C31 9.20914 29.2091 11 27 11H5C2.79086 11 1 9.20914 1 7V5Z" fill="white"/>
<path d="M5 2H27C28.6569 2 30 3.34315 30 5V7C30 8.65685 28.6569 10 27 10H5C3.34315 10 2 8.65685 2 7V5C2 3.34315 3.34315 2 5 2Z" stroke="black" stroke-width="2"/>
</g>
<path d="M16 9C16 19.8571 13.5455 25 1 25" stroke="black" stroke-width="2"/>
<path d="M16 9C16 19.8571 18.4545 25 31 25" stroke="black" stroke-width="2"/>
<defs>
<filter id="filter0_d_17567_36754" x="0" y="0" width="32" height="12" filterUnits="userSpaceOnUse" color-interpolation-filters="sRGB">
<feFlood flood-opacity="0" result="BackgroundImageFix"/>
<feColorMatrix in="SourceAlpha" type="matrix" values="0 0 0 0 0 0 0 0 0 0 0 0 0 0 0 0 0 0 127 0" result="hardAlpha"/>
<feOffset/>
<feGaussianBlur stdDeviation="0.5"/>
<feColorMatrix type="matrix" values="0 0 0 0 0 0 0 0 0 0 0 0 0 0 0 0 0 0 0.04 0"/>
<feBlend mode="normal" in2="BackgroundImageFix" result="effect1_dropShadow_17567_36754"/>
<feBlend mode="normal" in="SourceGraphic" in2="effect1_dropShadow_17567_36754" result="shape"/>
</filter>
</defs>
</svg>
