<svg width="35" height="35" viewBox="0 0 35 35" fill="none" xmlns="http://www.w3.org/2000/svg">
<path d="M30.625 30.625V9.84375L20.7812 0H8.75C7.58968 0 6.47688 0.460936 5.65641 1.28141C4.83594 2.10188 4.375 3.21468 4.375 4.375V30.625C4.375 31.7853 4.83594 32.8981 5.65641 33.7186C6.47688 34.5391 7.58968 35 8.75 35H26.25C27.4103 35 28.5231 34.5391 29.3436 33.7186C30.1641 32.8981 30.625 31.7853 30.625 30.625ZM20.7812 6.5625C20.7812 7.43274 21.127 8.26734 21.7423 8.88269C22.3577 9.49805 23.1923 9.84375 24.0625 9.84375H28.4375V30.625C28.4375 31.2052 28.207 31.7616 27.7968 32.1718C27.3866 32.582 26.8302 32.8125 26.25 32.8125H8.75C8.16984 32.8125 7.61344 32.582 7.2032 32.1718C6.79297 31.7616 6.5625 31.2052 6.5625 30.625V4.375C6.5625 3.79484 6.79297 3.23844 7.2032 2.8282C7.61344 2.41797 8.16984 2.1875 8.75 2.1875H20.7812V6.5625Z" fill="black"/>
<path d="M8.752 19V13.4H9.608L12.056 17.488H11.608L14.016 13.4H14.872L14.88 19H13.896L13.888 14.944H14.096L12.048 18.36H11.584L9.504 14.944H9.744V19H8.752ZM16.3926 19V13.4H18.6966C19.1926 13.4 19.6166 13.48 19.9686 13.64C20.326 13.8 20.6006 14.0293 20.7926 14.328C20.9846 14.6267 21.0806 14.9813 21.0806 15.392C21.0806 15.8027 20.9846 16.1573 20.7926 16.456C20.6006 16.7547 20.326 16.984 19.9686 17.144C19.6166 17.304 19.1926 17.384 18.6966 17.384H16.9686L17.4326 16.896V19H16.3926ZM17.4326 17.008L16.9686 16.504H18.6486C19.1073 16.504 19.4513 16.408 19.6806 16.216C19.9153 16.0187 20.0326 15.744 20.0326 15.392C20.0326 15.0347 19.9153 14.76 19.6806 14.568C19.4513 14.376 19.1073 14.28 18.6486 14.28H16.9686L17.4326 13.768V17.008ZM23.4401 19.08C23.0455 19.08 22.6588 19.024 22.2801 18.912C21.9068 18.7947 21.5921 18.6347 21.3361 18.432L21.7841 17.624C21.9868 17.7893 22.2321 17.9227 22.5201 18.024C22.8081 18.1253 23.1095 18.176 23.4241 18.176C23.7975 18.176 24.0881 18.1013 24.2961 17.952C24.5041 17.7973 24.6081 17.5893 24.6081 17.328C24.6081 17.072 24.5121 16.8693 24.3201 16.72C24.1281 16.5707 23.8188 16.496 23.3921 16.496H22.8801V15.784L24.4801 13.88L24.6161 14.272H21.6081V13.4H25.4241V14.096L23.8241 16L23.2801 15.68H23.5921C24.2801 15.68 24.7948 15.8347 25.1361 16.144C25.4828 16.448 25.6561 16.84 25.6561 17.32C25.6561 17.6347 25.5761 17.9253 25.4161 18.192C25.2561 18.4587 25.0108 18.6747 24.6801 18.84C24.3548 19 23.9415 19.08 23.4401 19.08Z" fill="black"/>
</svg>
