<svg width="35" height="35" viewBox="0 0 35 35" fill="none" xmlns="http://www.w3.org/2000/svg">
<path d="M30.625 30.625V9.84375L20.7812 0H8.75C7.58968 0 6.47688 0.460936 5.65641 1.28141C4.83594 2.10188 4.375 3.21468 4.375 4.375V30.625C4.375 31.7853 4.83594 32.8981 5.65641 33.7186C6.47688 34.5391 7.58968 35 8.75 35H26.25C27.4103 35 28.5231 34.5391 29.3436 33.7186C30.1641 32.8981 30.625 31.7853 30.625 30.625ZM20.7812 6.5625C20.7812 7.43274 21.127 8.26734 21.7423 8.88269C22.3577 9.49805 23.1923 9.84375 24.0625 9.84375H28.4375V30.625C28.4375 31.2052 28.207 31.7616 27.7968 32.1718C27.3866 32.582 26.8302 32.8125 26.25 32.8125H8.75C8.16984 32.8125 7.61344 32.582 7.2032 32.1718C6.79297 31.7616 6.5625 31.2052 6.5625 30.625V4.375C6.5625 3.79484 6.79297 3.23844 7.2032 2.8282C7.61344 2.41797 8.16984 2.1875 8.75 2.1875H20.7812V6.5625Z" fill="black"/>
<path d="M8.752 19V13.4H9.608L12.056 17.488H11.608L14.016 13.4H14.872L14.88 19H13.896L13.888 14.944H14.096L12.048 18.36H11.584L9.504 14.944H9.744V19H8.752ZM16.3926 19V13.4H18.6966C19.1926 13.4 19.6166 13.48 19.9686 13.64C20.326 13.8 20.6006 14.0293 20.7926 14.328C20.9846 14.6267 21.0806 14.9813 21.0806 15.392C21.0806 15.8027 20.9846 16.1573 20.7926 16.456C20.6006 16.7547 20.326 16.984 19.9686 17.144C19.6166 17.304 19.1926 17.384 18.6966 17.384H16.9686L17.4326 16.896V19H16.3926ZM17.4326 17.008L16.9686 16.504H18.6486C19.1073 16.504 19.4513 16.408 19.6806 16.216C19.9153 16.0187 20.0326 15.744 20.0326 15.392C20.0326 15.0347 19.9153 14.76 19.6806 14.568C19.4513 14.376 19.1073 14.28 18.6486 14.28H16.9686L17.4326 13.768V17.008ZM21.4751 17.728V17.008L24.2351 13.4H25.3471L22.6271 17.008L22.1071 16.848H26.5471V17.728H21.4751ZM24.5471 19V17.728L24.5791 16.848V15.72H25.5551V19H24.5471Z" fill="black"/>
</svg>
