<svg width="22" height="29" viewBox="0 0 22 29" fill="none" xmlns="http://www.w3.org/2000/svg">
<path d="M22 25.375V8.15625L13.75 0H3.66667C2.69421 0 1.76157 0.381919 1.07394 1.06174C0.386308 1.74156 0 2.66359 0 3.625V25.375C0 26.3364 0.386308 27.2584 1.07394 27.9383C1.76157 28.6181 2.69421 29 3.66667 29H18.3333C19.3058 29 20.2384 28.6181 20.9261 27.9383C21.6137 27.2584 22 26.3364 22 25.375ZM13.75 5.4375C13.75 6.15856 14.0397 6.85008 14.5555 7.35995C15.0712 7.86981 15.7707 8.15625 16.5 8.15625H20.1667V25.375C20.1667 25.8557 19.9735 26.3167 19.6297 26.6566C19.2859 26.9965 18.8196 27.1875 18.3333 27.1875H3.66667C3.18044 27.1875 2.71412 26.9965 2.3703 26.6566C2.02649 26.3167 1.83333 25.8557 1.83333 25.375V3.625C1.83333 3.1443 2.02649 2.68328 2.3703 2.34337C2.71412 2.00346 3.18044 1.8125 3.66667 1.8125H13.75V5.4375Z" fill="#CC0000"/>
<path d="M5.5638 10.8837C5.99197 10.8837 6.36367 10.9534 6.67891 11.093C6.99886 11.2325 7.24352 11.4326 7.41291 11.693C7.58229 11.9535 7.66698 12.2629 7.66698 12.621C7.66698 12.9746 7.58229 13.2839 7.41291 13.549C7.24352 13.8095 6.99886 14.0096 6.67891 14.1491C6.36367 14.2887 5.99197 14.3584 5.5638 14.3584H4.4487V15.7679H3.5312V10.8837H5.5638ZM5.52146 13.5909C5.92139 13.5909 6.22487 13.5072 6.43189 13.3397C6.63892 13.1723 6.74243 12.9327 6.74243 12.621C6.74243 12.3094 6.63892 12.0698 6.43189 11.9024C6.22487 11.7349 5.92139 11.6512 5.52146 11.6512H4.4487V13.5909H5.52146Z" fill="#C70000"/>
<path d="M8.58321 10.8837H10.7428C11.2698 10.8837 11.738 10.986 12.1473 11.1907C12.5567 11.3907 12.8743 11.6768 13.1001 12.0489C13.3259 12.4164 13.4389 12.842 13.4389 13.3258C13.4389 13.8095 13.3259 14.2375 13.1001 14.6096C12.8743 14.9771 12.5567 15.2632 12.1473 15.4678C11.738 15.6679 11.2698 15.7679 10.7428 15.7679H8.58321V10.8837ZM10.7005 15.0004C11.0628 15.0004 11.3804 14.9329 11.6533 14.798C11.9309 14.6585 12.1426 14.4631 12.2885 14.2119C12.439 13.9561 12.5143 13.6607 12.5143 13.3258C12.5143 12.9909 12.439 12.6978 12.2885 12.4466C12.1426 12.1908 11.9309 11.9954 11.6533 11.8605C11.3804 11.721 11.0628 11.6512 10.7005 11.6512H9.5007V15.0004H10.7005Z" fill="#C70000"/>
<path d="M15.3315 11.6442V13.1304H17.717V13.8979H15.3315V15.7679H14.414V10.8837H18.0205V11.6442H15.3315Z" fill="#C70000"/>
</svg>
