<svg width="27" height="27" viewBox="0 0 27 27" fill="none" xmlns="http://www.w3.org/2000/svg">
<path fill-rule="evenodd" clip-rule="evenodd" d="M13.5 0C20.9558 0 27 6.04416 27 13.5C27 20.9558 20.9558 27 13.5 27C6.04416 27 0 20.9558 0 13.5C0 6.04416 6.04416 0 13.5 0ZM13.4809 18C12.6199 18 11.8929 18.6588 11.8929 19.5972C11.8929 20.5355 12.6199 21.2143 13.4809 21.2143C14.361 21.2143 15.1071 20.5355 15.1071 19.5972C15.1071 18.6588 14.361 18 13.4809 18ZM14.7854 5.78601L12.2341 5.78571C11.8952 5.78571 11.6175 6.04796 11.593 6.38059L11.5913 6.43831L11.874 15.7695C11.8845 16.1168 12.1691 16.3929 12.5165 16.3929H14.4835C14.8309 16.3929 15.1155 16.1168 15.126 15.7695L15.4085 6.44804C15.4193 6.09317 15.1403 5.79676 14.7854 5.78601Z" fill="#EACC2E"/>
</svg>
