<svg width="18" height="18" viewBox="0 0 18 18" fill="none" xmlns="http://www.w3.org/2000/svg">
<path d="M9 7.875C9.14918 7.875 9.29226 7.93426 9.39775 8.03975C9.50324 8.14524 9.5625 8.28832 9.5625 8.4375V10.125H11.25C11.3992 10.125 11.5423 10.1843 11.6477 10.2898C11.7532 10.3952 11.8125 10.5383 11.8125 10.6875C11.8125 10.8367 11.7532 10.9798 11.6477 11.0852C11.5423 11.1907 11.3992 11.25 11.25 11.25H9.5625V12.9375C9.5625 13.0867 9.50324 13.2298 9.39775 13.3352C9.29226 13.4407 9.14918 13.5 9 13.5C8.85082 13.5 8.70774 13.4407 8.60225 13.3352C8.49676 13.2298 8.4375 13.0867 8.4375 12.9375V11.25H6.75C6.60082 11.25 6.45774 11.1907 6.35225 11.0852C6.24676 10.9798 6.1875 10.8367 6.1875 10.6875C6.1875 10.5383 6.24676 10.3952 6.35225 10.2898C6.45774 10.1843 6.60082 10.125 6.75 10.125H8.4375V8.4375C8.4375 8.28832 8.49676 8.14524 8.60225 8.03975C8.70774 7.93426 8.85082 7.875 9 7.875Z" fill="black"/>
<path d="M3.9375 0C4.08668 0 4.22976 0.0592632 4.33525 0.164752C4.44074 0.270242 4.5 0.413316 4.5 0.5625V1.125H13.5V0.5625C13.5 0.413316 13.5593 0.270242 13.6648 0.164752C13.7702 0.0592632 13.9133 0 14.0625 0C14.2117 0 14.3548 0.0592632 14.4602 0.164752C14.5657 0.270242 14.625 0.413316 14.625 0.5625V1.125H15.75C16.3467 1.125 16.919 1.36205 17.341 1.78401C17.7629 2.20597 18 2.77826 18 3.375V15.75C18 16.3467 17.7629 16.919 17.341 17.341C16.919 17.7629 16.3467 18 15.75 18H2.25C1.65326 18 1.08097 17.7629 0.65901 17.341C0.237053 16.919 0 16.3467 0 15.75V3.375C0 2.77826 0.237053 2.20597 0.65901 1.78401C1.08097 1.36205 1.65326 1.125 2.25 1.125H3.375V0.5625C3.375 0.413316 3.43426 0.270242 3.53975 0.164752C3.64524 0.0592632 3.78832 0 3.9375 0V0ZM1.125 4.5V15.75C1.125 16.0484 1.24353 16.3345 1.4545 16.5455C1.66548 16.7565 1.95163 16.875 2.25 16.875H15.75C16.0484 16.875 16.3345 16.7565 16.5455 16.5455C16.7565 16.3345 16.875 16.0484 16.875 15.75V4.5H1.125Z" fill="black"/>
</svg>
