<svg width="52" height="53" viewBox="0 0 52 53" fill="none" xmlns="http://www.w3.org/2000/svg">
<rect y="0.300049" width="52" height="52" rx="8" fill="#FFF5F5"/>
<path d="M42 26.3C42 35.1366 34.8366 42.3 26 42.3C17.1634 42.3 10 35.1366 10 26.3C10 17.4635 17.1634 10.3 26 10.3C34.8366 10.3 42 17.4635 42 26.3ZM26 18.3C24.9292 18.3 24.0925 19.2246 24.199 20.2901L24.9005 27.305C24.957 27.8699 25.4323 28.3 26 28.3C26.5677 28.3 27.043 27.8699 27.0995 27.305L27.801 20.2901C27.9075 19.2246 27.0708 18.3 26 18.3ZM26.0031 30.3C24.8985 30.3 24.0031 31.1955 24.0031 32.3C24.0031 33.4046 24.8985 34.3 26.0031 34.3C27.1077 34.3 28.0031 33.4046 28.0031 32.3C28.0031 31.1955 27.1077 30.3 26.0031 30.3Z" fill="#FF0000"/>
</svg>
