<svg width="35" height="35" viewBox="0 0 35 35" fill="none" xmlns="http://www.w3.org/2000/svg">
<path d="M30.625 30.625V9.84375L20.7812 0H8.75C7.58968 0 6.47688 0.460936 5.65641 1.28141C4.83594 2.10188 4.375 3.21468 4.375 4.375V30.625C4.375 31.7853 4.83594 32.8981 5.65641 33.7186C6.47688 34.5391 7.58968 35 8.75 35H26.25C27.4103 35 28.5231 34.5391 29.3436 33.7186C30.1641 32.8981 30.625 31.7853 30.625 30.625ZM20.7812 6.5625C20.7812 7.43274 21.127 8.26734 21.7423 8.88269C22.3577 9.49805 23.1923 9.84375 24.0625 9.84375H28.4375V30.625C28.4375 31.2052 28.207 31.7616 27.7968 32.1718C27.3866 32.582 26.8302 32.8125 26.25 32.8125H8.75C8.16984 32.8125 7.61344 32.582 7.2032 32.1718C6.79297 31.7616 6.5625 31.2052 6.5625 30.625V4.375C6.5625 3.79484 6.79297 3.23844 7.2032 2.8282C7.61344 2.41797 8.16984 2.1875 8.75 2.1875H20.7812V6.5625Z" fill="black"/>
<path d="M11.488 19.08C11.0507 19.08 10.632 19.0187 10.232 18.896C9.832 18.768 9.51467 18.6053 9.28 18.408L9.64 17.6C9.864 17.776 10.1413 17.9227 10.472 18.04C10.8027 18.1573 11.1413 18.216 11.488 18.216C11.7813 18.216 12.0187 18.184 12.2 18.12C12.3813 18.056 12.5147 17.9707 12.6 17.864C12.6853 17.752 12.728 17.6267 12.728 17.488C12.728 17.3173 12.6667 17.1813 12.544 17.08C12.4213 16.9733 12.2613 16.8907 12.064 16.832C11.872 16.768 11.656 16.7093 11.416 16.656C11.1813 16.6027 10.944 16.5413 10.704 16.472C10.4693 16.3973 10.2533 16.304 10.056 16.192C9.864 16.0747 9.70667 15.92 9.584 15.728C9.46133 15.536 9.4 15.2907 9.4 14.992C9.4 14.688 9.48 14.4107 9.64 14.16C9.80533 13.904 10.0533 13.7013 10.384 13.552C10.72 13.3973 11.144 13.32 11.656 13.32C11.992 13.32 12.3253 13.3627 12.656 13.448C12.9867 13.5333 13.2747 13.656 13.52 13.816L13.192 14.624C12.9413 14.4747 12.6827 14.3653 12.416 14.296C12.1493 14.2213 11.8933 14.184 11.648 14.184C11.36 14.184 11.1253 14.2187 10.944 14.288C10.768 14.3573 10.6373 14.448 10.552 14.56C10.472 14.672 10.432 14.8 10.432 14.944C10.432 15.1147 10.4907 15.2533 10.608 15.36C10.7307 15.4613 10.888 15.5413 11.08 15.6C11.2773 15.6587 11.496 15.7173 11.736 15.776C11.976 15.8293 12.2133 15.8907 12.448 15.96C12.688 16.0293 12.904 16.12 13.096 16.232C13.2933 16.344 13.4507 16.496 13.568 16.688C13.6907 16.88 13.752 17.1227 13.752 17.416C13.752 17.7147 13.6693 17.992 13.504 18.248C13.344 18.4987 13.096 18.7013 12.76 18.856C12.424 19.0053 12 19.08 11.488 19.08ZM16.4393 19L13.9912 13.4H15.1193L17.3033 18.464H16.6553L18.8633 13.4H19.9033L17.4633 19H16.4393ZM23.0555 19.08C22.6182 19.08 22.2155 19.0107 21.8475 18.872C21.4848 18.728 21.1675 18.528 20.8955 18.272C20.6235 18.0107 20.4128 17.704 20.2635 17.352C20.1142 17 20.0395 16.616 20.0395 16.2C20.0395 15.784 20.1142 15.4 20.2635 15.048C20.4128 14.696 20.6235 14.392 20.8955 14.136C21.1728 13.8747 21.4955 13.6747 21.8635 13.536C22.2315 13.392 22.6342 13.32 23.0715 13.32C23.5462 13.32 23.9728 13.3973 24.3515 13.552C24.7355 13.7067 25.0582 13.9333 25.3195 14.232L24.6635 14.872C24.4448 14.6533 24.2075 14.4933 23.9515 14.392C23.7008 14.2853 23.4235 14.232 23.1195 14.232C22.8262 14.232 22.5542 14.28 22.3035 14.376C22.0528 14.472 21.8368 14.608 21.6555 14.784C21.4742 14.96 21.3328 15.168 21.2315 15.408C21.1355 15.648 21.0875 15.912 21.0875 16.2C21.0875 16.4827 21.1355 16.744 21.2315 16.984C21.3328 17.224 21.4742 17.4347 21.6555 17.616C21.8368 17.792 22.0502 17.928 22.2955 18.024C22.5408 18.12 22.8128 18.168 23.1115 18.168C23.3888 18.168 23.6555 18.1253 23.9115 18.04C24.1728 17.9493 24.4208 17.8 24.6555 17.592L25.2475 18.368C24.9542 18.6027 24.6128 18.7813 24.2235 18.904C23.8395 19.0213 23.4502 19.08 23.0555 19.08ZM24.2635 18.232V16.136H25.2475V18.368L24.2635 18.232Z" fill="black"/>
</svg>
