<svg width="20" height="29" viewBox="0 0 20 29" fill="none" xmlns="http://www.w3.org/2000/svg">
<path d="M20 25.375V8.15625L12.5 0H3.33333C2.44928 0 1.60143 0.381919 0.976311 1.06174C0.351189 1.74156 0 2.66359 0 3.625V25.375C0 26.3364 0.351189 27.2584 0.976311 27.9383C1.60143 28.6181 2.44928 29 3.33333 29H16.6667C17.5507 29 18.3986 28.6181 19.0237 27.9383C19.6488 27.2584 20 26.3364 20 25.375ZM12.5 5.4375C12.5 6.15856 12.7634 6.85008 13.2322 7.35995C13.7011 7.86981 14.337 8.15625 15 8.15625H18.3333V25.375C18.3333 25.8557 18.1577 26.3167 17.8452 26.6566C17.5326 26.9965 17.1087 27.1875 16.6667 27.1875H3.33333C2.89131 27.1875 2.46738 26.9965 2.15482 26.6566C1.84226 26.3167 1.66667 25.8557 1.66667 25.375V3.625C1.66667 3.14429 1.84226 2.68328 2.15482 2.34337C2.46738 2.00346 2.89131 1.8125 3.33333 1.8125H12.5V5.4375Z" fill="black"/>
<path d="M5.7999 11.4829H4.31138V10.7154H8.12251V11.4829H6.63399V15.5996H5.7999V11.4829Z" fill="black"/>
<path d="M11.3837 15.5996L10.1647 13.7436L8.95845 15.5996H8.00887L9.67704 13.1086L8.0987 10.7154H9.04185L10.1903 12.4527L11.326 10.7154H12.2306L10.6587 13.0737L12.3461 15.5996H11.3837Z" fill="black"/>
<path d="M13.7197 11.4829H12.2312V10.7154H16.0423V11.4829H14.5538V15.5996H13.7197V11.4829Z" fill="black"/>
</svg>
