<svg width="52" height="53" viewBox="0 0 52 53" fill="none" xmlns="http://www.w3.org/2000/svg">
<rect y="0.5" width="52" height="52" rx="8" fill="#ECF2FC"/>
<path d="M42 26.5C42 35.3366 34.8366 42.5 26 42.5C17.1634 42.5 10 35.3366 10 26.5C10 17.6634 17.1634 10.5 26 10.5C34.8366 10.5 42 17.6634 42 26.5ZM26 17.5C26 16.9477 25.5523 16.5 25 16.5C24.4477 16.5 24 16.9477 24 17.5V28.5C24 28.8589 24.1923 29.1902 24.5039 29.3682L31.5039 33.3682C31.9834 33.6423 32.5942 33.4757 32.8682 32.9961C33.1423 32.5166 32.9757 31.9058 32.4961 31.6318L26 27.9197V17.5Z" fill="#0B5CD7"/>
</svg>
