<svg width="23" height="19" viewBox="0 0 23 19" fill="none" xmlns="http://www.w3.org/2000/svg">
<path d="M9.46464 9.375C10.7197 9.375 11.9234 8.88114 12.8109 8.00206C13.6984 7.12299 14.197 5.9307 14.197 4.6875C14.197 3.4443 13.6984 2.25201 12.8109 1.37294C11.9234 0.49386 10.7197 0 9.46464 0C8.20955 0 7.00587 0.49386 6.11839 1.37294C5.2309 2.25201 4.73232 3.4443 4.73232 4.6875C4.73232 5.9307 5.2309 7.12299 6.11839 8.00206C7.00587 8.88114 8.20955 9.375 9.46464 9.375ZM12.6195 4.6875C12.6195 5.5163 12.2871 6.31116 11.6955 6.89721C11.1038 7.48326 10.3014 7.8125 9.46464 7.8125C8.62792 7.8125 7.82546 7.48326 7.2338 6.89721C6.64215 6.31116 6.30976 5.5163 6.30976 4.6875C6.30976 3.8587 6.64215 3.06384 7.2338 2.47779C7.82546 1.89174 8.62792 1.5625 9.46464 1.5625C10.3014 1.5625 11.1038 1.89174 11.6955 2.47779C12.2871 3.06384 12.6195 3.8587 12.6195 4.6875ZM18.9293 17.1875C18.9293 18.75 17.3518 18.75 17.3518 18.75H1.57744C1.57744 18.75 0 18.75 0 17.1875C0 15.625 1.57744 10.9375 9.46464 10.9375C17.3518 10.9375 18.9293 15.625 18.9293 17.1875ZM17.3518 17.1812C17.3503 16.7969 17.1089 15.6406 16.0394 14.5812C15.0109 13.5625 13.0754 12.5 9.46464 12.5C5.8523 12.5 3.91836 13.5625 2.88987 14.5812C1.82037 15.6406 1.5806 16.7969 1.57744 17.1812H17.3518Z" fill="white"/>
<path fill-rule="evenodd" clip-rule="evenodd" d="M18.9436 1C19.1528 1 19.3534 1.08231 19.5013 1.22882C19.6492 1.37534 19.7323 1.57405 19.7323 1.78125V4.125H22.0985C22.3077 4.125 22.5083 4.20731 22.6562 4.35382C22.8041 4.50034 22.8872 4.69905 22.8872 4.90625C22.8872 5.11345 22.8041 5.31216 22.6562 5.45868C22.5083 5.60519 22.3077 5.6875 22.0985 5.6875H19.7323V8.03125C19.7323 8.23845 19.6492 8.43716 19.5013 8.58368C19.3534 8.73019 19.1528 8.8125 18.9436 8.8125C18.7344 8.8125 18.5338 8.73019 18.3859 8.58368C18.238 8.43716 18.1549 8.23845 18.1549 8.03125V5.6875H15.7887C15.5795 5.6875 15.3789 5.60519 15.231 5.45868C15.0831 5.31216 15 5.11345 15 4.90625C15 4.69905 15.0831 4.50034 15.231 4.35382C15.3789 4.20731 15.5795 4.125 15.7887 4.125H18.1549V1.78125C18.1549 1.57405 18.238 1.37534 18.3859 1.22882C18.5338 1.08231 18.7344 1 18.9436 1Z" fill="white"/>
</svg>
