<svg width="19" height="19" viewBox="0 0 19 19" fill="none" xmlns="http://www.w3.org/2000/svg">
<path d="M9.375 9.5C10.6182 9.5 11.8105 9.00614 12.6896 8.12706C13.5686 7.24799 14.0625 6.0557 14.0625 4.8125C14.0625 3.5693 13.5686 2.37701 12.6896 1.49794C11.8105 0.61886 10.6182 0.125 9.375 0.125C8.1318 0.125 6.93951 0.61886 6.06044 1.49794C5.18136 2.37701 4.6875 3.5693 4.6875 4.8125C4.6875 6.0557 5.18136 7.24799 6.06044 8.12706C6.93951 9.00614 8.1318 9.5 9.375 9.5ZM12.5 4.8125C12.5 5.6413 12.1708 6.43616 11.5847 7.02221C10.9987 7.60826 10.2038 7.9375 9.375 7.9375C8.5462 7.9375 7.75134 7.60826 7.16529 7.02221C6.57924 6.43616 6.25 5.6413 6.25 4.8125C6.25 3.9837 6.57924 3.18884 7.16529 2.60279C7.75134 2.01674 8.5462 1.6875 9.375 1.6875C10.2038 1.6875 10.9987 2.01674 11.5847 2.60279C12.1708 3.18884 12.5 3.9837 12.5 4.8125ZM18.75 17.3125C18.75 18.875 17.1875 18.875 17.1875 18.875H1.5625C1.5625 18.875 0 18.875 0 17.3125C0 15.75 1.5625 11.0625 9.375 11.0625C17.1875 11.0625 18.75 15.75 18.75 17.3125ZM17.1875 17.3062C17.1859 16.9219 16.9469 15.7656 15.8875 14.7062C14.8688 13.6875 12.9516 12.625 9.375 12.625C5.79688 12.625 3.88125 13.6875 2.8625 14.7062C1.80313 15.7656 1.56562 16.9219 1.5625 17.3062H17.1875Z" fill="black"/>
</svg>
