<svg width="10" height="14" viewBox="0 0 10 14" fill="none" xmlns="http://www.w3.org/2000/svg">
<path d="M2.834 8L2.2425 7.1495L1.6615 8H1.0105L1.917 6.754L1.056 5.55H1.7L2.2635 6.3445L2.8165 5.55H3.429L2.575 6.733L3.4885 8H2.834Z" fill="black"/>
<path d="M5.93992 8L5.93642 6.53L5.21542 7.741H4.95992L4.24242 6.5615V8H3.71042V5.55H4.17942L5.09642 7.0725L5.99942 5.55H6.46492L6.47192 8H5.93992Z" fill="black"/>
<path d="M7.0532 5.55H7.6202V7.538H8.8487V8H7.0532V5.55Z" fill="black"/>
<path d="M10 12.25V3.9375L6.25 0H1.66667C1.22464 0 0.800716 0.184375 0.488155 0.512563C0.175595 0.840752 0 1.28587 0 1.75V12.25C0 12.7141 0.175595 13.1592 0.488155 13.4874C0.800716 13.8156 1.22464 14 1.66667 14H8.33333C8.77536 14 9.19928 13.8156 9.51184 13.4874C9.8244 13.1592 10 12.7141 10 12.25ZM6.25 2.625C6.25 2.9731 6.3817 3.30694 6.61612 3.55308C6.85054 3.79922 7.16848 3.9375 7.5 3.9375H9.16667V12.25C9.16667 12.4821 9.07887 12.7046 8.92259 12.8687C8.76631 13.0328 8.55435 13.125 8.33333 13.125H1.66667C1.44565 13.125 1.23369 13.0328 1.07741 12.8687C0.921131 12.7046 0.833333 12.4821 0.833333 12.25V1.75C0.833333 1.51794 0.921131 1.29538 1.07741 1.13128C1.23369 0.967187 1.44565 0.875 1.66667 0.875H6.25V2.625Z" fill="black"/>
</svg>
