<svg width="20" height="30" viewBox="0 0 20 30" fill="none" xmlns="http://www.w3.org/2000/svg">
<path d="M3.33333 0H12.155C12.597 0.000106195 13.0208 0.19772 13.3333 0.549375L19.5117 7.5C19.8242 7.85155 19.9999 8.32838 20 8.82562V26.25C20 27.2446 19.6488 28.1984 19.0237 28.9016C18.3986 29.6049 17.5507 30 16.6667 30H3.33333C2.44928 30 1.60143 29.6049 0.976311 28.9016C0.351189 28.1984 0 27.2446 0 26.25V3.75C0 2.75544 0.351189 1.80161 0.976311 1.09835C1.60143 0.395088 2.44928 0 3.33333 0V0ZM12.5 2.8125V6.5625C12.5 7.05978 12.6756 7.53669 12.9882 7.88832C13.3007 8.23996 13.7246 8.4375 14.1667 8.4375H17.5L12.5 2.8125Z" fill="#009BCC"/>
</svg>
