<svg width="21" height="21" viewBox="0 0 21 21" fill="none" xmlns="http://www.w3.org/2000/svg">
<g clip-path="url(#clip0_18638_38991)">
<path d="M20.0445 10.9116C20.0445 13.552 19.0245 16.0843 17.2089 17.9513C15.3933 19.8184 12.9308 20.8673 10.3631 20.8673C7.79541 20.8673 5.3329 19.8184 3.51727 17.9513C1.70165 16.0843 0.681641 13.552 0.681641 10.9116C0.681641 8.27113 1.70165 5.73885 3.51727 3.87178C5.3329 2.00472 7.79541 0.955811 10.3631 0.955811C12.9308 0.955811 15.3933 2.00472 17.2089 3.87178C19.0245 5.73885 20.0445 8.27113 20.0445 10.9116ZM15.2401 7.14082C15.1537 7.05224 15.0508 6.98249 14.9375 6.93575C14.8242 6.88901 14.703 6.86624 14.581 6.8688C14.459 6.87135 14.3387 6.89918 14.2274 6.95063C14.1161 7.00207 14.016 7.07607 13.9331 7.1682L9.73017 12.675L7.19726 10.0691C7.0252 9.90419 6.79763 9.81444 6.56249 9.8187C6.32735 9.82297 6.103 9.92092 5.93671 10.0919C5.77041 10.2629 5.67516 10.4936 5.67101 10.7354C5.66686 10.9772 5.75414 11.2113 5.91447 11.3882L9.11661 14.6823C9.20287 14.7709 9.30559 14.8406 9.41865 14.8875C9.5317 14.9343 9.65277 14.9572 9.77464 14.9549C9.8965 14.9526 10.0167 14.9251 10.128 14.8739C10.2392 14.8228 10.3394 14.7492 10.4224 14.6574L15.2534 8.44751C15.4181 8.27142 15.5091 8.03594 15.5069 7.79163C15.5046 7.54732 15.4093 7.31366 15.2413 7.14082H15.2401Z" fill="#06BD2E"/>
</g>
<defs>
<clipPath id="clip0_18638_38991">
<rect width="19.3629" height="19.9115" fill="white" transform="translate(0.681641 0.955811)"/>
</clipPath>
</defs>
</svg>
