<svg width="21" height="21" viewBox="0 0 21 21" fill="none" xmlns="http://www.w3.org/2000/svg">
<path fill-rule="evenodd" clip-rule="evenodd" d="M10.9118 0.544434C16.4102 0.544434 20.8676 5.00178 20.8676 10.5002C20.8676 15.9986 16.4102 20.4559 10.9118 20.4559C5.4134 20.4559 0.956055 15.9986 0.956055 10.5002C0.956055 5.00178 5.4134 0.544434 10.9118 0.544434ZM10.8977 13.8188C10.2628 13.8188 9.7266 14.3046 9.7266 14.9966C9.7266 15.6886 10.2628 16.1892 10.8977 16.1892C11.5467 16.1892 12.097 15.6886 12.097 14.9966C12.097 14.3046 11.5467 13.8188 10.8977 13.8188ZM11.8597 4.8114L9.97822 4.81118C9.7283 4.81118 9.52354 5.00458 9.50544 5.24989L9.5042 5.29245L9.71267 12.1738C9.72043 12.43 9.9303 12.6336 10.1865 12.6336H11.6371C11.8933 12.6336 12.1032 12.43 12.1109 12.1738L12.3193 5.29963C12.3272 5.03792 12.1215 4.81933 11.8597 4.8114Z" fill="#FF0000"/>
</svg>
