<svg width="14" height="21" viewBox="0 0 14 21" fill="none" xmlns="http://www.w3.org/2000/svg">
<path d="M2.5243 0.544189H8.47863C8.77696 0.54426 9.06305 0.67542 9.27396 0.908819L13.4441 5.52207C13.6551 5.75539 13.7737 6.07188 13.7737 6.4019V17.9668C13.7737 18.6269 13.5367 19.2599 13.1148 19.7267C12.6928 20.1935 12.1206 20.4557 11.5239 20.4557H2.5243C1.92759 20.4557 1.35533 20.1935 0.933391 19.7267C0.511455 19.2599 0.274414 18.6269 0.274414 17.9668V3.03313C0.274414 2.37302 0.511455 1.73995 0.933391 1.27318C1.35533 0.806416 1.92759 0.544189 2.5243 0.544189V0.544189ZM8.71149 2.41089V4.89983C8.71149 5.22988 8.83001 5.54642 9.04098 5.7798C9.25195 6.01319 9.53808 6.1443 9.83644 6.1443H12.0863L8.71149 2.41089Z" fill="#009BCC"/>
</svg>
