<svg width="21" height="21" viewBox="0 0 21 21" fill="none" xmlns="http://www.w3.org/2000/svg">
<path d="M20.8676 10.4999C20.8676 13.1404 19.8187 15.6727 17.9516 17.5397C16.0845 19.4068 13.5522 20.4557 10.9118 20.4557C8.27138 20.4557 5.73909 19.4068 3.87203 17.5397C2.00496 15.6727 0.956055 13.1404 0.956055 10.4999C0.956055 7.85951 2.00496 5.32723 3.87203 3.46016C5.73909 1.5931 8.27138 0.544189 10.9118 0.544189C13.5522 0.544189 16.0845 1.5931 17.9516 3.46016C19.8187 5.32723 20.8676 7.85951 20.8676 10.4999ZM10.9118 4.89983C10.9118 4.7348 10.8463 4.57654 10.7296 4.45985C10.6129 4.34315 10.4546 4.2776 10.2896 4.2776C10.1245 4.2776 9.96628 4.34315 9.84959 4.45985C9.73289 4.57654 9.66734 4.7348 9.66734 4.89983V11.7444C9.66737 11.8541 9.6964 11.9618 9.75147 12.0567C9.80654 12.1515 9.88571 12.2301 9.98094 12.2845L14.3366 14.7734C14.4795 14.8507 14.647 14.869 14.8032 14.8244C14.9595 14.7798 15.0921 14.6758 15.1727 14.5348C15.2533 14.3937 15.2755 14.2267 15.2346 14.0694C15.1937 13.9122 15.093 13.7772 14.9538 13.6932L10.9118 11.3835V4.89983Z" fill="#0798EA"/>
</svg>
