<svg width="40" height="40" viewBox="0 0 40 40" fill="none" xmlns="http://www.w3.org/2000/svg">
<rect y="0.0883789" width="39.823" height="39.823" rx="10" fill="#E1F8FF"/>
<path d="M15.5243 10.0442H21.4786C21.777 10.0443 22.063 10.1754 22.274 10.4088L26.4441 15.0221C26.6551 15.2554 26.7737 15.5719 26.7737 15.9019V27.4668C26.7737 28.1269 26.5367 28.7599 26.1148 29.2267C25.6928 29.6935 25.1206 29.9557 24.5239 29.9557H15.5243C14.9276 29.9557 14.3553 29.6935 13.9334 29.2267C13.5115 28.7599 13.2744 28.1269 13.2744 27.4668V12.5331C13.2744 11.873 13.5115 11.2399 13.9334 10.7732C14.3553 10.3064 14.9276 10.0442 15.5243 10.0442V10.0442ZM21.7115 11.9109V14.3998C21.7115 14.7299 21.83 15.0464 22.041 15.2798C22.2519 15.5132 22.5381 15.6443 22.8364 15.6443H25.0863L21.7115 11.9109Z" fill="#009BCC"/>
</svg>
