<svg width="40" height="41" viewBox="0 0 40 41" fill="none" xmlns="http://www.w3.org/2000/svg">
<rect y="0.588379" width="39.823" height="39.823" rx="10" fill="#FFF9D8"/>
<path fill-rule="evenodd" clip-rule="evenodd" d="M19.9118 10.5444C25.4102 10.5444 29.8676 15.0018 29.8676 20.5002C29.8676 25.9986 25.4102 30.4559 19.9118 30.4559C14.4134 30.4559 9.95605 25.9986 9.95605 20.5002C9.95605 15.0018 14.4134 10.5444 19.9118 10.5444ZM19.8977 23.8188C19.2628 23.8188 18.7266 24.3046 18.7266 24.9966C18.7266 25.6886 19.2628 26.1892 19.8977 26.1892C20.5467 26.1892 21.097 25.6886 21.097 24.9966C21.097 24.3046 20.5467 23.8188 19.8977 23.8188ZM20.8597 14.8114L18.9782 14.8112C18.7283 14.8112 18.5235 15.0046 18.5054 15.2499L18.5042 15.2924L18.7127 22.1738C18.7204 22.43 18.9303 22.6336 19.1865 22.6336H20.6371C20.8933 22.6336 21.1032 22.43 21.1109 22.1738L21.3193 15.2996C21.3272 15.0379 21.1215 14.8193 20.8597 14.8114Z" fill="#EACC2E"/>
</svg>
