<svg width="40" height="41" viewBox="0 0 40 41" fill="none" xmlns="http://www.w3.org/2000/svg">
<rect y="0.436035" width="39.823" height="39.823" rx="10" fill="#E1F8FF"/>
<path d="M11.2197 25.1061H10.9925L10.8431 25.2772L6.62346 30.107L5.89922 30.9359H7H24.3913H24.6183L24.7677 30.765L32.6155 21.7861L33.3401 20.957H32.239H28.3191H28.0921L27.9427 21.1279L24.464 25.1061H11.2197Z" fill="#3C95FD" stroke="white"/>
<path d="M11.2197 19.5956H10.9925L10.8431 19.7667L6.62346 24.5965L5.89922 25.4254H7H24.3913H24.6183L24.7677 25.2545L32.6155 16.2756L33.3401 15.4465H32.239H28.3112H28.0839L27.9345 15.6178L24.4637 19.5956H11.2197Z" fill="#3C95FD" stroke="white"/>
<path d="M24.3913 19.9149H24.6183L24.7677 19.744L32.6155 10.7651L33.3401 9.93604H32.239H14.8478H14.6207L14.4713 10.107L6.62353 19.0859L5.89893 19.9149H7H24.3913Z" fill="#3C95FD" stroke="white"/>
</svg>
