<svg width="41" height="40" viewBox="0 0 41 40" fill="none" xmlns="http://www.w3.org/2000/svg">
<rect x="0.561523" y="0.0883789" width="39.823" height="39.823" rx="10" fill="#EDFBFF"/>
<g clip-path="url(#clip0_18582_39668)">
<path d="M30.4291 19.9999C30.4291 22.6404 29.3802 25.1727 27.5131 27.0397C25.646 28.9068 23.1138 29.9557 20.4733 29.9557C17.8329 29.9557 15.3006 28.9068 13.4336 27.0397C11.5665 25.1727 10.5176 22.6404 10.5176 19.9999C10.5176 17.3595 11.5665 14.8272 13.4336 12.9602C15.3006 11.0931 17.8329 10.0442 20.4733 10.0442C23.1138 10.0442 25.646 11.0931 27.5131 12.9602C29.3802 14.8272 30.4291 17.3595 30.4291 19.9999ZM20.4733 14.3998C20.4733 14.2348 20.4078 14.0765 20.2911 13.9598C20.1744 13.8432 20.0161 13.7776 19.8511 13.7776C19.6861 13.7776 19.5278 13.8432 19.4111 13.9598C19.2944 14.0765 19.2289 14.2348 19.2289 14.3998V21.2444C19.2289 21.3541 19.2579 21.4618 19.313 21.5567C19.3681 21.6515 19.4472 21.7301 19.5425 21.7845L23.8981 24.2734C24.041 24.3507 24.2085 24.369 24.3648 24.3244C24.521 24.2798 24.6536 24.1758 24.7342 24.0348C24.8148 23.8937 24.8371 23.7267 24.7962 23.5694C24.7553 23.4122 24.6545 23.2772 24.5154 23.1932L20.4733 20.8835V14.3998Z" fill="#0798EA"/>
</g>
<defs>
<clipPath id="clip0_18582_39668">
<rect width="19.9115" height="19.9115" fill="white" transform="translate(10.5176 10.0442)"/>
</clipPath>
</defs>
</svg>
