<svg width="41" height="40" viewBox="0 0 41 40" fill="none" xmlns="http://www.w3.org/2000/svg">
<rect x="0.34668" y="0.0883789" width="39.823" height="39.823" rx="10" fill="#FFEDED"/>
<path fill-rule="evenodd" clip-rule="evenodd" d="M20.2585 10.0444C25.7569 10.0444 30.2142 14.5018 30.2142 20.0002C30.2142 25.4986 25.7569 29.9559 20.2585 29.9559C14.7601 29.9559 10.3027 25.4986 10.3027 20.0002C10.3027 14.5018 14.7601 10.0444 20.2585 10.0444ZM20.2444 23.3188C19.6094 23.3188 19.0733 23.8046 19.0733 24.4966C19.0733 25.1886 19.6094 25.6892 20.2444 25.6892C20.8934 25.6892 21.4437 25.1886 21.4437 24.4966C21.4437 23.8046 20.8934 23.3188 20.2444 23.3188ZM21.2064 14.3114L19.3249 14.3112C19.075 14.3112 18.8702 14.5046 18.8521 14.7499L18.8509 14.7924L19.0593 21.6738C19.0671 21.93 19.277 22.1336 19.5332 22.1336H20.9838C21.24 22.1336 21.4499 21.93 21.4576 21.6738L21.6659 14.7996C21.6739 14.5379 21.4681 14.3193 21.2064 14.3114Z" fill="#FF0000"/>
</svg>
