<svg width="40" height="40" viewBox="0 0 40 40" fill="none" xmlns="http://www.w3.org/2000/svg">
<rect x="0.129883" y="0.0883789" width="39.823" height="39.823" rx="10" fill="#F1FFF4"/>
<g clip-path="url(#clip0_18582_39686)">
<path d="M29.9974 19.9999C29.9974 22.6404 28.9485 25.1727 27.0815 27.0397C25.2144 28.9068 22.6821 29.9557 20.0417 29.9557C17.4013 29.9557 14.869 28.9068 13.0019 27.0397C11.1348 25.1727 10.0859 22.6404 10.0859 19.9999C10.0859 17.3595 11.1348 14.8272 13.0019 12.9602C14.869 11.0931 17.4013 10.0442 20.0417 10.0442C22.6821 10.0442 25.2144 11.0931 27.0815 12.9602C28.9485 14.8272 29.9974 17.3595 29.9974 19.9999ZM25.0569 16.2292C24.968 16.1406 24.8622 16.0709 24.7457 16.0241C24.6292 15.9774 24.5045 15.9546 24.3791 15.9572C24.2536 15.9597 24.1299 15.9876 24.0155 16.039C23.901 16.0905 23.7981 16.1644 23.7129 16.2566L19.3908 21.7634L16.7862 19.1574C16.6092 18.9926 16.3752 18.9028 16.1334 18.9071C15.8916 18.9113 15.6609 19.0093 15.4899 19.1803C15.3189 19.3513 15.2209 19.582 15.2167 19.8238C15.2124 20.0656 15.3022 20.2996 15.467 20.4766L18.7599 23.7707C18.8486 23.8592 18.9542 23.929 19.0705 23.9758C19.1867 24.0227 19.3112 24.0456 19.4366 24.0433C19.5619 24.041 19.6854 24.0134 19.7999 23.9623C19.9143 23.9112 20.0173 23.8376 20.1027 23.7458L25.0706 17.5359C25.24 17.3598 25.3335 17.1243 25.3312 16.88C25.3289 16.6357 25.2308 16.402 25.0581 16.2292H25.0569Z" fill="#06BD2E"/>
</g>
<defs>
<clipPath id="clip0_18582_39686">
<rect width="19.9115" height="19.9115" fill="white" transform="translate(10.0859 10.0442)"/>
</clipPath>
</defs>
</svg>
